/* XPM */
static char * scratch_xpm[] = {
"24 24 11 1",
" 	s None	c None",
".	c #0000FFFF0000",
"X	c #861782078617",
"o	c white",
"O	c #000082078617",
"+	c #30C230C26185",
"@	c #C71BC30BC71B",
"#	c #000082070000",
"$	c #000034D338E3",
"%	c #208120812081",
"&	c #41039A69A699",
"                        ",
"                        ",
"          .X            ",
"         .oO   +++++    ",
"        .o@#X   +++     ",
"       .o@.#$    +      ",
"      .o@.@#$X          ",
"     .o@.@.#%O          ",
"    .o@.@.@#%%X         ",
"   .o@.@.@.@.@$         ",
"  .o@.@.@.@.@.O$        ",
" &o@.@.@.@.@.@%%        ",
" &o.@.@.@.@.@.%%        ",
"  #OOOOOOOOOOO%$        ",
"   #&#O#O#####%$        ",
"    #&#&######$O        ",
"     #&#&#####$X        ",
"      #&###%%%%         ",
"    XXX#&##$$$OXXXX     ",
"     XXX$&#$$XXXXXXX    ",
"       XX$&$$XXXXXX     ",
"        XX$$XXXX        ",
"                        ",
"                        "};
