/* XPM */
static char * scratch_xpm[] = {
"24 24 10 1",
" 	s None	c None",
".	c #0000FFFF0000",
"X	c #000082078617",
"o	c #41039A69A699",
"O	c #000082070000",
"+	c #30C230C26185",
"@	c white",
"#	c #C71BC30BC71B",
"$	c #000034D338E3",
"%	c #861782078617",
"                        ",
"                        ",
"      .Xo               ",
"      ..Oo      +++++   ",
"      o@#Oo      +++    ",
"      o#.#Oo      +     ",
"      o@#.#Oo           ",
"      o#.#.#Oo          ",
"  .....@#.#.#OO         ",
"  o#@#@#.#.#.#XO        ",
"  o@..#.#.#.#.#XO       ",
"  o#.#.#.#.#.#.#XO      ",
"  o@..#.#.#.#.#.OX      ",
"  o#XXXXXXXXXXX$$X      ",
"  o@OoOoOOOOOO$$X       ",
"  .#oOoOOOOOO$$X        ",
"  ..OoOoOOOO$$X         ",
"  O$$$$oOOO$$X%%%%%%%   ",
"      OoOO$+X%%%%%%%    ",
"   %%%OoO$+X%%%%%       ",
"    %%OO$+X%%%          ",
"     %%$+X              ",
"                        ",
"                        "};
