/* XPM */
static char * reload_xpm[] = {
"24 24 9 1",
" 	s None	c None",
".	c #61856595CF3C",
"X	c #30C230C26185",
"o	c white",
"O	c #9E799A69FFFF",
"+	c #208120812081",
"@	c #000000008617",
"#	c #C71BC30BC71B",
"$	c #861782078617",
"                        ",
"                        ",
"       ........X        ",
"      .o.O.O..+@XX      ",
"     .oOOOOO.+++@XX     ",
" .o    O#O#O#OOO.++X    ",
"  .o  O#O#O#O#O+++XX    ",
"   .o  O O O#O+X@@XX    ",
"    .o      .+X@@@XX    ",
"     .o    .+X@@@@XX    ",
"      .o  .+X.@@@@XX    ",
"       .o.+X .@@@@XX    ",
"        XXX  .@@@+XX    ",
"             .@@@+XX $  ",
"             OO@++XX $$ ",
"     OOOOOOOOO.+@+XX$$$ ",
"     OOOOOOOOO.+++XX..  ",
"     O.O.O.O.O..+X.X.$  ",
"     O............X.$$  ",
"      O..XXXXX@XXX.$$   ",
"         $$$$$$$$$$$    ",
"                        ",
"                        ",
"                        "};
