/* XPM */
static char * source_xpm[] = {
"24 24 10 1 0 0",
" 	c black",
".	s None	c None",
"X	c #808080",
"o	c white",
"O	c NavyBlue",
"+	c #008080",
"@	c #c0c0c0",
"#	c blue1",
"$	c #008000",
"%	c #800080",
" .......................",
".....XXXXXXXXXXXX  .....",
".....ooooOOOOXOOO oX....",
".....oooo+@@@o@@O oo ...",
".....ooooO++OX +O XX  ..",
".....oooooooooooooooo  .",
".....oooXX  X X   Xoo  .",
".....oooooooooooooooo  .",
"..   @ooooooooooooooo  .",
"....  XX@oooooooooooo  .",
".... O#O X @   X XX@o  .",
".....### XXX X@X@X@oo  .",
".... ##      XX @@ooo  .",
".. ####    @ $@@ooooo  .",
"...  #XXXO@@ XX@@oooo  .",
".....OXX@@@@  XXX@X@o  .",
".....X @@@@@  XX@@@@o  .",
".... @@@@@@o  X@@oooo  .",
"..  OXXXXXXX  %XX@@@o  .",
"..   XXX      X@@@@@o  .",
".....XXX      $  @ooo  .",
".....@XXXX@XXX@@@oooo  .",
".....                  .",
"........................"};
