/* XPM */
static char * abort_xpm[] = {
"16 16 5 1",
" 	s None	c None",
".	c black",
"X	c white",
"o	c blue",
"O	c red",
"                ",
" .........      ",
" .XXXXXXX.      ",
" .XXXXXXX.      ",
" .XooooXX.      ",
" .XXXXXXX.      ",
" .XXooooX.      ",
" .XXXXXXXOOO    ",
" .XooooXO.  O   ",
" .XXXXXOX.   O  ",
" .XXooooX.   O  ",
" .XXXXXXX.   O  ",
" .XXXXXXX. OOOOO",
" .........  OOO ",
"             O  ",
"                "};
