/* XPM */
static char * bug_xpm[] = {
"16 16 3 1",
" 	c white",
".	c brown",
"X	c black",
"                ",
"      ...       ",
"     .....      ",
"      ...       ",
"  XX  ...  XX   ",
" X XX.....XX X  ",
"    ..XX...     ",
"    ....X..     ",
"  XX.......XX   ",
" X  ..XX...  X  ",
"    .......     ",
"     ...X.      ",
"     .....      ",
"   XXX...XXX    ",
"   X       X    ",
"                "};
