/* XPM */
static char * builtin_xpm[] = {
"16 12 5 1",
" 	s None	c None",
".	c #CF3C00000000",
"X	c black",
"o	c white",
"O	c #30C2CF3C0000",
"                ",
"    ..          ",
"   ....         ",
"  ......        ",
"  XooooX        ",
"  XooXoX        ",
"  XooooX  O     ",
"  XoXooX OOO    ",
"  XoXooX  .     ",
"OOOOOOOOOOOO    ",
"                ",
"                "};
