/* XPM */
static char * classext_xpm[] = {
"16 16 3 1",
" 	c white",
".	c black",
"X	c grey50",
"                ",
"                ",
"                ",
"                ",
"     ........   ",
"    .XXXXXX..   ",
"   .XXXXXX.X.   ",
"  ........XX.   ",
"  .XXXXXX.XX.   ",
"  .XXXXXX.XX.   ",
"  .XXXXXX.XX.   ",
"  .XXXXXX.XX.   ",
"  .XXXXXX.X.    ",
"  .XXXXXX..     ",
"  ........      ",
"                "};
