/* XPM */
static char * classext_xpm[] = {
"16 16 4 1",
" 	c white",
".	c red",
"X	c black",
"o	c grey50",
"       ..       ",
"       ..       ",
"     ......     ",
"     ......     ",
"     XX..XXXX   ",
"    Xoo..ooXX   ",
"   XooooooXoX   ",
"  XXXXXXXXooX   ",
"  XooooooXooX   ",
"  XooooooXooX   ",
"  XooooooXooX   ",
"  XooooooXooX   ",
"  XooooooXoX    ",
"  XooooooXX     ",
"  XXXXXXXX      ",
"                "};
