/* XPM */
static char * creep_xmp[] = {
"16 16 2 1",
" 	s None	c None",
".	c black",
"                ",
"                ",
"                ",
"         .      ",
"         ..     ",
"         ...    ",
" ............   ",
" .............  ",
" .............  ",
" ............   ",
"         ...    ",
"         ..     ",
"         .      ",
"                ",
"                ",
"                "};
