/* XPM */
static char * det_xpm[] = {
"16 12 2 1",
" 	s None	c None",
".	c red",
"                ",
"     ..         ",
"    ....        ",
"   ......       ",
"     ..         ",
"     ..         ",
"     ..         ",
"     ..         ",
"     ..         ",
"     ..         ",
"     ..         ",
"     ..         "};
