/* XPM */
static char * details_xpm[] = {
"16 16 4 1",
" 	s None	c None",
".	c black",
"X	c white",
"o	c blue",
"                ",
"     ...        ",
"   ..XXX..      ",
"  .XXXXXXX.     ",
"  .XoooXXX.     ",
" .XXXXXXXXX.    ",
" .XXXooooXX.    ",
" .XXXXXXXXX.    ",
"  .XoooXXX.     ",
"  .XXXXXXX.     ",
"   ..XXX...     ",
"     ... ...    ",
"          ...   ",
"           ...  ",
"            ... ",
"             .  "};
