/* XPM */
static char * down_xpm[] = {
"16 16 6 1",
" 	s None	c None",
".	c green",
"X	c black",
"o	c yellow",
"O	c blue",
"+	c red",
"                ",
"                ",
"   ...      XX  ",
"   ...      XX  ",
"   ...      XX  ",
"  ooooo     XX  ",
"  ooooo     XX  ",
"  ooooo     XX  ",
" OOOOOOO    XX  ",
" OOOOOOO    XX  ",
" OOOOOOO    XX  ",
"+++++++++ XXXXXX",
"+++++++++  XXXX ",
"+++++++++   XX  ",
"                ",
"                "};
