/* XPM */
static char * dyn_xpm[] = {
"16 12 5 1",
" 	s None	c None",
".	c tan2",
"X	c black",
"o	c gold",
"O	c firebrick",
"       .        ",
"       .        ",
"       .        ",
"       .        ",
"       .        ",
"      ...       ",
"XXX  .oo..  XXX ",
"XX  .oo..OO  XX ",
"X X .o...OO X X ",
"    ....OOO     ",
"     .OOOO      ",
"      OOO       "};
