/* XPM */
static char * edit_xpm[] = {
"16 16 5 1",
" 	c None",
".	c #B27700",
"X	c #FFAA00",
"o	c black",
"O	c white",
"           ....X",
"          ....XX",
"         ....XXX",
"        ....XXX.",
"       ....XXX..",
"      ....XXX..o",
"     ....XXX..o ",
"    .o..XXX..o  ",
"    oooXXX..o   ",
"    oOOoX..o    ",
"   ooOOOo.o     ",
"   oOOOOoo      ",
"   oOOooo       ",
"  ooooo         ",
"  oo            ",
" o              "};
