/* XPM */
static char * edit_xpm[] = {
"16 16 5 1",
" 	s None	c None",
".	c black",
"X	c white",
"o	c blue",
"O	c bisque",
"           .    ",
"          .X.   ",
"         .X.X.  ",
"         .X.X.  ",
"        .X.X.   ",
"       .X.X.    ",
"       .X.X.    ",
".......X.X..    ",
".XXXX.X.X.X.    ",
".oooO..X.XX.    ",
".XXXOO.X.XX.    ",
".oooOOO.ooo.    ",
".XXX.OOOXXX.    ",
".oooooooooX.    ",
".XXXXXXXXXX.    ",
".oooooooooo.    "};
