/* XPM */
static char * except_xpm[] = {
"16 14 4 1",
" 	c grey80",
".	c red",
"X	c black",
"o	c blue",
"       .        ",
"      ...       ",
"     .....      ",
" X     .    X   ",
" XX XXXXXXX XX  ",
"XXXXX     XXXXX ",
" XX X ooo X XX  ",
" X  X o   X X   ",
"    X oo  X     ",
"  X X o   X  X  ",
" XX X ooo X XX  ",
"XXXXX     XXXXX ",
" XX XXXXXXX XX  ",
"  X          X  "};
