/* XPM */
static char * exit_xpm[] = {
"16 14 4 1",
" 	c grey80",
".	c black",
"X	c green",
"o	c blue",
"                ",
"                ",
" .          X   ",
" .. ....... XX  ",
".....     .XXXX ",
" .. . ooo . XX  ",
" .  . o   . X   ",
"    . oo  .     ",
"  . . o   .  .  ",
" .. . ooo . ..  ",
".....     ..... ",
" .. ....... ..  ",
"  .          .  ",
"                "};
