/* XPM */
static char * eyes_xpm[] = {
"16 16 6 1",
" 	s None	c None",
".	c white",
"X	c black",
"o	c red",
"O	c gray85",
"+	c gray50",
"                ",
"                ",
"...X............",
"..XXX...........",
".XXXXX..........",
"..XXX...........",
"  oXoo   oooo   ",
" oO..OXXXXXXXXX ",
"oO....XXXXXXXXX ",
"o..X...o......o+",
"o.XXX..o......o+",
"oXXXXX.o.XX...o+",
"oOXXX.OoOXX..Oo+",
" oOX.Oo+oO..Oo++",
"  oooo++ oooo++ ",
"   ++++   ++++  "};
