/* XPM */
static char * fact_xpm[] = {
"16 16 3 1",
" 	c white",
".	c black",
"X	c blue",
"                ",
"                ",
"                ",
"                ",
"                ",
"            .   ",
"           ...  ",
" XXXXXXX  ..... ",
"           ...  ",
"            .   ",
"                ",
"                ",
"                ",
"                ",
"                ",
"                "};
