/* XPM */
static char * fail_xpm[] = {
"16 14 4 1",
" 	c grey80",
".	c black",
"X	c blue",
"o	c red",
"                ",
"                ",
" .          .   ",
" .. ....... ..  ",
".....     ..... ",
" .. . XXX . ..  ",
" .  . X   . .   ",
"    . XX  .     ",
"  o . X   .  .  ",
" oo . X   . ..  ",
"oooo.     ..... ",
" oo ....... ..  ",
"  o          .  ",
"                "};
