/* XPM */
static char * retry_xpm[] = {
"16 16 6 1",
" 	c green",
".	c black",
"X	c grey80",
"o	c #9A6930C20000",
"O	c white",
"+	c red",
"          .XX.  ",
"  oO     .XXX.  ",
"  oOOO   .XX.   ",
"  oO++O .XXX.   ",
"  oOOOOO.XX.    ",
"  o OO++OOX.    ",
"  o   OOOOOo    ",
"  o   .O++Oo    ",
"  o  .XXOOOo    ",
"  o  .XXX.Oo    ",
"    .XXXX. o    ",
"   .XX.XX. o    ",
"   .X..X.  o    ",
"  .XX.XX.  o    ",
"  .XXXX.        ",
" .XXXXX.        "};
