/* XPM */
static char * x_xpm[] = {
/* columns rows colors chars-per-pixel */
"16 16 3 1",
" 	c None",
".	c black",
"X	c gray100",
/* pixels */
"                ",
"  .....         ",
"  ...XX....     ",
"  ...XXX...XX   ",
"  .XX...X..XX.  ",
"  ..XX...XX...X ",
"   .XX...XX...X ",
"   ....XX...... ",
"   ....XX...XX. ",
"   ...   ...XXX ",
"   .        ... ",
"    .           ",
"    .           ",
"    .           ",
"    .           ",
"                "};
