/* XPM */
static char * get_xpm[] = {
"16 16 3 1",
" 	c white",
".	c black",
"X	c blue",
"                ",
"                ",
"                ",
"                ",
"      ......... ",
"   X  ..     .. ",
"  XX  . .   . . ",
" XXXXXXX . .  . ",
" XXXXXXX  .   . ",
"  XX  .       . ",
"   X  .       . ",
"      ......... ",
"                ",
"                ",
"                ",
"                "};
