/* XPM */
static char * grammar_xpm[] = {
"16 16 2 1",
" 	c white",
".	c black",
"                ",
"                ",
"                ",
"         ..     ",
"          ..    ",
"           ..   ",
"            ..  ",
"  ............. ",
"  ............. ",
"            ..  ",
"           ..   ",
"          ..    ",
"         ..     ",
"                ",
"                ",
"                "};
