/* XPM */
static char * import_xpm[] = {
"16 16 5 1",
" 	s None	c None",
".	c black",
"X	c dark green",
"o	c white",
"O	c grey50",
"                ",
"                ",
"                ",
"     .......... ",
"   ...XXoooXXX. ",
"  .oo.XXXoXXXX. ",
"  ....XXXoXXXX. ",
"  .XX.XXXoXXXX. ",
"  .XX..Xooo..X. ",
"  ............. ",
"    O..O  O..O  ",
"     OO    OO   ",
"                ",
"                ",
"                ",
"                "};
