/* XPM */
static char * ivar_xpm[] = {
"16 16 4 1",
" 	c white",
".	c black",
"X	c gold",
"o	c grey50",
"                ",
"                ",
"      .         ",
"    ..X..       ",
"   .XXXXX.      ",
"   ...X...      ",
"   .oo.oo.      ",
"   .ooooo.      ",
"   .ooooo.      ",
"   .ooooo.      ",
"   .ooooo.      ",
"   .ooooo.      ",
"   .ooooo.      ",
"    ..o..       ",
"      .         ",
"                "};
