/* XPM */
static char * leap_xpm[] = {
"16 16 5 1",
" 	s None	c None",
".	c black",
"X	c white",
"o	c bisque",
"O	c #0000CF3CFFFF",
"              ..",
"              ..",
"             ...",
"             ...",
"           .....",
"           .Xooo",
"      .    ....o",
"      ..   .Xooo",
".........   oooo",
".........  ooooo",
"      ..     .oo",
"      .     .Ooo",
"            .OOO",
"            OOOO",
"           OOOOO",
"           OOOOO"};
