/* XPM */
static char * loading_xpm[] = {
"16 16 6 1",
" 	s None	c None",
".	c black",
"X	c green",
"o	c blue",
"O	c white",
"+	c gray50",
"                ",
"  .......       ",
"  .XXXXX..      ",
"  .XoooX.O.     ",
"  .XXXXX....    ",
"  .XooooX++.+   ",
"  .XXXXXXXX.+   ",
"  .OooooOoO.+   ",
"  .OOOOOOOO.+   ",
"  .OOOoooOO.+   ",
"  .OOOOOOOO.+   ",
"  .OOOooooO.+   ",
"  .OOOOOOOO.+   ",
"  ..........+   ",
"   ++++++++++   ",
"                "};
