/* XPM */
static char * locate_xpm[] = {
"16 16 3 1",
" 	c lime green",
".	c red",
"X	c white",
"                ",
"      ..        ",
"      XX....... ",
".......X.XXXXX. ",
".XXXXX......... ",
".........       ",
"      X.X.      ",
"      X.XX.     ",
"      XX.XX.    ",
"      XX .X.    ",
"      XX  ..    ",
"      XX   .    ",
"      XX        ",
"      XX        ",
"      XX        ",
"                "};
