/* XPM */
static char * mini_globe_xpm[] = {
/* width height ncolors chars_per_pixel */
"16 16 12 1",
/* colors */
" 	s None	c None",
".	c #808000",
"X	c #00FFFF",
"o	c #FF00FF",
"O	c black",
"+	c #FFFF00",
"@	c #808080",
"#	c #C0C0C0",
"$	c #00FF00",
"%	c #008080",
"&	c #008000",
"*	c #800080",
/* pixels */
"           .    ",
"     XXoXXO+.   ",
"    X@XXXo#O+   ",
"   $@XX@X$o%+.  ",
"   $XX@Xo&X%+.  ",
"   oXoXX&o&*+O  ",
"   XXXoXo&%%+O  ",
"   Xo&XoX&*@+.  ",
"   O#oXX%*%+O   ",
"  .+O@%*%%+O    ",
"   .++++++O     ",
"     .+OO.      ",
"      O.O       ",
"     ++OO..O    ",
"    +...OO..    ",
"   O....OOOO    "};
