/* XPM */
static char * mini_run_xpm[] = {
"16 12 4 1",
" 	s None	c None",
".	c black",
"X	c tan2",
"o	c red",
"         ..     ",
"        XXX     ",
"         X      ",
"     XXooX      ",
"    .  oooX  .  ",
"       ooo X.   ",
"   .  ooo       ",
"  ..XXXoo       ",
"    XXX XX      ",
"        XX      ",
"        XX      ",
"         ..     "};
