/* XPM */
static char * module_xpm[] = {
"16 16 5 1",
" 	s None	c None",
".	c black",
"X	c slateblue3",
"o	c white",
"O	c grey50",
"                ",
"                ",
"                ",
" ..........     ",
" .XXXXXXXX...   ",
" .XXXXXXXX.oo.  ",
" .XXXXXXXX....  ",
" .XXXXXXXX.XX.  ",
" .X..XXXX..XX.  ",
" .............  ",
"  O..O  O..O    ",
"   OO    OO     ",
"                ",
"                ",
"                ",
"                "};
