/* XPM */
static char * ndet_xpm[] = {
"16 12 2 1",
" 	s None	c None",
".	c red",
"  .      .      ",
" ..      ..     ",
".....  .....    ",
"............    ",
" .. .... ..     ",
"  .  ..  .      ",
"     ..         ",
"     ..         ",
"     ..         ",
"     ..         ",
"     ..         ",
"     ..         "};
