/* XPM */
static char * nospy_xpm[] = {
"16 16 4 1",
" 	s None	c None",
".	c black",
"X	c bisque",
"o	c #0000CCCCFFFF",
" .   .....    . ",
"... .......  ...",
" .......... ... ",
"  ............  ",
"  ...........   ",
"   X...XX...    ",
"   .........    ",
"   X.......X    ",
"   XX.....XX    ",
"    X......     ",
"    ........    ",
"   ...XXX....   ",
"  ...o...oo...  ",
" ...o.o.o.oo... ",
"...oooooooooo...",
" .ooooo.oooooo. "};
