/* XPM */
static char * nostopspy_xpm[] = {
"16 16 6 1",
" 	s None	c None",
".	c black",
"X	c red",
"o	c white",
"O	c bisque",
"+	c #0000CCCCFFFF",
" .            . ",
"...  XXXXX   ...",
" ...XXXXXXX ... ",
"  ...XXXXXX...  ",
"  X...XXXX...   ",
" XXX...XX..     ",
" Xooo.......    ",
" XoXXo.....O    ",
" XXoXo....OO    ",
" XooX......     ",
" XXX........    ",
"  X...OOO....   ",
"  ...+...++...  ",
" ...+.+.+.++... ",
"...++++++++++...",
" .+++++.++++++. "};
