/* XPM */
static char * nostop_xpm[] = {
"16 16 4 1",
" 	s None	c None",
".	c black",
"X	c red",
"o	c white",
" .            . ",
"...  XXXXX   ...",
" ...XXXXXXX ... ",
"  ...XXXXXX...  ",
"  X...XXXX...   ",
" XXX...XX...XX  ",
" Xooo......oXX  ",
" XoXXo....oXoX  ",
" XXoXo....ooXX  ",
" XooX......XXX  ",
" XXX...XX...XX  ",
"  X...XXXX...   ",
"  ...XXXXXX...  ",
" ...XXXXXXX ... ",
"...  XXXXX   ...",
" .            . "};
