/* XPM */
static char * openmodule_xpm[] = {
"16 16 5 1",
" 	s None	c None",
".	c black",
"X	c navajo white",
"o	c brown",
"O	c grey50",
"                ",
"                ",
"                ",
"    ......      ",
"    .XXXX.      ",
"    .XoXX.      ",
"    .XoXX.      ",
"    .ooXo.      ",
"    .ooXo.      ",
"    ......      ",
"    ..  ..      ",
"    OO  OO      ",
"                ",
"                ",
"                ",
"                "};
