/* XPM */
static char * plfile_xpm[] = {
"16 16 5 1",
" 	s None	c None",
".	c black",
"X	c white",
"o	c blue",
"O	c gray50",
"                ",
"  .......       ",
"  .XXXXX..      ",
"  .XoooX.X.     ",
"  .XXXXX....    ",
"  .XooooXOO.O   ",
"  .XXXXXXXX.O   ",
"  .XooooXoX.O   ",
"  .XXXXXXXX.O   ",
"  .XXXoooXX.O   ",
"  .XXXXXXXX.O   ",
"  .XXXooooX.O   ",
"  .XXXXXXXX.O   ",
"  ..........O   ",
"   OOOOOOOOOO   ",
"                "};
