/* XPM */
static char * redo_xpm[] = {
"16 14 4 1",
" 	c grey80",
".	c black",
"X	c blue",
"o	c yellow",
"                ",
"                ",
" .          .   ",
" .. ....... ..  ",
".....     ..... ",
" .. . XXX . ..  ",
" .  . X X . .   ",
"    . XX  .     ",
"  . . X X .  o  ",
" .. . X X . oo  ",
".....     .oooo ",
" .. ....... oo  ",
"  .          o  ",
"                "};
