/* XPM */
static char * stop_xpm[] = {
"16 16 3 1",
" 	s None	c None",
".	c red",
"X	c white",
"                ",
"     .....      ",
"    .......     ",
"   .........    ",
"  ...........   ",
" .............  ",
" .XXXXX.X.XX..  ",
" .X..X.X.XX.X.  ",
" ..X.X.X.XXX..  ",
" .XX.X..X.X...  ",
" .............  ",
"  ...........   ",
"   .........    ",
"    .......     ",
"     .....      ",
"                "};
