/* XPM */
static char * undefined_xpm[] = {
"16 12 2 1",
" 	c white",
".	c red",
"   ...          ",
"  .....         ",
" ..   ..        ",
" ..   ..        ",
" ..   ..        ",
"     ..         ",
"    ..          ",
"   ..           ",
"   ..           ",
"                ",
"   ..           ",
"   ..           "};
