/* XPM */
static char * undefpred_xpm[] = {
"16 16 5 1",
" 	s None	c None",
".	c #FFFF00000000",
"X	c black",
"o	c white",
"O	c #7F7F7F7F7F7F",
"                ",
"     ......     ",
"   X.o......    ",
"  XXX..XX...X   ",
" XXXXXX  ...X   ",
"  XXXX   ...X   ",
"   X    ...X    ",
"      XXXXXXXX  ",
"      XXXXXXXX  ",
"   X  ....X     ",
"  XXX O.XO      ",
" XXXXXOo..      ",
"  XXX ....O     ",
"   X   ..XO     ",
"        XO      ",
"                "};
