/* XPM */
static char * unrefpred_xpm[] = {
"16 16 6 1",
" 	s None	c None",
".	c black",
"X	c red",
"o	c gray85",
"O	c white",
"+	c gray50",
"                ",
"                ",
"   .            ",
"  ...           ",
" .....          ",
"  ...           ",
"  X.XX   XXXX   ",
" XoOOo......... ",
"XoOOOO......... ",
"XOO.OOOXOOOOOOX+",
"XO...OOXOOOOOOX+",
"X.....OXO..OOOX+",
"Xo...OoXo..OOoX+",
" Xo.OoX+XoOOoX++",
"  XXXX++ XXXX++ ",
"   ++++   ++++  "};
