/* XPM */
static char * up_xpm[] = {
"16 16 6 1",
" 	s None	c None",
".	c green",
"X	c black",
"o	c yellow",
"O	c blue",
"+	c red",
"                ",
"                ",
"    ...     XX  ",
"    ...    XXXX ",
"    ...   XXXXXX",
"   ooooo    XX  ",
"   ooooo    XX  ",
"   ooooo    XX  ",
"  OOOOOOO   XX  ",
"  OOOOOOO   XX  ",
"  OOOOOOO   XX  ",
" +++++++++  XX  ",
" +++++++++  XX  ",
" +++++++++  XX  ",
"                ",
"                "};
