/* XPM */
static char * user_xpm[] = {
"16 12 5 1",
" 	s None	c None",
".	c #9A6900006595",
"X	c #FFFFCF3C9A69",
"o	c black",
"O	c red",
"                ",
"  . . .         ",
" .......        ",
"..XXXXX..       ",
".XXXXXXX.       ",
".XoXXXoX.       ",
"XXXX.XXXX       ",
"XXXX..XXX       ",
"XXOXXXOXX       ",
" XXOOOXX        ",
"  XXXXX         ",
"                "};
