/* XPM */
static char * warnpred_xpm[] = {
"16 16 3 1",
" 	c white",
".	c red",
"X	c black",
"                ",
"             .. ",
"   X        ... ",
"  XXX      ...  ",
" XXXXX    ...   ",
"  XXX    ...    ",
"   X    ...     ",
"      XXXXXXXX  ",
"      XXXXXXXX  ",
"   X ...        ",
"  XXX..         ",
" XXXXX          ",
"  XXX           ",
" ..X            ",
" ..             ",
"                "};
