/* XPM */
static char * adjustwin_xpm[] = {
"5 5 2 1",
" 	c None",
".	c black",
" ... ",
".....",
"     ",
".....",
" ... "};
