/* XPM */
static char * down_xpm[] = {
"7 5 2 1",
" 	c black",
".	c None",
"       ",
"       ",
".     .",
"..   ..",
"... ..."};
