/* XPM */
static char * left_xpm[] = {
"5 7 2 1",
" 	c None",
".	c black",
"   ..",
"  ...",
" ....",
".....",
" ....",
"  ...",
"   .."};
