#define ms_mark_width 10
#define ms_mark_height 10
static unsigned char ms_mark_bits[] = {
   0x00, 0x00, 0x00, 0x00, 0x80, 0x01, 0xc0, 0x01, 0xe6, 0x00, 0x7e, 0x00,
   0x3c, 0x00, 0x18, 0x00, 0x00, 0x00, 0x00, 0x00};
