/* XPM */
static char * pce16_xpm[] = {
"16 16 6 1",
" 	s None	c None",
".	c red",
"X	c black",
"o	c white",
"O	c blue",
"+	c green",
"        ........",
" XXXXXX ..X..X..",
" X XX X ...XX...",
" X    X ...XX...",
" X.   X ..X..X..",
" XX.XXX .o....o.",
"   ..   .oX..Xo.",
"OO  ..  .o.XX.o.",
"  O..   .o.XX.o.",
" OO .   .oX..Xo.",
"  O  .o ..ooooo.",
"OO   +o ..X..Xoo",
"    +o+o...XX...",
"     +o ...XX...",
"     o  ..X..X..",
"        ........"};
