/* XPM */
static char * right_xpm[] = {
"5 7 2 1",
" 	c black",
".	c None",
"  ...",
"   ..",
"    .",
"     ",
"    .",
"   ..",
"  ..."};
