/* XPM */
static char * up_xpm[] = {
"7 5 2 1",
" 	c None",
".	c black",
"   .   ",
"  ...  ",
" ..... ",
".......",
"......."};
