/* XPM */
static char * warning_xpm[] = {
"16 16 6 1",
" 	c None",
".	c black",
"X	c white",
"o	c #400000",
"O	c red",
"+	c #d6cdbb",
"                ",
"      ...X      ",
"     .ooOoX     ",
"     .oOOoX     ",
"     .oOOoX     ",
"      .OoX+     ",
"      .ooX+     ",
"       .X+      ",
"       .X+      ",
"       X+       ",
"                ",
"       .X       ",
"      .OoX      ",
"       oX+      ",
"       X+       ",
"                "};
