/* XPM */
static char * back_xpm[] = {
"16 16 10 1",
" 	s None	c None",
".	c green",
"X	c #861782078617",
"o	c white",
"O	c #000082078617",
"+	c #C71BC30BC71B",
"@	c #000082070000",
"#	c #000034D338E3",
"$	c #208120812081",
"%	c #41039A69A699",
"        .X      ",
"       .oO      ",
"      .o+@X     ",
"     .o+.@#     ",
"    .o+.+@#X    ",
"   .o+.+.@$O    ",
"  .o+.+.+@$$X   ",
" .o+.+.+.+.+#   ",
" ...+.+.+.+.$#  ",
"  @%@%@@@@@@#O  ",
"   @%@%@@@@@#X  ",
"    @%@@@$$$$   ",
"  XXX@%@@###OXXX",
"   XXX#%@##XXXXX",
"     XX#%##XXXX ",
"      XX##XXXX  "};
