/* XPM */
static char * back_xpm[] = {
"16 16 10 1",
" 	c white",
".	s None	c None",
"X	c green",
"o	c #861782078617",
"O	c #000082078617",
"+	c #C71BC30BC71B",
"@	c #000082070000",
"#	c #000034D338E3",
"$	c #208120812081",
"%	c #41039A69A699",
" .......Xo......",
" ......X O......",
" .....X +@o.....",
" ....X +X@#.....",
" ...X +X+@#o....",
" ..X +X+X@$O....",
" .X +X+X+@$$o...",
" X +X+X+X+X+#...",
" XXX+X+X+X+X$#..",
" .@%@%@@@@@@#O..",
" ..@%@%@@@@@#o..",
" ...@%@@@$$$$...",
" .ooo@%@@###Oooo",
" ..ooo#%@##ooooo",
" ....oo#%##oooo.",
" .....oo##oooo.."};
