/* XPM */
static char * binocular_xpm[] = {
"16 16 4 1",
" 	c None",
".	c black",
"X	c #861782078617",
"o	c white",
"                ",
"                ",
"                ",
"                ",
"     ..   ..    ",
"     ..   ..    ",
"    ...X X...   ",
"   .o.....o...  ",
"   .o...X.o...  ",
"   ...........  ",
"   .o..   .o..  ",
"   .o..   .o..  ",
"   ....   ....  ",
"                ",
"                ",
"                "};
