/* XPM */
static char * bookmarks_xpm[] = {
/* columns rows colors chars-per-pixel */
"16 16 19 1",
" 	c None",
".	c #2a2a2a",
"X	c gray73",
"o	c #b4b4b4",
"O	c gray28",
"+	c #555555",
"@	c #373737",
"#	c gray64",
"$	c black",
"%	c gray68",
"&	c gray77",
"*	c #848484",
"=	c gray61",
"-	c gray42",
";	c gray49",
":	c gray55",
">	c #747474",
",	c #5f5f5f",
"<	c gray39",
/* pixels */
"     .          ",
"     ..         ",
"     .X.        ",
"     .Xo.       ",
" OOO+@o#o.      ",
"  $%&Xo##o.     ",
"   $*###X=%.    ",
"    $O-;oo%:$   ",
" ++++$O->-,;:$  ",
"   $,#$O<>;><$  ",
"    $,#$O<><$   ",
"     $,#$O<$$   ",
"      $,#$$#,$  ",
"       $,##,$   ",
"        $,,$    ",
"         $$     "};
