/* XPM */
static char * x_xpm[] = {
"16 16 6 1",
" 	c white",
".	c black",
"X	c #7F7F7F7F7F7F",
"o	c sky blue",
"O	c #CFCF00000000",
"+	c #3030CFCF0000",
"                ",
"     .......... ",
"    .XXXXXXXX.. ",
"   .XXXXXXXX.X. ",
"  .XXXXXXXX.XX. ",
" ..........XXX. ",
" .oooOOooo.XXX. ",
" .ooOOOOoo.XXX. ",
" .oOOOOOOo.XXX. ",
" .o.    .o.XXX. ",
" .o.  . .o.XXX. ",
" .o. .  .o.XX.  ",
" .o. .  .o.X.   ",
" .++++++++..    ",
" ..........     ",
"                "};
