/* XPM */
static char * builtin_classflash_xpm[] = {
"16 16 8 1",
" 	c white",
".	c yellow",
"X	c black",
"o	c orange",
"O	c #7F7F7F7F7F7F",
"+	c sky blue",
"@	c #CFCF00000000",
"#	c #3030CFCF0000",
"    .      .    ",
"     .XooX.XXXX ",
"    XOooooOOOXX ",
"   X..oooo..XOX ",
"  XOOOOOOOOXOOX ",
" XXXXXXXXXXOOOX ",
" X+++@@+++XOOOX ",
" X++@@@@++XOOOX ",
" X+@@@@@@+XOOOX ",
" X+X    X+XOOOX ",
" X+X  X X+XOOOX ",
" X+X X  X+XOOX  ",
" X+X X  X+XOX   ",
" X########XX    ",
" XXXXXXXXXX     ",
"                "};
