/* XPM */
static char * closedir_xpm[] = {
/* width height ncolors chars_per_pixel */
"16 14 7 1",
/* colors */
" 	s None	c None",
".	c #808080",
"X	c white",
"o	c #FFFF00",
"O	c #C0C0C0",
"+	c black",
"@	c #808000",
/* pixels */
"                ",
"   ....         ",
"  .XoOo.        ",
" .OOOOOO.....   ",
" .XXXXXXXXXXX+  ",
" .XoOoOoOoOoO@+ ",
" .XOoOoOoOoOo@+ ",
" .XoOoOoOoOoO@+ ",
" .XOoOoOoOoOo@+ ",
" .XoOoOoOoOoO@+ ",
" .XOoOoOoOoOo@+ ",
" .XoOoOoOoOoO@+ ",
" ............@+ ",
"  ++++++++++++  "};
