/* XPM */
static char * cpalette_xpm[] = {
"16 16 7 1",
" 	s None	c None",
".	c gray50",
"X	c red",
"o	c yellow",
"O	c blue",
"+	c black",
"@	c white",
"                ",
"                ",
"..............  ",
".XXXXooooOOOO.+ ",
".XXXXooooOOOO.+ ",
".XXXXooooOOOO.+ ",
".XXXXooooOOOO.+ ",
".@@@@....++++.+ ",
".@@@@....++++.+ ",
".@@@@....++++.+ ",
".@@@@....++++.+ ",
"..............+ ",
" ++++++++++++++ ",
"                ",
"                ",
"                "};
