/* XPM */
static char * cpalette2_xpm[] = {
"16 16 10 1",
" 	s None	c None",
".	c black",
"X	c #fffbf0",
"o	c blue1",
"O	c #008080",
"+	c white",
"@	c #a0a0a4",
"#	c #808080",
"$	c yellow1",
"%	c red1",
"     .......    ",
"   ..XXXXXXX.   ",
"  .XXXooXXXXX.  ",
" .XXXooooXXXX.  ",
" .XOO+ooXXXX.   ",
".XOOOXX@##X.    ",
".XXOOX@###X.    ",
".XXXXX@##XXX..  ",
".XX$$XXXXX%XXX. ",
".X$$$$XXX%%%XX. ",
" .X$$XX%XX%XX.  ",
" .XXXX%%%XXX.   ",
"  .XXXX%XXX.    ",
"   ..XXXX..     ",
"     ....       ",
"                "};
