/* XPM */
static char * cut_xpm[] = {
"16 16 3 1",
" 	s None	c None",
".	c black",
"X	c #000000008080",
"                ",
"     .   .      ",
"     .   .      ",
"     .   .      ",
"     .. ..      ",
"      . .       ",
"      ...       ",
"       .        ",
"      ...       ",
"      . XXX     ",
"    XXX X  X    ",
"   X  X X  X    ",
"   X  X X  X    ",
"   X  X  XX     ",
"    XX          ",
"                "};
