/* XPM */
static char *delete[] = {
/* columns rows colors chars-per-pixel */
"16 16 256 2",
"   c black",
".  c #840000",
"X  c #848484",
"o  c None",
"O  c red",
"+  c gray100",
"@  c gray100",
"#  c gray100",
"$  c gray100",
"%  c gray100",
"&  c gray100",
"*  c gray100",
"=  c gray100",
"-  c gray100",
";  c gray100",
":  c gray100",
">  c gray100",
",  c gray100",
"<  c gray100",
"1  c gray100",
"2  c gray100",
"3  c gray100",
"4  c gray100",
"5  c gray100",
"6  c gray100",
"7  c gray100",
"8  c gray100",
"9  c gray100",
"0  c gray100",
"q  c gray100",
"w  c gray100",
"e  c gray100",
"r  c gray100",
"t  c gray100",
"y  c gray100",
"u  c gray100",
"i  c gray100",
"p  c gray100",
"a  c gray100",
"s  c gray100",
"d  c gray100",
"f  c gray100",
"g  c gray100",
"h  c gray100",
"j  c gray100",
"k  c gray100",
"l  c gray100",
"z  c gray100",
"x  c gray100",
"c  c gray100",
"v  c gray100",
"b  c gray100",
"n  c gray100",
"m  c gray100",
"M  c gray100",
"N  c gray100",
"B  c gray100",
"V  c gray100",
"C  c gray100",
"Z  c gray100",
"A  c gray100",
"S  c gray100",
"D  c gray100",
"F  c gray100",
"G  c gray100",
"H  c gray100",
"J  c gray100",
"K  c gray100",
"L  c gray100",
"P  c gray100",
"I  c gray100",
"U  c gray100",
"Y  c gray100",
"T  c gray100",
"R  c gray100",
"E  c gray100",
"W  c gray100",
"Q  c gray100",
"!  c gray100",
"~  c gray100",
"^  c gray100",
"/  c gray100",
"(  c gray100",
")  c gray100",
"_  c gray100",
"`  c gray100",
"'  c gray100",
"]  c gray100",
"[  c gray100",
"{  c gray100",
"}  c gray100",
"|  c gray100",
" . c gray100",
".. c gray100",
"X. c gray100",
"o. c gray100",
"O. c gray100",
"+. c gray100",
"@. c gray100",
"#. c gray100",
"$. c gray100",
"%. c gray100",
"&. c gray100",
"*. c gray100",
"=. c gray100",
"-. c gray100",
";. c gray100",
":. c gray100",
">. c gray100",
",. c gray100",
"<. c gray100",
"1. c gray100",
"2. c gray100",
"3. c gray100",
"4. c gray100",
"5. c gray100",
"6. c gray100",
"7. c gray100",
"8. c gray100",
"9. c gray100",
"0. c gray100",
"q. c gray100",
"w. c gray100",
"e. c gray100",
"r. c gray100",
"t. c gray100",
"y. c gray100",
"u. c gray100",
"i. c gray100",
"p. c gray100",
"a. c gray100",
"s. c gray100",
"d. c gray100",
"f. c gray100",
"g. c gray100",
"h. c gray100",
"j. c gray100",
"k. c gray100",
"l. c gray100",
"z. c gray100",
"x. c gray100",
"c. c gray100",
"v. c gray100",
"b. c gray100",
"n. c gray100",
"m. c gray100",
"M. c gray100",
"N. c gray100",
"B. c gray100",
"V. c gray100",
"C. c gray100",
"Z. c gray100",
"A. c gray100",
"S. c gray100",
"D. c gray100",
"F. c gray100",
"G. c gray100",
"H. c gray100",
"J. c gray100",
"K. c gray100",
"L. c gray100",
"P. c gray100",
"I. c gray100",
"U. c gray100",
"Y. c gray100",
"T. c gray100",
"R. c gray100",
"E. c gray100",
"W. c gray100",
"Q. c gray100",
"!. c gray100",
"~. c gray100",
"^. c gray100",
"/. c gray100",
"(. c gray100",
"). c gray100",
"_. c gray100",
"`. c gray100",
"'. c gray100",
"]. c gray100",
"[. c gray100",
"{. c gray100",
"}. c gray100",
"|. c gray100",
" X c gray100",
".X c gray100",
"XX c gray100",
"oX c gray100",
"OX c gray100",
"+X c gray100",
"@X c gray100",
"#X c gray100",
"$X c gray100",
"%X c gray100",
"&X c gray100",
"*X c gray100",
"=X c gray100",
"-X c gray100",
";X c gray100",
":X c gray100",
">X c gray100",
",X c gray100",
"<X c gray100",
"1X c gray100",
"2X c gray100",
"3X c gray100",
"4X c gray100",
"5X c gray100",
"6X c gray100",
"7X c gray100",
"8X c gray100",
"9X c gray100",
"0X c gray100",
"qX c gray100",
"wX c gray100",
"eX c gray100",
"rX c gray100",
"tX c gray100",
"yX c gray100",
"uX c gray100",
"iX c gray100",
"pX c gray100",
"aX c gray100",
"sX c gray100",
"dX c gray100",
"fX c gray100",
"gX c gray100",
"hX c gray100",
"jX c gray100",
"kX c gray100",
"lX c gray100",
"zX c gray100",
"xX c gray100",
"cX c gray100",
"vX c gray100",
"bX c gray100",
"nX c gray100",
"mX c gray100",
"MX c gray100",
"NX c gray100",
"BX c gray100",
"VX c gray100",
"CX c gray100",
"ZX c gray100",
"AX c gray100",
"SX c gray100",
"DX c gray100",
"FX c gray100",
"GX c gray100",
"HX c gray100",
"JX c gray100",
"KX c gray100",
"LX c gray100",
"PX c gray100",
"IX c gray100",
"UX c gray100",
/* pixels */
"o o o o o o o o o o o o o o o o ",
"o       o o o o o o o       o o ",
"  . O     o o o o o     O .   o ",
"o   . O     o o o     O .   X o ",
"o o   . O     o     O .   X o o ",
"o o o   . O       O .   X o o o ",
"o o o o   . O   O .   X o o o o ",
"o o o o o   . O .   X o o o o o ",
"o o o o     O . O     o o o o o ",
"o o o     O .   . O     o o o o ",
"o o     O .   X   . O     o o o ",
"o     O .   X o o   . O     o o ",
"o   O .   X o o o o   . O   X o ",
"o   .   X o o o o o o   .   X o ",
"o X   X o o o o o o o o   X o o ",
"o o o o o o o o o o o o o o o o "
};
