/* XPM */
static char * done_xpm[] = {
"16 16 4 1",
" 	c None",
".	c black",
"X	c #C71B9E799E79",
"o	c #861786178617",
"        ..      ",
"       .X.      ",
"      .Xo.      ",
"      .XX.      ",
"      .XX.      ",
"      .XX.      ",
"  ....XXX.      ",
" .XX.XXXXX      ",
".XXX.XXXXX.     ",
"....XXXXXXX.....",
".XXX.XoXXXoXXXX.",
"....XXXoooXXXoX.",
".XXX.XXXXXXXoXX.",
" .XXX.XoXXXXoXX.",
" .XXX.oXX.      ",
"  .......       "};
