/* XPM */
static char * down_xpm[] = {
"17 16 50 1",
" 	c None",
".	c #12416D",
"+	c #244263",
"@	c #173A5E",
"#	c #0C2A4B",
"$	c #9FC4DE",
"%	c #EEF1FB",
"&	c #D2E1EF",
"*	c #6399BC",
"=	c #06121F",
"-	c #DFEDFA",
";	c #5EB3D7",
">	c #8EC3E1",
",	c #2B83AC",
"'	c #05101C",
")	c #0D97CA",
"!	c #3FBFDA",
"~	c #2684AF",
"{	c #05101E",
"]	c #0D81BE",
"^	c #46C9E5",
"/	c #1E86B1",
"(	c #04111D",
"_	c #0C2E51",
":	c #BED9ED",
"<	c #0D82B8",
"[	c #1BA8D0",
"}	c #1184B9",
"|	c #0E4C73",
"1	c #103B5F",
"2	c #133858",
"3	c #0A223D",
"4	c #000000",
"5	c #32739D",
"6	c #DEECF7",
"7	c #A6D3EB",
"8	c #53AFD6",
"9	c #0E7CB5",
"0	c #14ADD8",
"a	c #47CCE8",
"b	c #1C91C1",
"c	c #105687",
"d	c #02040B",
"e	c #FFFFFF",
"f	c #0E88C1",
"g	c #0F8DC2",
"h	c #050C18",
"i	c #1492C7",
"j	c #040911",
"k	c #105A8D",
"                 ",
"                 ",
"     ...+@#      ",
"     .$%&*=      ",
"     .-;>,'      ",
"     .%)!~{      ",
"     +-]^/(      ",
" _..++:<[}|1234  ",
"  _56789]0abcd   ",
"   _5ef]gabch    ",
"    _5eiabcj     ",
"     _56bcj      ",
"      _kch       ",
"       _d        ",
"                 ",
"                 "};
