/* XPM */
static char * x_xpm[] = {
"16 16 7 1",
" 	s None	c None",
".	c black",
"X	c wheat",
"o	c tan",
"O	c dark slate grey",
"+	c tomato",
"@	c green",
"  .........     ",
"  .XXXXXXXXo    ",
"  .XXXXXX.Xoo   ",
"  .XXXXXX.Xooo  ",
"  .XXXXX..XoooO ",
"  ...XXX+.XXXXO ",
"  .X..X.+.XXXXO ",
"  .XX..++.XXXXO ",
"  .XXX++@@@XXXO ",
"  .XX.+@@@@@XXO ",
"  .XX+.@@@@@.XO ",
"  .X.+.@@@@@.XO ",
"  .X+++@@@@@XXO ",
"  .XXXXX@@@..XO ",
"  .XXXXXXXXX.XO ",
"  ............O "};
