/* XPM */
static char * drive_xpm[] = {
"16 14 6 1",
" 	s None	c None",
".	c #808080",
"X	c #c0c0c0",
"o	c white",
"O	c red1",
"+	c black",
"                ",
"                ",
"                ",
"   ............ ",
"  .XXXXXXXXXXX. ",
" .ooooooooooo.. ",
" .XXXXXXXXXOX.. ",
" .XXXX...XXXX.. ",
" .X...+++...X.. ",
" .XXXXoooXXXX.. ",
" .............+ ",
"  ++++++++++++  ",
"                ",
"                "};
