/* XPM */
static char * error_xpm[] = {
/* width height ncolors chars_per_pixel */
"16 16 4 1",
/* colors */
" 	c None",
".	c black",
"X	c #DE0000",
"o	c #FDFDFD",
/* pixels */
"                ",
"                ",
"     .....      ",
"    .XXXXX.     ",
"   .XXXXXXX.    ",
"  .XXoXXXoXX.   ",
" .XXoooXoooXX.  ",
" .XXXoooooXXX.  ",
" .XXXXoooXXXX.  ",
" .XXXoooooXXX.  ",
" .XXoooXoooXX.  ",
"  .XXoXXXoXX.   ",
"   .XXXXXXX.    ",
"    .XXXXX.     ",
"     .....      ",
"                "};
