/* XPM */
static char * exclamation_xpm[] = {
/* columns rows colors chars-per-pixel */
"16 16 4 1",
" 	c None",
".	c black",
"X	c yellow",
"o	c #a0a0a4",
/* pixels */
"                ",
"      ..        ",
"     .XX.o      ",
"     .XXX.o     ",
"    .XX.X.o     ",
"    .X...X.o    ",
"   .XX...X.o    ",
"   .XX...XX.o   ",
"  .XXXX.XXX.o   ",
"  .XXXXXXXXX.   ",
"  .XXXX.XXXX.o  ",
" .XXXX...XXXX.o ",
" .XXXXX.XXXXX.o ",
" .XXXXXXXXXXX.o ",
"  ...........oo ",
"                "};
