/* XPM */
static char * mini_eye_xpm[] = {
"16 16 4 1",
" 	s None	c None",
".	c black",
"X	c #820782078207",
"o	c #C30BC30BC30B",
"                ",
"                ",
"                ",
"                ",
"    ......X     ",
"  ....   ...X   ",
" .. . oXo . ..  ",
"..  . X.X .   ..",
".X  . oXo .  X  ",
"  XX .   . XX   ",
"    X ... X     ",
"                ",
"                ",
"                ",
"                ",
"                "};
