/* XPM */
static char * font_xpm[] = {
"16 16 3 1",
" 	s None	c None",
".	c blue",
"X	c black",
"                ",
"      ........  ",
"      ........  ",
"      ...       ",
"      ...       ",
"      .......   ",
"      .......   ",
"      ...       ",
"   XXXXX.       ",
"    XXXX.       ",
"   XX ...       ",
"   XXXX..       ",
"  XX            ",
"  XX            ",
" XXXX           ",
"                "};
