/* XPM */
static char * foot_xpm[] = {
/* width height ncolors chars_per_pixel */
"11 16 2 1",
/* colors */
" 	c None",
".	c black",
/* pixels */
"           ",
"     .     ",
"    ...    ",
"    ...    ",
"     .     ",
"  .  .  .  ",
" ......... ",
"  .  .  .  ",
"     .     ",
"    ...    ",
"     .     ",
"     .     ",
"     .     ",
"     .     ",
"     .     ",
"           "};
