/* XPM */
static char * forward_xpm[] = {
"16 16 10 1",
" 	s None	c None",
".	c #861782078617",
"X	c green",
"o	c #000082078617",
"O	c white",
"+	c #000082070000",
"@	c #C71BC30BC71B",
"#	c #000034D338E3",
"$	c #208120812081",
"%	c #41039A69A699",
"      .X        ",
"      oOX       ",
"     .+@OX      ",
"     #+X@OX     ",
"    .#+@X@OX    ",
"    o$+X@X@OX   ",
"   .$$+@X@X@OX  ",
"   #@X@X@X@X@OX ",
"  #$X@X@X@X@XXX ",
"  o#++++++%+%+  ",
"  .#+++++%+%+   ",
"   $$$$+++%+    ",
"...o###++%+...  ",
".....##+%#...   ",
" ....##%#..     ",
"  ....##..      "};
