/* XPM */
static char * forward_xpm[] = {
"16 16 10 1",
" 	s None	c None",
".	c #861782078617",
"X	c green",
"o	c white",
"O	c #000082078617",
"+	c #000082070000",
"@	c #C71BC30BC71B",
"#	c #000034D338E3",
"$	c #208120812081",
"%	c #41039A69A699",
"      .X       o",
"      OoX      o",
"     .+@oX     o",
"     #+X@oX    o",
"    .#+@X@oX   o",
"    O$+X@X@oX  o",
"   .$$+@X@X@oX o",
"   #@X@X@X@X@oXo",
"  #$X@X@X@X@XXXo",
"  O#++++++%+%+ o",
"  .#+++++%+%+  o",
"   $$$$+++%+   o",
"...O###++%+... o",
".....##+%#...  o",
" ....##%#..    o",
"  ....##..     o"};
