/* XPM */
static char * funcdoc_xpm[] = {
"16 14 5 1",
" 	s None	c None",
".	c black",
"X	c white",
"o	c blue",
"O	c gray50",
"   .......      ",
"   .XXXXX..     ",
"   .XXXXX.X.    ",
"   .XXooX....   ",
"   .XooooXOO.O  ",
"   .ooXXoXXX.O  ",
"   .ooXXXXXX.O  ",
"   .ooXXXXXX.O  ",
"   .ooXXXXXX.O  ",
"   .ooXXoXXX.O  ",
"   .XooooXXX.O  ",
"   .XXooXXXX.O  ",
"   ..........O  ",
"    OOOOOOOOOO  "};
