/* XPM */
static char * ghost_xpm[] = {
/* width height ncolors chars_per_pixel */
"16 16 86 1",
/* colors */
" 	c None",
".	c #555555",
"X	c white",
"o	c gray93",
"O	c #D8D8D8",
"+	c #F1F1F1",
"@	c gray84",
"#	c #FDFDFD",
"$	c gray74",
"%	c #7B7B7B",
"&	c #F8F8F8",
"*	c gray87",
"=	c gray91",
"-	c white smoke",
";	c #484848",
":	c gray1",
">	c gray88",
",	c #EAEAEA",
"<	c gray69",
"1	c #DFDFDF",
"2	c #E1E1E1",
"3	c #FEFEFE",
"4	c gray83",
"5	c #9D9D9D",
"6	c #F9F9F9",
"7	c #CACACA",
"8	c gray79",
"9	c #AFAFAF",
"0	c gray90",
"q	c gray98",
"w	c #EEEEEE",
"e	c gray81",
"r	c #9A9A9A",
"t	c gray63",
"y	c gray52",
"u	c #CECECE",
"i	c #B2B2B2",
"p	c gray64",
"a	c #808080",
"s	c gray29",
"d	c #767676",
"f	c #ACACAC",
"g	c gray60",
"h	c #8D8D8D",
"j	c #9B9B9B",
"k	c #A0A0A0",
"l	c gray67",
"z	c #646464",
"x	c gray28",
"c	c gray40",
"v	c #777777",
"b	c gray58",
"n	c #989898",
"m	c #9F9F9F",
"M	c #AAAAAA",
"N	c gray70",
"B	c #B7B7B7",
"V	c gray39",
"C	c #6F6F6F",
"Z	c gray51",
"A	c #898989",
"S	c gray59",
"D	c #B4B4B4",
"F	c gray72",
"G	c #C6C6C6",
"H	c gray78",
"J	c gray30",
"K	c #909090",
"L	c gray61",
"P	c #CBCBCB",
"I	c #D7D7D7",
"U	c #DADADA",
"Y	c dim gray",
"T	c #505050",
"R	c #6C6C6C",
"E	c gray53",
"W	c #D2D2D2",
"Q	c gainsboro",
"!	c gray85",
"~	c #747474",
"^	c gray34",
"/	c #5A5A5A",
"(	c #818181",
")	c #C8C8C8",
"_	c dark grey",
"`	c gray50",
/* pixels */
"      ....      ",
"     XXXXXo     ",
"    OXXXXX+@    ",
"   .@#$%$%&*.   ",
"   .=-;:;:&>.   ",
"   .+,<1<1,2.   ",
"   .+=XXX314.   ",
"   5o,6XX-78.   ",
"   90qw3Xerty   ",
"  .u1ipt$as.d   ",
"  fghjgklzxcv.  ",
".bntmMMNBV;CZA  ",
"  SD$FGHHcJCbrK ",
"  .LOP@IUYTRk99M",
"  EGeWQO!~^/(k. ",
" ..   .)_`..    "};
