/* XPM */
static char *magick[] = {
/* columns rows colors chars-per-pixel */
"16 16 57 1",
"  c gray0",
". c #080400",
"X c #100c08",
"o c #201008",
"O c #281008",
"+ c #281810",
"@ c #301810",
"# c #301818",
"$ c #282018",
"% c #382018",
"& c #402018",
"* c #482420",
"= c #503028",
"- c #613020",
"; c #694430",
": c #794430",
"> c #484848",
", c #615d59",
"< c #716961",
"1 c #797979",
"2 c #855038",
"3 c #956140",
"4 c #956950",
"5 c #ae6940",
"6 c #b66948",
"7 c #b67948",
"8 c #be7950",
"9 c #b68150",
"0 c #ce8959",
"q c #de9961",
"w c #e69959",
"e c #e69d69",
"r c #f6aa69",
"t c #f6ae79",
"y c #f6b271",
"u c #f6be79",
"i c #ffba71",
"p c #ffba79",
"a c #ffca79",
"s c #ffd279",
"d c #8d8585",
"f c #958d8d",
"g c #9d999d",
"h c #a5a59d",
"j c #bea595",
"k c #cebeb6",
"l c #f6ba85",
"z c #f6be8d",
"x c #f6c285",
"c c #ffca85",
"v c #ffd285",
"b c #ffd38d",
"n c #ffd69d",
"m c #ffda95",
"M c #ffdea5",
"N c #ffe6be",
"B c None",
/* pixels */
"B4dBBBBBBBBBBBBB",
"d6lzuBBBBBBBBBBB",
"B=:wpreBdBBBBBBB",
"BBh+5yvrxyBBBBBB",
"BBBBoqqinvvhBBBB",
"BBBBdwcNxsbzBBfB",
"BBBB4rmcuxcbjBB,",
"BBBB;:w0aMyblBkB",
"BBhlto&rbvvMr $B",
"BBqNt4X-8qvu3# =",
"BB:7;#XXowy2;0  ",
"BBBBBgO@o*=#994o",
"BBBBBBB .+o-799$",
"BBBBBB,$ +o%25@;",
"BBBB1BBB> #@@+<1",
"BBBBBBBBBBNf>B,B"
};
