/* XPM */
static char * hierarchy_xpm[] = {
"16 16 6 1",
" 	c None",
".	c blue",
"X	c black",
"o	c magenta",
"O	c #861782078617",
"+	c cyan",
"                ",
"                ",
".....X          ",
".....X     ooooX",
".....X     ooooX",
".....XOOOOOooooX",
".....X  O  ooooX",
"XXXXXX  O  XXXXX",
"        O       ",
"        O       ",
"        O  ++++X",
"        OOO++++X",
"           ++++X",
"           ++++X",
"           XXXXX",
"                "};
