/* XPM */
static char * new_xpm[] = {
"16 16 5 1",
" 	s None	c None",
".	c #FFFFFFFF0000",
"X	c #808080808080",
"o	c black",
"O	c white",
"                ",
" .  X.  Xooo    ",
" X. XO X.OOoo   ",
"  X.X.X.OOOoOo  ",
"  .X.OXXXXOoOOo ",
" XXXO..OOOOoooo ",
"   OXOOXooOOOOo ",
" X  X.OOOOOOOOo ",
"    XOoooooooOo ",
"    oOOOOOOOOOo ",
"    oOoooooooOo ",
"    oOOOOOOOOOo ",
"    oOoooooooOo ",
"    oOOOOOOOOOo ",
"    ooooooooooo ",
"                "};
