/* XPM */
static char * note_xpm[] = {
"16 16 30 1",
" 	c None",
".	c #A6A69E9EA6A6",
"X	c #3D3D3B3B3D3D",
"o	c #414138384141",
"O	c #6B6B69696B6B",
"+	c #696969697171",
"@	c cyan",
"#	c #202020202020",
"$	c #969692929696",
"%	c #000080808080",
"&	c #616161616161",
"*	c #BEBEB6B6BEBE",
"=	c #080859592828",
"-	c #868679798686",
";	c #797979797979",
":	c #C7C7BABAC7C7",
">	c #CFCFC7C7CFCF",
",	c #666666666666",
"<	c #AEAEA6A6AEAE",
"1	c #BEBEC3C3CFCF",
"2	c #AEAEB2B2CFCF",
"3	c #8E8E8A8A8E8E",
"4	c #28285D5D4949",
"5	c #28284D4D9696",
"6	c #B6B6AEAEB6B6",
"7	c #AEAE61616161",
"8	c #D7D7DFDFE7E7",
"9	c #8585DEDEE0E0",
"0	c #96969696AEAE",
"q	c #717175757171",
"                ",
"    .XoXXXoXO   ",
"    +@@@@@@@#   ",
"   $%@@@@@@%&   ",
"  *+@%===@@-;   ",
"  $%@@@@@@%:+   ",
" *&@@@@@@@;>,   ",
" $%@@@@@@%<1+   ",
" &@@@@@@@+22&   ",
" 3444454+611+   ",
"    7-822122,   ",
"    3;900000,   ",
"     OqOOOO,    ",
"                ",
"                ",
"                "};
