/* XPM */
static char * pce16_xpm[] = {
"16 16 6 1",
" 	s None	c None",
".	c red",
"X	c black",
"o	c white",
"O	c blue",
"+	c green",
"        ........",
" XXXXXX ..X..X..",
" XoXXoX ...XX...",
" XooooX ...XX...",
" X.oooX ..X..X..",
" XX.XXX .o....o.",
"   ..o  .oX..Xo.",
"OOo ..o .o.XX.o.",
"ooO..o  .o.XX.o.",
" OOo.o  .oX..Xo.",
"  Oo .o ..ooooo.",
"OOo  +o ..X..Xoo",
"oo  +o+o...XX...",
"     +o ...XX...",
"     o  ..X..X..",
"        ........"};
