/* XPM */
static char * pen_xpm[] = {
"16 14 9 1",
" 	s None	c None",
".	c red",
"X	c black",
"o	c gray50",
"O	c white",
"+	c yellow",
"@	c gray85",
"#	c blue",
"$	c burlywood2",
"           ...  ",
" XXXXXXXXXo.... ",
" XXXXXXXXXO.... ",
" XXXXXXXoOo+..X ",
" XXXXXXoO++o+XX ",
"      oO++@+o   ",
"     oOo+@+o    ",
" XXX#@++o+oXXXX ",
" XX$@##@+oXXXXX ",
" X$$$#o#XXXXXXX ",
"  $$$$#         ",
"  X$$$$         ",
" XXX$$XXXXXXXXX ",
"                "};
