/* XPM */
static char * preddoc_xpm[] = {
"16 14 4 1",
" 	s None	c None",
".	c black",
"X	c white",
"o	c gray50",
"   .......      ",
"   .XXXXX..     ",
"   .XXXXX.X.    ",
"   .XXXXX....   ",
"   .XooXXXoo.o  ",
"   .XooXXXXX.o  ",
"   .XXXooooX.o  ",
"   .XXXooooX.o  ",
"   .XooXXXXX.o  ",
"   .XooXXXXX.o  ",
"   .XXXXXXXX.o  ",
"   .XXXXXXXX.o  ",
"   ..........o  ",
"    oooooooooo  "};
