/* XPM */
static char * profiler_xpm[] = {
"16 16 113 2",
"  	c None",
". 	c #BEB7B8",
"+ 	c #645758",
"@ 	c #606060",
"# 	c #505050",
"$ 	c #7B7476",
"% 	c #307575",
"& 	c #C58A8A",
"* 	c #BF1213",
"= 	c #BC0B13",
"- 	c #D05B63",
"; 	c #7F7F7F",
"> 	c #2A2A2A",
", 	c #305252",
"' 	c #FDEBE4",
") 	c #E88F7A",
"! 	c #E22F0E",
"~ 	c #DE230A",
"{ 	c #E3715F",
"] 	c #FDE6DC",
"^ 	c #DFDFDF",
"/ 	c #555555",
"( 	c #AAAAAA",
"_ 	c #004646",
": 	c #F3EFE1",
"< 	c #EDB17E",
"[ 	c #E86513",
"} 	c #EC6111",
"| 	c #E4905E",
"1 	c #F8E3D2",
"2 	c #9F9F9F",
"3 	c #BFBFBF",
"4 	c #F6F6E0",
"5 	c #F2D17F",
"6 	c #ECA41B",
"7 	c #EFA217",
"8 	c #EEBE67",
"9 	c #FDF0D4",
"0 	c #7FA2A2",
"a 	c #000000",
"b 	c #FEFCDE",
"c 	c #F7E87F",
"d 	c #F8DF30",
"e 	c #F0DC26",
"f 	c #ECE36D",
"g 	c #FCF9D0",
"h 	c #408585",
"i 	c #808080",
"j 	c #FEFDE0",
"k 	c #EAF690",
"l 	c #DCF74A",
"m 	c #E1F84C",
"n 	c #DFEB81",
"o 	c #F0F6D2",
"p 	c #FFFFFF",
"q 	c #204242",
"r 	c #CEF6AD",
"s 	c #AAF671",
"t 	c #AEF673",
"u 	c #C5EDA1",
"v 	c #F0F8E7",
"w 	c #68F6AC",
"x 	c #68F7AD",
"y 	c #9AF0C8",
"z 	c #E6FAF6",
"A 	c #006262",
"B 	c #B9BFBF",
"C 	c #8F8F8F",
"D 	c #707070",
"E 	c #AFAFAF",
"F 	c #404040",
"G 	c #E7FFFE",
"H 	c #5FA9B3",
"I 	c #116677",
"J 	c #10687A",
"K 	c #346B76",
"L 	c #DAFAFE",
"M 	c #0040FF",
"N 	c #000055",
"O 	c #F0FCFD",
"P 	c #7DC5E9",
"Q 	c #1294E2",
"R 	c #1197E8",
"S 	c #60B2E4",
"T 	c #DFF6FE",
"U 	c #0055B2",
"V 	c #80FFFF",
"W 	c #F3FBFE",
"X 	c #82A8E9",
"Y 	c #1357E6",
"Z 	c #0D55EB",
"` 	c #5B88E0",
" .	c #E1EFFD",
"..	c #F6F8FF",
"+.	c #838CE2",
"@.	c #0F1ED7",
"#.	c #0819DB",
"$.	c #5D68DB",
"%.	c #E9EBFE",
"&.	c #F7F7FF",
"*.	c #8880D4",
"=.	c #1508B2",
"-.	c #1002B2",
";.	c #645DC7",
">.	c #EBEBFD",
",.	c #000080",
"'.	c #F2F9F9",
").	c #B1B1D3",
"!.	c #6B62AA",
"~.	c #6860A7",
"{.	c #9797C3",
"].	c #E6EFF7",
"^.	c #000046",
"    . + @ @ # $                 ",
"    % & * = - ; >               ",
"  , ' ) ! ~ { ] ^ /             ",
"( _ : < [ } | 1   2             ",
"3 _ 4 5 6 7 8 9   0 a           ",
"^ _ b c d e f g   h a           ",
"^ i j k l m n o   h a           ",
"3 p q r s t u v   _             ",
"  ( ; q w x y z A a             ",
"    B C ; @ @ a D E F           ",
"    G H I J K L ( 3 M N         ",
"    O P Q R S T   U V M N       ",
"    W X Y Z `  .    U V M N     ",
"    ..+.@.#.$.%.      U V M N   ",
"    &.*.=.-.;.>.        U V ,.  ",
"    '.).!.~.{.].          ^.    "};
