/* XPM */
static char * mini_stop_xpm[] = {
/* width height colors chars-per-color */
"16 16 5 1",
/* colors */
" 	s None	m none	c None",
".	c #808080",
"X	c red",
"o	s iconColor2	m white	c white",
"O	s iconColor1	m black	c black",
/* image */
"    ........    ",
"   .XXXXXXXX.   ",
"  .XXXXXXXXXX.  ",
" .XXXXXXXXXXXX. ",
".XXXXXXXXXXXXXX.",
".XXoooooXoXXooXO",
".XoXXXoXoXoXoXoO",
".XXoXXoXoXoXooXO",
".XXXoXoXoXoXoXXO",
".XooXXoXXoXXoXXO",
".XXXXXXXXXXXXXXO",
".XXXXXXXXXXXXXXO",
" .XXXXXXXXXXXXO.",
"  .XXXXXXXXXXO. ",
"   .XXXXXXXXO.  ",
"    OOOOOOOO.   "};
