/* XPM */
static char * trashcan_xpm[] = {
"16 16 5 1",
" 	s None	c None",
".	c black",
"X	c #808080",
"o	c #808000",
"O	c yellow1",
"      ..        ",
"    ..XX..      ",
"  .XX...XX..    ",
"  oXXXX....o    ",
"  OXXXXXX...    ",
"  ..oOXOO..o    ",
"  ...oo.oo..    ",
"  .XXXXX....    ",
"  .X.X.XXX..    ",
"  .X.X.X.X..XX  ",
"  .X.X.X.X..XXX ",
"  .X.X.X.X..XXXX",
"  .X.X.X.X..XXXX",
"  .X.X.X.X..XXX ",
"  .XXX.X.X..X   ",
"    ..XX..X     "};
