/* XPM */
static char * undo_xpm[] = {
"16 16 2 1",
" 	s None	c None",
".	c black",
"                ",
"                ",
"       ....     ",
"     ..    ..   ",
" .  .        .  ",
" ...          . ",
" ...          . ",
" ....         . ",
"              . ",
"             .  ",
"           ..   ",
"                ",
"......... . . . ",
"......... . . . ",
"                ",
"                "};
