/* XPM */
static char * up_xpm[] = {
"17 16 50 1",
" 	c None",
".	c #0C2E51",
"+	c #02040B",
"@	c #105A8D",
"#	c #105687",
"$	c #050C18",
"%	c #32739D",
"&	c #DEECF7",
"*	c #1C91C1",
"=	c #040911",
"-	c #FFFFFF",
";	c #1492C7",
">	c #47CCE8",
",	c #0E88C1",
"'	c #0D81BE",
")	c #0F8DC2",
"!	c #A6D3EB",
"~	c #53AFD6",
"{	c #0E7CB5",
"]	c #14ADD8",
"^	c #12416D",
"/	c #244263",
"(	c #BED9ED",
"_	c #0D82B8",
":	c #1BA8D0",
"<	c #1184B9",
"[	c #0E4C73",
"}	c #103B5F",
"|	c #133858",
"1	c #0A223D",
"2	c #000000",
"3	c #DFEDFA",
"4	c #46C9E5",
"5	c #1E86B1",
"6	c #04111D",
"7	c #EEF1FB",
"8	c #0D97CA",
"9	c #3FBFDA",
"0	c #2684AF",
"a	c #05101E",
"b	c #5EB3D7",
"c	c #8EC3E1",
"d	c #2B83AC",
"e	c #05101C",
"f	c #9FC4DE",
"g	c #D2E1EF",
"h	c #6399BC",
"i	c #06121F",
"j	c #173A5E",
"k	c #0C2A4B",
"                 ",
"                 ",
"       .+        ",
"      .@#$       ",
"     .%&*#=      ",
"    .%-;>*#=     ",
"   .%-,')>*#$    ",
"  .%&!~{']>*#+   ",
" .^^//(_:<[}|12  ",
"     /3'456      ",
"     ^7890a      ",
"     ^3bcde      ",
"     ^f7ghi      ",
"     ^^^/jk      ",
"                 ",
"                 "};
