/* XPM */
static char * user_classflash_xpm[] = {
"16 16 8 1",
" 	c white",
".	c yellow",
"X	c black",
"o	c orange",
"O	c #7F7F7F7F7F7F",
"+	c #9A9A00006565",
"@	c #FFFFCFCF9A9A",
"#	c #FAFA13134040",
"    .      .    ",
"     .XooX.XXXX ",
"    XOooooOOOXX ",
"   X..oooo..XOX ",
"  XOOOOOOOOXOOX ",
" XXXXXXXXXXOOOX ",
" XOO++++OOXOOOX ",
" XO++++++OXOOOX ",
" X+@@@@@@+XOOOX ",
" X+@X@@X@+XOOOX ",
" X@@@@@@@@XOOOX ",
" X@@#@@#@@XOOX  ",
" XO@@##@@OXOX   ",
" XOO@@@@OOXX    ",
" XXXXXXXXXX     ",
"                "};
