/* XPM */
static char * x_xpm[] = {
"16 16 6 1",
" 	c white",
".	c black",
"X	c #7F7F7F7F7F7F",
"o	c #9A9A00006565",
"O	c #FFFFCFCF9A9A",
"+	c #FAFA13134040",
"                ",
"     .......... ",
"    .XXXXXXXX.. ",
"   .XXXXXXXX.X. ",
"  .XXXXXXXX.XX. ",
" ..........XXX. ",
" .XXooooXX.XXX. ",
" .XooooooX.XXX. ",
" .oOOOOOOo.XXX. ",
" .oO.OO.Oo.XXX. ",
" .OOOOOOOO.XXX. ",
" .OO+OO+OO.XX.  ",
" .XOO++OOX.X.   ",
" .XXOOOOXX..    ",
" ..........     ",
"                "};
