/* XPM */
static char *user[] = {
/* columns rows colors chars-per-pixel */
"16 16 18 1",
"  c #2D2C04",
". c #38373A",
"X c #615F04",
"o c #57554F",
"O c #615F64",
"+ c #957404",
"@ c #807E84",
"# c #A99204",
"$ c #BEA624",
"% c #C8BB4F",
"& c #9F9C9A",
"* c #A9A6AF",
"= c #B4B1BA",
"- c #DDD98F",
"; c #DDD9DA",
": c #F2EEFA",
"> c gray100",
", c None",
/* pixels */
",,,,,*O O*,,,,,,",
",,,,*. + .*,,,,,",
",,,=O #-+ O=,,,,",
",,,=.X-%#X.=,,,,",
",,,,O +$+ O,,,,,",
",,,,&O + O&,,,,,",
",,,@       @,,,,",
",,O ::::;;; O,,,",
",,O ;o:;;o; O,,,",
",,O ;     ; O,,,",
",,O ; #++ ; O,,,",
",,O   # +   O,,,",
",,=OO # + OO=,,,",
",,,,O # + O,,,,,",
",,,,O X X O,,,,,",
",,,,O     O,,,,,"
};
