/* XPM */
static char * valign_xpm[] = {
"16 16 2 1",
" 	c white",
".	c black",
"                ",
" .............. ",
" .            . ",
" .            . ",
" .            . ",
" .            . ",
" .............. ",
"                ",
"                ",
".  ..........  .",
".. .        . ..",
"....        ....",
".. .        . ..",
".  .        .  .",
"   ..........   ",
"                "};
