/* XPM */
static char * fast_forward_xpm[] = {
/* columns rows colors chars-per-pixel */
"16 16 8 1",
" 	c gray29",
".	c gray43",
"X	c None",
"o	c black",
"O	c #006296",
"+	c #0092DC",
"@	c #007AB9",
"#	c #003250",
/* pixels */
"     .    XXXXXX",
"oooooooooo XXXXX",
"oOOOooOOOoo XXXX",
"ooO++ooO++oo XXX",
" ooO+@ooO++oo XX",
"X ooO+@ooO+@oo X",
"XX ooO+@ooO+@oo ",
"XXX o#O+@ooO++o ",
"XXX o#O+@ooO++o ",
"XX ooO+@ooO++oo ",
"X ooO+@ooO++oo X",
" ooO@@ooO+@oo XX",
"ooO@@ooO+@oo XXX",
"oOOOooOOOoo XXXX",
"oooooooooo XXXXX",
"     .    XXXXXX"};
