/* XPM */
static char * x_xpm[] = {
/* columns rows colors chars-per-pixel */
"16 16 7 1",
" 	c None",
".	c #808080",
"X	c black",
"o	c #000080",
"O	c #c0c0c0",
"+	c yellow",
"@	c white",
/* pixels */
"              .X",
"             .oo",
"        XX  .ooo",
"       .OOX.ooo.",
"      X+OOOOoo. ",
"    .X+@.OOOX.  ",
"XXXXOO+.@+OOOO  ",
" X@.+O.++@.OOO  ",
"  X+.@OO+.@+OX  ",
"   X@.+O.++@X   ",
"    X+.@@++X    ",
"     X@.+@X     ",
"      X++X      ",
"       XX       ",
"      +         ",
"++++++          "};
