#define bricks_block_width 16
#define bricks_block_height 16
static char bricks_block_bits[] = {
   0x00, 0x00, 0xfe, 0xee, 0xfe, 0xee, 0xfe, 0xee, 0x00, 0xee, 0xfe, 0xee,
   0xfe, 0xee, 0xfe, 0xee, 0x00, 0x00, 0xee, 0xfe, 0xee, 0xfe, 0xee, 0xfe,
   0xee, 0x00, 0xee, 0xfe, 0xee, 0xfe, 0xee, 0xfe};
