#define new_pattern_width 16
#define new_pattern_height 16
static char new_pattern_bits[] = {
 0x10,0x10,0x38,0x39,0x7c,0x7d,0xfe,0xfe,0xff,0xff,0xfe,0xfe,0x7c,0x7d,0xb8,
 0x3b,0xd6,0xd7,0xb8,0x3b,0x7c,0x7d,0xfe,0xfe,0xff,0xff,0xfe,0xfe,0x7c,0x7d,
 0x38,0x39};
