#define cross_check_width 20
#define cross_check_height 20
static char cross_check_bits[] = {
   0x5d, 0x74, 0x01, 0xe8, 0xa2, 0x0b, 0x45, 0x17, 0x0d, 0x2e, 0xba, 0x08,
   0x74, 0xd1, 0x05, 0xa2, 0x8b, 0x0e, 0x17, 0x5d, 0x04, 0xba, 0xe8, 0x02,
   0xd1, 0x45, 0x07, 0x8b, 0x2e, 0x0a, 0x5d, 0x74, 0x01, 0xe8, 0xa2, 0x0b,
   0x45, 0x17, 0x0d, 0x2e, 0xba, 0x08, 0x74, 0xd1, 0x05, 0xa2, 0x8b, 0x0e,
   0x17, 0x5d, 0x04, 0xba, 0xe8, 0x02, 0xd1, 0x45, 0x07, 0x8b, 0x2e, 0x0a};
