#define cheks1_width 16
#define cheks1_height 16
static char cheks1_bits[] = {
 0x33,0x33,0x33,0x33,0xcc,0xcc,0xcc,0xcc,0x33,0x33,0x33,0x33,0xcc,0xcc,0xcc,
 0xcc,0x33,0x33,0x33,0x33,0xcc,0xcc,0xcc,0xcc,0x33,0x33,0x33,0x33,0xcc,0xcc,
 0xcc,0xcc};
