#define el_width 16
#define el_height 16
static char el_bits[] = {
 0x9e,0x9e,0xf4,0xf4,0xa7,0xa7,0x3d,0x3d,0xe9,0xe9,0x4f,0x4f,0x7a,0x7a,0xd3,
 0xd3,0x9e,0x9e,0xf4,0xf4,0xa7,0xa7,0x3d,0x3d,0xe9,0xe9,0x4f,0x4f,0x7a,0x7a,
 0xd3,0xd3};
