#define arrow_in_out_width 12
#define arrow_in_out_height 12
static char arrow_in_out_bits[] = {
   0x24, 0x09, 0xae, 0x0b, 0xff, 0x0f, 0xae, 0x0b, 0x24, 0x09, 0xff, 0x0f,
   0x24, 0x09, 0x75, 0x0d, 0xff, 0x0f, 0x75, 0x0d, 0x24, 0x09, 0xff, 0x0f};
