#define Circle_hex_width 16
#define Circle_hex_height 16
static char Circle_hex_bits[] = {
   0xe3, 0xe3, 0xdd, 0xdd, 0xbe, 0xbe, 0xbe, 0xbe, 0xbe, 0xbe, 0xdd, 0xdd,
   0xe3, 0xe3, 0xff, 0xff, 0x3e, 0x3e, 0xdd, 0xdd, 0xeb, 0xeb, 0xeb, 0xeb,
   0xeb, 0xeb, 0xdd, 0xdd, 0x3e, 0x3e, 0xff, 0xff};
