#define player17_width 16
#define player17_height 16
static char player17_bits[] = {
   0x1c, 0x1c, 0x22, 0x22, 0x41, 0x41, 0x49, 0x49, 0x41, 0x41, 0x22, 0x22,
   0x1c, 0x1c, 0x80, 0x80, 0x1c, 0x1c, 0x22, 0x22, 0x41, 0x41, 0x49, 0x49,
   0x41, 0x41, 0x22, 0x22, 0x1c, 0x1c, 0x80, 0x80};
