#define Circle_tile_width 16
#define Circle_tile_height 16
static char Circle_tile_bits[] = {
   0xab, 0xab, 0x7d, 0x7d, 0xfe, 0xfe, 0xff, 0xff, 0xfe, 0xfe, 0xff, 0xff,
   0xfe, 0xfe, 0x7d, 0x7d, 0xab, 0xab, 0x7d, 0x7d, 0xfe, 0xfe, 0xff, 0xff,
   0xfe, 0xfe, 0xff, 0xff, 0xfe, 0xfe, 0x7d, 0x7d};
