#define dots5_width 16
#define dots5_height 16
static char dots5_bits[] = {
 0xfe,0xfe,0xff,0xff,0xff,0xff,0xff,0xff,0xef,0xef,0xff,0xff,0xff,0xff,0xff,
 0xff,0xfe,0xfe,0xff,0xff,0xff,0xff,0xff,0xff,0xef,0xef,0xff,0xff,0xff,0xff,
 0xff,0xff};
