#define dots1_width 16
#define dots1_height 16
static char dots1_bits[] = {
 0xee,0xee,0xff,0xff,0xff,0xff,0xff,0xff,0xee,0xee,0xff,0xff,0xff,0xff,0xff,
 0xff,0xee,0xee,0xff,0xff,0xff,0xff,0xff,0xff,0xee,0xee,0xff,0xff,0xff,0xff,
 0xff,0xff};
