#define weave-diag_width 16
#define weave-diag_height 16
static char weave-diag_bits[] = {
   0xee, 0xee, 0xbb, 0xbb, 0xee, 0xee, 0xbb, 0xbb, 0xee, 0xee, 0xbb, 0xbb,
   0xee, 0xee, 0xbb, 0xbb, 0xee, 0xee, 0xbb, 0xbb, 0xee, 0xee, 0xbb, 0xbb,
   0xee, 0xee, 0xbb, 0xbb, 0xee, 0xee, 0xbb, 0xbb};
