#define dots_hex_width 16
#define dots_hex_height 18
static char dots_hex_bits[] = {
   0xed, 0xed, 0xff, 0xff, 0xff, 0xff, 0xde, 0xde, 0xff, 0xff, 0xff, 0xff,
   0xed, 0xed, 0xff, 0xff, 0xff, 0xff, 0xde, 0xde, 0xff, 0xff, 0xff, 0xff,
   0xed, 0xed, 0xff, 0xff, 0xff, 0xff, 0xde, 0xde, 0xff, 0xff, 0xff, 0xff};
