#define fence1_width 16
#define fence1_height 16
static char fence1_bits[] = {
 0x7c,0x7e,0x39,0xff,0x63,0xff,0xc7,0xff,0x0f,0xfe,0x3f,0xfc,0xef,0xf9,0xcf,
 0xf3,0xcf,0xf3,0x9f,0xf7,0x3f,0xfc,0x7f,0xf8,0xff,0xe3,0xff,0xc6,0xff,0x9c,
 0x7e,0x3e};
