#define fence3_width 16
#define fence3_height 16
static char fence3_bits[] = {
   0x7f, 0xfe, 0x3f, 0xff, 0x3f, 0xff, 0x9f, 0xff, 0x9f, 0xfd, 0xcf, 0xf8,
   0xc9, 0xf1, 0xc8, 0x73, 0xce, 0x13, 0x8f, 0x93, 0x1f, 0xf3, 0xbf, 0xf9,
   0xff, 0xf9, 0xff, 0xfc, 0xff, 0xfc, 0x7f, 0xfe};
