#define grey03_width 16
#define grey03_height 16
static char grey03_bits[] = {
0xff,0xff,0xdd,0xdd,0xff,0xff,0xff,0xff,0xff,0xff,0xdd,0xdd,
0xff,0xff,0xff,0xff,0xff,0xff,0xdd,0xdd,0xff,0xff,0xff,0xff,
0xff,0xff,0xdd,0xdd,0xff,0xff,0xff,0xff};
