#define grey05_width 16
#define grey05_height 16
static char grey05_bits[] = {
0xff,0xff,0x55,0x55,0xff,0xff,0xdd,0xdd,0xff,0xff,0x55,0x55,
0xff,0xff,0xdd,0xdd,0xff,0xff,0x55,0x55,0xff,0xff,0xdd,0xdd,
0xff,0xff,0x55,0x55,0xff,0xff,0xdd,0xdd};
