#define grey26_width 16
#define grey26_height 16
static char grey26_bits[] = {
 0x00,0x00,0x55,0x55,0x00,0x00,0x22,0x22,0x00,0x00,0x55,0x55,0x00,0x00,0x88,
 0x88,0x00,0x00,0x55,0x55,0x00,0x00,0x22,0x22,0x00,0x00,0x55,0x55,0x00,0x00,
 0x88,0x88};
