#define grey10_width 16
#define grey10_height 16
static char grey10_bits[] = {
0xee,0xee,0x55,0x55,0xff,0xff,0x55,0x55,0xee,0xee,0x55,0x55,
0xff,0xff,0x55,0x55,0xee,0xee,0x55,0x55,0xff,0xff,0x55,0x55,
0xee,0xee,0x55,0x55,0xff,0xff,0x55,0x55};
