#define grey22_width 16
#define grey22_height 16
static char grey22_bits[] = {
 0x88,0x88,0x55,0x55,0x00,0x00,0x55,0x55,0x88,0x88,0x55,0x55,0x00,0x00,0x55,
 0x55,0x88,0x88,0x55,0x55,0x00,0x00,0x55,0x55,0x88,0x88,0x55,0x55,0x00,0x00,
 0x55,0x55};
