#define grey19_width 16
#define grey19_height 16
static char grey19_bits[] = {
 0x55,0x55,0x88,0x88,0x55,0x55,0xa2,0xa2,0x55,0x55,0x88,0x88,0x55,0x55,0x2a,
 0x2a,0x55,0x55,0x88,0x88,0x55,0x55,0xa2,0xa2,0x55,0x55,0x88,0x88,0x55,0x55,
 0x2a,0x2a};
