#define grey04_width 16
#define grey04_height 16
static char grey04_bits[] = {
0xee,0xee,0xff,0xff,0xbb,0xbb,0xff,0xff,0xee,0xee,0xff,0xff,
0xbb,0xbb,0xff,0xff,0xee,0xee,0xff,0xff,0xbb,0xbb,0xff,0xff,
0xee,0xee,0xff,0xff,0xbb,0xbb,0xff,0xff};
