#define grey29_width 16
#define grey29_height 16
static char grey29_bits[] = {
 0x00,0x00,0x44,0x44,0x00,0x00,0x00,0x00,0x00,0x00,0x44,0x44,0x00,0x00,0x00,
 0x00,0x00,0x00,0x44,0x44,0x00,0x00,0x00,0x00,0x00,0x00,0x44,0x44,0x00,0x00,
 0x00,0x00};
