#define player16_width 16
#define player16_height 16
static char player16_bits[] = {
   0x22, 0x22, 0x55, 0x55, 0x49, 0x49, 0x41, 0x41, 0x22, 0x22, 0x94, 0x94,
   0xc9, 0xc9, 0x80, 0x80, 0x22, 0x22, 0x55, 0x55, 0x49, 0x49, 0x41, 0x41,
   0x22, 0x22, 0x94, 0x94, 0xc9, 0xc9, 0x80, 0x80};
