#define ironcoat_width 16
#define ironcoat_height 16
static char ironcoat_bits[] = {
 0x66,0x66,0xee,0xee,0x77,0x77,0x55,0x55,0x33,0x33,0xee,0xee,0x77,0x77,0x55,
 0x55,0x66,0x66,0xee,0xee,0x77,0x77,0x55,0x55,0x33,0x33,0xee,0xee,0x77,0x77,
 0x55,0x55};
