#define line_vert5_1_width 15
#define line_vert5_1_height 15
static char line_vert5_1_bits[] = {
   0xef, 0x3d, 0xef, 0x3d, 0xef, 0x3d, 0xef, 0x3d, 0xef, 0x3d, 0xef, 0x3d,
   0xef, 0x3d, 0xef, 0x3d, 0xef, 0x3d, 0xef, 0x3d, 0xef, 0x3d, 0xef, 0x3d,
   0xef, 0x3d, 0xef, 0x3d, 0xef, 0x3d};
