#define diag3_1_width 16
#define diag3_1_height 16
static char diag3_1_bits[] = {
 0xbb,0xbb,0x77,0x77,0xee,0xee,0xdd,0xdd,0xbb,0xbb,0x77,0x77,0xee,0xee,0xdd,
 0xdd,0xbb,0xbb,0x77,0x77,0xee,0xee,0xdd,0xdd,0xbb,0xbb,0x77,0x77,0xee,0xee,
 0xdd,0xdd};
