#define line_vert3_1_width 15
#define line_vert3_1_height 15
static char line_vert3_1_bits[] = {
   0xdb, 0x36, 0xdb, 0x36, 0xdb, 0x36, 0xdb, 0x36, 0xdb, 0x36, 0xdb, 0x36,
   0xdb, 0x36, 0xdb, 0x36, 0xdb, 0x36, 0xdb, 0x36, 0xdb, 0x36, 0xdb, 0x36,
   0xdb, 0x36, 0xdb, 0x36, 0xdb, 0x36};
