#define line_vert3_2_width 15
#define line_vert3_2_height 15
static char line_vert3_2_bits[] = {
   0x49, 0x12, 0x49, 0x12, 0x49, 0x12, 0x49, 0x12, 0x49, 0x12, 0x49, 0x12,
   0x49, 0x12, 0x49, 0x12, 0x49, 0x12, 0x49, 0x12, 0x49, 0x12, 0x49, 0x12,
   0x49, 0x12, 0x49, 0x12, 0x49, 0x12};
