#define vbar2_2_width 16
#define vbar2_2_height 16
static char vbar2_2_bits[] = {
 0x33,0x33,0x33,0x33,0x33,0x33,0x33,0x33,0x33,0x33,0x33,0x33,0x33,0x33,0x33,
 0x33,0x33,0x33,0x33,0x33,0x33,0x33,0x33,0x33,0x33,0x33,0x33,0x33,0x33,0x33,
 0x33,0x33};
