#define line_diag7_1_width 16
#define line_diag7_1_height 16
static char line_diag7_1_bits[] = {
   0xef, 0xef, 0xdf, 0xdf, 0xbf, 0xbf, 0x7f, 0x7f, 0xfe, 0xfe, 0xfd, 0xfd,
   0xfb, 0xfb, 0xf7, 0xf7, 0xef, 0xef, 0xdf, 0xdf, 0xbf, 0xbf, 0x7f, 0x7f,
   0xfe, 0xfe, 0xfd, 0xfd, 0xfb, 0xfb, 0xf7, 0xf7};
