#define line_vert5_2_width 15
#define line_vert5_2_height 15
static char line_vert5_2_bits[] = {
   0xe7, 0x1c, 0xe7, 0x1c, 0xe7, 0x1c, 0xe7, 0x1c, 0xe7, 0x1c, 0xe7, 0x1c,
   0xe7, 0x1c, 0xe7, 0x1c, 0xe7, 0x1c, 0xe7, 0x1c, 0xe7, 0x1c, 0xe7, 0x1c,
   0xe7, 0x1c, 0xe7, 0x1c, 0xe7, 0x1c};
