#define movietone_width 16
#define movietone_height 16
static char movietone_bits[] = {
 0x57,0x57,0x75,0x75,0x57,0x57,0x75,0x75,0x57,0x57,0x75,0x75,0x57,0x57,0x75,
 0x75,0x57,0x57,0x75,0x75,0x57,0x57,0x75,0x75,0x57,0x57,0x75,0x75,0x57,0x57,
 0x75,0x75};
