#define random_1_width 16
#define random_1_height 16
static char random_1_bits[] = {
 0x22,0x22,0x08,0x08,0xa2,0xa2,0x28,0x28,0x82,0x82,0x42,0x42,0x28,0x28,0x84,
 0x84,0x22,0x22,0x08,0x08,0xa2,0xa2,0x28,0x28,0x82,0x82,0x42,0x42,0x28,0x28,
 0x84,0x84};
