#define p3_width 16
#define p3_height 16
static char p3_bits[] = {
 0x13,0x13,0x33,0x33,0x98,0x98,0x4c,0x4c,0x26,0x26,0x62,0x62,0xc4,0xc4,0x89,
 0x89,0x13,0x13,0x33,0x33,0x98,0x98,0x4c,0x4c,0x26,0x26,0x62,0x62,0xc4,0xc4,
 0x89,0x89};
