#define player2_width 16
#define player2_height 16
static char player2_bits[] = {
   0x00, 0x00, 0xfe, 0xfd, 0x02, 0x85, 0x7a, 0xb5, 0x4a, 0xa5, 0x5a, 0xbd,
   0x42, 0x81, 0x7e, 0xff, 0x00, 0x00, 0xff, 0x7e, 0x81, 0x42, 0xbd, 0x5a,
   0xa5, 0x4a, 0xb5, 0x7a, 0x85, 0x02, 0xfd, 0xfe};
