#define squarez_width 15
#define squarez_height 15
static unsigned char squarez_bits[] = {
  0xff, 0x00, 0x81, 0x3e, 0xbd, 0x3e, 0xbd, 0x3e, 0xbd, 0x3e, 0xbd, 0x3e,
  0x81, 0x00, 0xff, 0x7f, 0x80, 0x40, 0xbe, 0x5e, 0xbe, 0x5e, 0xbe, 0x5e,
  0xbe, 0x5e, 0xbe, 0x40, 0x80, 0x7f, };
