#define tweed4_4_width 16
#define tweed4_4_height 16
static char tweed4_4_bits[] = {
 0xd2,0x2d,0x1e,0xe1,0x87,0x78,0xb4,0x4b,0x2d,0xd2,0xe1,0x1e,0x78,0x87,0x4b,
 0xb4,0x2d,0xd2,0xe1,0x1e,0x78,0x87,0x4b,0xb4,0xd2,0x2d,0x1e,0xe1,0x87,0x78,
 0xb4,0x4b};
