#define vertigo_width 16
#define vertigo_height 16
static char vertigo_bits[] = {
 0x54,0x55,0x57,0x55,0x50,0xd5,0x5f,0x15,0x40,0xf5,0x7f,0x05,0x00,0xfd,0xff,
 0x01,0x80,0xff,0xbf,0x00,0xa0,0xfe,0xaf,0x02,0xa8,0xfa,0xab,0x0a,0xaa,0xea,
 0xaa,0x2a};
