#define noname_width 16
#define noname_height 16
static char noname_bits[] = {
 0xff,0x07,0x01,0x04,0x01,0x04,0x01,0x04,0x01,0x04,0x01,0x04,0xff,0x07,0x07,
 0x07,0x07,0xff,0x04,0x01,0x04,0x01,0x04,0x01,0x04,0x01,0x04,0x01,0x07,0xff,
 0x07,0x07};
