#define noname_width 16
#define noname_height 16
static char noname_bits[] = {
 0xee,0xee,0x55,0x55,0x55,0x55,0xbb,0xbb,0xee,0xee,0x55,0x55,0x55,0x55,0xbb,
 0xbb,0xee,0xee,0x55,0x55,0x55,0x55,0xbb,0xbb,0xee,0xee,0x55,0x55,0x55,0x55,
 0xbb,0xbb};
