/* XPM */
static char *magick[] = {
/* columns rows colors chars-per-pixel */
"16 16 6 1",
"  c gray0",
". c #000808",
"X c #202495",
"o c #5055ff",
"O c #79859d",
"+ c None",
/* pixels */
"++++++++++++++++",
"++++++++++++++++",
"++++++++++++++++",
"+    ++++++   O ",
" XXoXX +++ XXXXO",
" XoooX +  XoooO ",
"+ ooooX  Xoooo +",
"++ oXXXX XXoX O+",
"+OO.ooXX oXooOOO",
"+OO oXXX XXo OO+",
"++O ooo  ooooO++",
"+++O oo O ooOO++",
"+++OO OO+O  O+++",
"++++OOO++OOO++++",
"++++++++++++++++",
"++++++++++++++++"
};
