/* XPM */
static char * x_xpm[] = {
/* columns rows colors chars-per-pixel */
"16 16 25 1",
" 	c None",
".	c red",
"X	c black",
"o	c #b22222",
"O	c #cd3232",
"+	c #323232",
"@	c #9b0000",
"#	c #4b4b4b",
"$	c #6c1414",
"%	c #e64b4b",
"&	c #9e4646",
"*	c #b75f5f",
"=	c slategray",
"-	c #cd3200",
";	c #646464",
":	c #768089",
">	c #8f99a2",
",	c #323200",
"<	c #444d57",
"1	c #a8b1bb",
"2	c white",
"3	c #808080",
"4	c #808000",
"5	c yellow",
"6	c #c0c0c0",
/* pixels */
"                ",
"    ....XX.     ",
"   o...X....    ",
"  o..X..X..X.   ",
"  oXOO++O+OO@   ",
"  oXO.OOOO#.$   ",
" oooO.+..%#.$   ",
" ooo&*+@@%O+@X  ",
" =.oO%O-%OOOX+  ",
"=X==O%*..O*+-;X ",
"  =X:>O,OO<XX1< ",
"    :,2;1:><<222",
"    3<4X12122445",
"    36X4X42X42XX",
"       54X5XX5X ",
"       X  4X X  "};
