#define label_width 32
#define label_height 32
static char label_bits[] = {
   0xff, 0xff, 0xff, 0xff, 0x01, 0x00, 0x00, 0x80, 0x01, 0x00, 0x00, 0x80,
   0x01, 0x00, 0x00, 0x80, 0x01, 0x00, 0x00, 0x80, 0x09, 0xc4, 0xe3, 0x85,
   0x09, 0x44, 0x22, 0x84, 0x09, 0x44, 0x22, 0x84, 0x09, 0x44, 0x22, 0x84,
   0x09, 0x44, 0x22, 0x84, 0x09, 0x4a, 0x22, 0x84, 0x09, 0x4a, 0x22, 0x84,
   0x09, 0x4a, 0x22, 0x84, 0x09, 0x4a, 0x22, 0x84, 0x09, 0xca, 0x2f, 0x84,
   0x09, 0x4a, 0x68, 0x84, 0x09, 0x4e, 0x28, 0x84, 0x09, 0x4a, 0x28, 0x84,
   0x09, 0x4a, 0x28, 0x84, 0x09, 0x4a, 0x28, 0x84, 0x09, 0x51, 0x28, 0x84,
   0x09, 0x51, 0x28, 0x84, 0x09, 0x51, 0x28, 0x84, 0x09, 0x51, 0x28, 0x84,
   0x09, 0x51, 0x28, 0x84, 0x79, 0xd1, 0xef, 0xbd, 0x01, 0x00, 0x00, 0x80,
   0x01, 0x00, 0x00, 0x80, 0x01, 0x00, 0x00, 0x80, 0x01, 0x00, 0x00, 0x80,
   0x01, 0x00, 0x00, 0x80, 0xff, 0xff, 0xff, 0xff};
