#define slider_width 32
#define slider_height 32
static char slider_bits[] = {
   0xff, 0xff, 0xff, 0xff, 0x01, 0x00, 0x00, 0x80, 0x01, 0x00, 0x00, 0x80,
   0x01, 0x00, 0x00, 0x80, 0x01, 0x00, 0x00, 0x80, 0x01, 0x00, 0x00, 0x80,
   0x01, 0x00, 0x00, 0x80, 0x01, 0x00, 0x00, 0x80, 0x01, 0x00, 0x00, 0x80,
   0x01, 0x00, 0x00, 0x80, 0x01, 0x00, 0x00, 0x80, 0x45, 0xe0, 0x01, 0x80,
   0x45, 0x20, 0x03, 0x80, 0x29, 0x20, 0x03, 0x80, 0x29, 0x3e, 0xff, 0x9f,
   0x11, 0x3f, 0x03, 0xa0, 0x11, 0x3e, 0xff, 0x9f, 0x29, 0x20, 0x03, 0x80,
   0x29, 0x20, 0x03, 0x80, 0x45, 0xe0, 0x03, 0x80, 0x45, 0xc0, 0x03, 0x80,
   0x01, 0x00, 0x00, 0x80, 0x01, 0x00, 0x00, 0x80, 0x01, 0x00, 0x00, 0x80,
   0x01, 0x00, 0x00, 0x80, 0x01, 0x00, 0x00, 0x80, 0x01, 0x00, 0x00, 0x80,
   0x01, 0x00, 0x00, 0x80, 0x01, 0x00, 0x00, 0x80, 0x01, 0x00, 0x00, 0x80,
   0x01, 0x00, 0x00, 0x80, 0xff, 0xff, 0xff, 0xff};
