#define toggle_width 32
#define toggle_height 32
static char toggle_bits[] = {
   0xff, 0xff, 0xff, 0xff, 0x01, 0x00, 0x00, 0x80, 0x01, 0x00, 0x00, 0x80,
   0x01, 0x00, 0x00, 0x80, 0x01, 0x00, 0x00, 0x80, 0x01, 0x00, 0x00, 0x80,
   0x81, 0xc0, 0x01, 0x84, 0x41, 0x20, 0x02, 0x82, 0x29, 0x00, 0x42, 0x81,
   0x11, 0x00, 0x82, 0x80, 0x01, 0x00, 0x01, 0x80, 0x01, 0x80, 0x00, 0x80,
   0x21, 0x80, 0x80, 0x83, 0x51, 0x00, 0x80, 0x82, 0x89, 0x80, 0x80, 0x82,
   0x89, 0x00, 0x80, 0x87, 0xf9, 0x00, 0x80, 0x84, 0x89, 0xa0, 0x82, 0x84,
   0x89, 0xf0, 0x87, 0x87, 0x01, 0x08, 0x08, 0x80, 0x01, 0x24, 0x12, 0x80,
   0x01, 0x54, 0x15, 0x80, 0x01, 0x04, 0x10, 0x80, 0x01, 0x82, 0x20, 0x80,
   0x01, 0x84, 0x10, 0x80, 0x01, 0x24, 0x12, 0x80, 0x01, 0x24, 0x12, 0x80,
   0x01, 0xc8, 0x09, 0x80, 0x01, 0x10, 0x04, 0x80, 0x01, 0xe0, 0x03, 0x80,
   0x01, 0x00, 0x00, 0x80, 0xff, 0xff, 0xff, 0xff};
