#define bishop.bm_width 64
#define bishop.bm_height 64
static char bishop.bm_bits[] = {
   0x88, 0x88, 0x88, 0x88, 0x00, 0x00, 0x00, 0x00, 0x44, 0x04, 0x44, 0x44,
   0x00, 0x00, 0x00, 0x00, 0x22, 0x82, 0x21, 0x22, 0x00, 0x80, 0x01, 0x00,
   0x11, 0x51, 0x12, 0x11, 0x00, 0x40, 0x02, 0x00, 0x88, 0x48, 0x8a, 0x88,
   0x00, 0x40, 0x02, 0x00, 0x44, 0x84, 0x41, 0x44, 0x00, 0x80, 0x01, 0x00,
   0x22, 0xc2, 0x23, 0x22, 0x00, 0xc0, 0x03, 0x00, 0x11, 0x21, 0x04, 0x11,
   0x00, 0x20, 0x04, 0x00, 0x88, 0x10, 0x88, 0x88, 0x00, 0x10, 0x08, 0x00,
   0x44, 0x08, 0x50, 0x44, 0x00, 0x08, 0x10, 0x00, 0x22, 0x08, 0x10, 0x22,
   0x00, 0x08, 0x10, 0x00, 0x11, 0x85, 0x21, 0x11, 0x00, 0x84, 0x21, 0x00,
   0x88, 0x84, 0xa1, 0x88, 0x00, 0x84, 0x21, 0x00, 0x44, 0xe6, 0x47, 0x44,
   0x00, 0xe2, 0x47, 0x00, 0x22, 0xe2, 0x47, 0x22, 0x00, 0xe2, 0x47, 0x00,
   0x11, 0x82, 0x41, 0x11, 0x00, 0x82, 0x41, 0x00, 0x88, 0x82, 0x41, 0x88,
   0x00, 0x82, 0x41, 0x00, 0x44, 0x04, 0x60, 0x44, 0x00, 0x04, 0x20, 0x00,
   0x22, 0x04, 0x20, 0x22, 0x00, 0x04, 0x20, 0x00, 0x11, 0x19, 0x10, 0x11,
   0x00, 0x08, 0x10, 0x00, 0x88, 0x10, 0x88, 0x88, 0x00, 0x10, 0x08, 0x00,
   0x44, 0xf4, 0x4f, 0x44, 0x00, 0xf0, 0x0f, 0x00, 0x22, 0x12, 0x28, 0x22,
   0x00, 0x10, 0x08, 0x00, 0x11, 0x91, 0x09, 0x11, 0x00, 0x90, 0x09, 0x00,
   0x88, 0x60, 0x8e, 0x88, 0x00, 0x60, 0x06, 0x00, 0x04, 0x80, 0x01, 0x40,
   0x00, 0x80, 0x01, 0x00, 0x82, 0x7f, 0xfe, 0x03, 0x80, 0x7f, 0xfe, 0x01,
   0x71, 0x80, 0x01, 0x1e, 0x70, 0x80, 0x01, 0x0e, 0x08, 0x60, 0x0e, 0x90,
   0x08, 0x60, 0x06, 0x10, 0xc8, 0x1f, 0xfc, 0x51, 0x88, 0x1f, 0xf8, 0x11,
   0x72, 0x00, 0x00, 0x2e, 0x70, 0x00, 0x00, 0x0e, 0x01, 0x11, 0x11, 0x00,
   0x00, 0x00, 0x00, 0x00, 0x88, 0x88, 0x88, 0x88, 0x00, 0x00, 0x00, 0x00,
   0x44, 0x04, 0x44, 0x44, 0x00, 0x00, 0x00, 0x00, 0x22, 0x82, 0x21, 0x22,
   0x00, 0x80, 0x01, 0x00, 0x11, 0xd1, 0x13, 0x11, 0x00, 0xc0, 0x03, 0x00,
   0x88, 0xc8, 0x8b, 0x88, 0x00, 0xc0, 0x03, 0x00, 0x44, 0x84, 0x41, 0x44,
   0x00, 0x80, 0x01, 0x00, 0x22, 0xc2, 0x23, 0x22, 0x00, 0xc0, 0x03, 0x00,
   0x11, 0xe1, 0x07, 0x11, 0x00, 0xe0, 0x07, 0x00, 0x88, 0xf0, 0x8f, 0x88,
   0x00, 0xf0, 0x0f, 0x00, 0x44, 0xfc, 0x1f, 0x44, 0x00, 0xf8, 0x1f, 0x00,
   0x22, 0xfa, 0x3f, 0x22, 0x00, 0xf8, 0x1f, 0x00, 0x11, 0x7d, 0x3e, 0x11,
   0x00, 0x7c, 0x3e, 0x00, 0x88, 0x7c, 0x3e, 0x88, 0x00, 0x7c, 0x3e, 0x00,
   0x44, 0x1e, 0x78, 0x44, 0x00, 0x1e, 0x78, 0x00, 0x22, 0x3e, 0x78, 0x22,
   0x00, 0x1e, 0x78, 0x00, 0x11, 0x7e, 0x7e, 0x11, 0x00, 0x7e, 0x7e, 0x00,
   0x88, 0x7e, 0x7e, 0x88, 0x00, 0x7e, 0x7e, 0x00, 0x44, 0xfc, 0x7f, 0x44,
   0x00, 0xfc, 0x3f, 0x00, 0x22, 0xfc, 0x3f, 0x22, 0x00, 0xfc, 0x3f, 0x00,
   0x11, 0xf9, 0x1f, 0x11, 0x00, 0xf8, 0x1f, 0x00, 0x88, 0xf8, 0x8f, 0x88,
   0x00, 0xf0, 0x0f, 0x00, 0x44, 0xf0, 0x4f, 0x44, 0x00, 0xf0, 0x0f, 0x00,
   0x22, 0xf2, 0x2f, 0x22, 0x00, 0xf0, 0x0f, 0x00, 0x11, 0xf1, 0x0f, 0x11,
   0x00, 0xf0, 0x0f, 0x00, 0x88, 0xe0, 0x87, 0x88, 0x00, 0xe0, 0x07, 0x00,
   0x44, 0x80, 0x01, 0x44, 0x00, 0x80, 0x01, 0x00, 0x82, 0xff, 0xff, 0x21,
   0x80, 0xff, 0xff, 0x01, 0xf1, 0xff, 0xff, 0x0f, 0xf0, 0xff, 0xff, 0x0f,
   0xf8, 0x7f, 0xfe, 0x9f, 0xf8, 0x7f, 0xfe, 0x1f, 0xf8, 0x1f, 0xf8, 0x5f,
   0xf8, 0x1f, 0xf8, 0x1f, 0x72, 0x20, 0x02, 0x2e, 0x70, 0x00, 0x00, 0x0e,
   0x01, 0x11, 0x11, 0x00, 0x00, 0x00, 0x00, 0x00};
