#define bullet.bm_width 16
#define bullet.bm_height 16
static char bullet.bm_bits[] = {
   0x00, 0x00, 0xc0, 0x07, 0x30, 0x19, 0x08, 0x21, 0x04, 0x41, 0x04, 0x41,
   0x02, 0x81, 0x02, 0x81, 0xfe, 0xff, 0x02, 0x81, 0x02, 0x81, 0x04, 0x41,
   0x04, 0x41, 0x08, 0x21, 0x30, 0x19, 0xc0, 0x07};
