#define busy_bee.bm_width 16
#define busy_bee.bm_height 16
static char busy_bee.bm_bits[] = {
   0x40, 0x02, 0xe0, 0x07, 0x80, 0x01, 0xc0, 0x03, 0x10, 0x08, 0xe8, 0x17,
   0x14, 0x28, 0xea, 0x57, 0x15, 0xa8, 0xea, 0x57, 0x15, 0xa8, 0xea, 0x57,
   0x05, 0xa0, 0xc0, 0x03, 0x80, 0x01, 0x80, 0x01};
