#define close.bm_width 16
#define close.bm_height 16
static char close.bm_bits[] = {
   0x00, 0x00, 0xfe, 0x3f, 0x02, 0x20, 0x0a, 0x28, 0x12, 0x24, 0x22, 0x22,
   0x02, 0x20, 0x02, 0x20, 0x02, 0x20, 0x22, 0x22, 0x12, 0x24, 0x0a, 0x28,
   0x02, 0x20, 0xfe, 0x3f, 0x00, 0x00, 0x00, 0x00};
