#define cross.bm_width 16
#define cross.bm_height 16
static char cross.bm_bits[] = {
   0x80, 0x01, 0x80, 0x01, 0x80, 0x01, 0x80, 0x01, 0x90, 0x09, 0xa0, 0x05,
   0xc0, 0x03, 0x7f, 0xfe, 0x7f, 0xfe, 0xc0, 0x03, 0xa0, 0x05, 0x90, 0x09,
   0x80, 0x01, 0x80, 0x01, 0x80, 0x01, 0x80, 0x01};
