#define domain.bm_width 16
#define domain.bm_height 16
static char domain.bm_bits[] = {
   0x00, 0x00, 0x00, 0x00, 0x00, 0x00, 0xff, 0xff, 0x40, 0x20, 0x40, 0x20,
   0x40, 0x20, 0xff, 0xff, 0x08, 0x04, 0x08, 0x04, 0x08, 0x04, 0xff, 0xff,
   0x40, 0x20, 0x40, 0x20, 0x40, 0x20, 0xff, 0xff};
