#define edit_text.bm_width 48
#define edit_text.bm_height 32
static char edit_text.bm_bits[] = {
   0xff, 0xff, 0xff, 0xff, 0xff, 0xff, 0x01, 0x00, 0x00, 0x00, 0x00, 0x80,
   0x01, 0x00, 0x00, 0x00, 0x00, 0x80, 0x01, 0x00, 0x04, 0x10, 0x00, 0x80,
   0x01, 0x00, 0x18, 0x0c, 0x00, 0x80, 0x01, 0x00, 0xe0, 0x03, 0x00, 0x80,
   0x01, 0x00, 0x80, 0x00, 0x00, 0x80, 0x01, 0x00, 0x80, 0x00, 0x00, 0x80,
   0x01, 0x00, 0x80, 0x00, 0x00, 0x80, 0x01, 0x00, 0x80, 0x00, 0x00, 0x80,
   0x01, 0x00, 0x80, 0x00, 0x00, 0x80, 0x01, 0x00, 0x80, 0x00, 0x00, 0x80,
   0x01, 0x00, 0x80, 0x00, 0x00, 0x80, 0x01, 0x00, 0x80, 0x00, 0x00, 0x80,
   0x01, 0x00, 0x80, 0x00, 0x00, 0x80, 0x01, 0x00, 0x80, 0x00, 0x00, 0x80,
   0x01, 0x00, 0x80, 0x00, 0x00, 0x80, 0x01, 0x00, 0x80, 0x00, 0x00, 0x80,
   0x01, 0x00, 0x80, 0x00, 0x00, 0x80, 0x01, 0x00, 0x80, 0x00, 0x00, 0x80,
   0x01, 0x00, 0x80, 0x00, 0x00, 0x80, 0x01, 0x00, 0x80, 0x00, 0x00, 0x80,
   0x01, 0x00, 0x80, 0x00, 0x00, 0x80, 0x01, 0x00, 0x80, 0x00, 0x00, 0x80,
   0x01, 0x00, 0x80, 0x00, 0x00, 0x80, 0x01, 0x00, 0x80, 0x00, 0x00, 0x80,
   0x01, 0x00, 0xe0, 0x03, 0x00, 0x80, 0x01, 0x00, 0x18, 0x0c, 0x00, 0x80,
   0x01, 0x00, 0x04, 0x10, 0x00, 0x80, 0x01, 0x00, 0x00, 0x00, 0x00, 0x80,
   0x01, 0x00, 0x00, 0x00, 0x00, 0x80, 0xff, 0xff, 0xff, 0xff, 0xff, 0xff};
