#define fatleft_arrow.bm_width 16
#define fatleft_arrow.bm_height 16
static char fatleft_arrow.bm_bits[] = {
   0x80, 0x09, 0xc0, 0x0c, 0x60, 0x0e, 0x30, 0x0f, 0x98, 0x0f, 0xcc, 0xff,
   0xe6, 0xff, 0xf3, 0xff, 0xe6, 0xff, 0xcc, 0xff, 0x98, 0x0f, 0x30, 0x0f,
   0x60, 0x0e, 0xc0, 0x0c, 0x80, 0x09, 0x00, 0x00};
