#define fatright_arrow.bm_width 16
#define fatright_arrow.bm_height 16
static char fatright_arrow.bm_bits[] = {
   0x90, 0x01, 0x30, 0x03, 0x70, 0x06, 0xf0, 0x0c, 0xf0, 0x19, 0xff, 0x33,
   0xff, 0x67, 0xff, 0xcf, 0xff, 0x67, 0xff, 0x33, 0xf0, 0x19, 0xf0, 0x0c,
   0x70, 0x06, 0x30, 0x03, 0x90, 0x01, 0x00, 0x00};
