#define happy.bm_width 64
#define happy.bm_height 64
static char happy.bm_bits[] = {
   0x00, 0x00, 0x00, 0x00, 0x00, 0x00, 0x00, 0x00, 0x00, 0x00, 0x00, 0x00,
   0x00, 0x00, 0x00, 0x00, 0x00, 0x00, 0x00, 0x00, 0x00, 0x00, 0x00, 0x00,
   0x00, 0x00, 0x00, 0x00, 0x00, 0x00, 0x00, 0x00, 0x00, 0x00, 0x00, 0x00,
   0x00, 0x00, 0x00, 0x00, 0x00, 0x00, 0x00, 0x00, 0x00, 0x00, 0x00, 0x00,
   0x00, 0x00, 0x00, 0x00, 0x00, 0x00, 0x00, 0x00, 0x00, 0x00, 0x00, 0x00,
   0x00, 0x00, 0x00, 0x00, 0x00, 0x00, 0x00, 0xf0, 0x1f, 0x00, 0x00, 0x00,
   0x00, 0x00, 0x00, 0xff, 0xff, 0x01, 0x00, 0x00, 0x00, 0x00, 0xc0, 0x0f,
   0xe0, 0x07, 0x00, 0x00, 0x00, 0x00, 0xf0, 0x01, 0x00, 0x1f, 0x00, 0x00,
   0x00, 0x00, 0x38, 0x00, 0x00, 0x38, 0x00, 0x00, 0x00, 0x00, 0x1c, 0x00,
   0x00, 0x70, 0x00, 0x00, 0x00, 0x00, 0x07, 0x00, 0x00, 0xc0, 0x01, 0x00,
   0x00, 0x80, 0x03, 0x00, 0x00, 0x80, 0x03, 0x00, 0x00, 0x80, 0x01, 0x00,
   0x00, 0x00, 0x03, 0x00, 0x00, 0xc0, 0x00, 0x00, 0x00, 0x00, 0x06, 0x00,
   0x00, 0x60, 0x00, 0x00, 0x00, 0x00, 0x0c, 0x00, 0x00, 0x70, 0x00, 0x00,
   0x00, 0x00, 0x1c, 0x00, 0x00, 0x30, 0x80, 0x03, 0xc0, 0x01, 0x18, 0x00,
   0x00, 0x18, 0x40, 0x04, 0x20, 0x02, 0x30, 0x00, 0x00, 0x18, 0x20, 0x08,
   0x10, 0x04, 0x30, 0x00, 0x00, 0x1c, 0x20, 0x08, 0x10, 0x04, 0x70, 0x00,
   0x00, 0x0c, 0x00, 0x00, 0x00, 0x00, 0x60, 0x00, 0x00, 0x0c, 0x00, 0x00,
   0x00, 0x00, 0x60, 0x00, 0x00, 0x0c, 0x00, 0x00, 0x00, 0x00, 0x60, 0x00,
   0x00, 0x06, 0x00, 0x00, 0x00, 0x00, 0xc0, 0x00, 0x00, 0x06, 0x00, 0x00,
   0x00, 0x00, 0xc0, 0x00, 0x00, 0x06, 0x00, 0x00, 0x00, 0x00, 0xc0, 0x00,
   0x00, 0x06, 0x00, 0x00, 0x00, 0x00, 0xc0, 0x00, 0x00, 0x06, 0x00, 0x00,
   0x00, 0x00, 0xc0, 0x00, 0x00, 0x06, 0x00, 0x00, 0x00, 0x00, 0xc0, 0x00,
   0x00, 0x06, 0x00, 0x00, 0x00, 0x00, 0xc0, 0x00, 0x00, 0x06, 0x00, 0x00,
   0x00, 0x00, 0xc0, 0x00, 0x00, 0x06, 0x00, 0x00, 0x00, 0x00, 0xc0, 0x00,
   0x00, 0x0c, 0x20, 0x00, 0x00, 0x04, 0x60, 0x00, 0x00, 0x0c, 0x20, 0x00,
   0x00, 0x04, 0x60, 0x00, 0x00, 0x0c, 0x20, 0x00, 0x00, 0x04, 0x60, 0x00,
   0x00, 0x1c, 0x20, 0x00, 0x00, 0x04, 0x70, 0x00, 0x00, 0x18, 0x40, 0x00,
   0x00, 0x02, 0x30, 0x00, 0x00, 0x18, 0x40, 0x00, 0x00, 0x02, 0x30, 0x00,
   0x00, 0x30, 0x80, 0x00, 0x00, 0x01, 0x18, 0x00, 0x00, 0x70, 0x00, 0x01,
   0x80, 0x00, 0x1c, 0x00, 0x00, 0x60, 0x00, 0x02, 0x40, 0x00, 0x0c, 0x00,
   0x00, 0xc0, 0x00, 0x0c, 0x30, 0x00, 0x06, 0x00, 0x00, 0x80, 0x01, 0xf0,
   0x0f, 0x00, 0x03, 0x00, 0x00, 0x80, 0x03, 0x00, 0x00, 0x80, 0x03, 0x00,
   0x00, 0x00, 0x07, 0x00, 0x00, 0xc0, 0x01, 0x00, 0x00, 0x00, 0x1c, 0x00,
   0x00, 0x70, 0x00, 0x00, 0x00, 0x00, 0x38, 0x00, 0x00, 0x38, 0x00, 0x00,
   0x00, 0x00, 0xf0, 0x01, 0x00, 0x1f, 0x00, 0x00, 0x00, 0x00, 0xc0, 0x0f,
   0xe0, 0x07, 0x00, 0x00, 0x00, 0x00, 0x00, 0xff, 0xff, 0x01, 0x00, 0x00,
   0x00, 0x00, 0x00, 0xf0, 0x1f, 0x00, 0x00, 0x00, 0x00, 0x00, 0x00, 0x00,
   0x00, 0x00, 0x00, 0x00, 0x00, 0x00, 0x00, 0x00, 0x00, 0x00, 0x00, 0x00,
   0x00, 0x00, 0x00, 0x00, 0x00, 0x00, 0x00, 0x00, 0x00, 0x00, 0x00, 0x00,
   0x00, 0x00, 0x00, 0x00, 0x00, 0x00, 0x00, 0x00, 0x00, 0x00, 0x00, 0x00,
   0x00, 0x00, 0x00, 0x00, 0x00, 0x00, 0x00, 0x00, 0x00, 0x00, 0x00, 0x00,
   0x00, 0x00, 0x00, 0x00, 0x00, 0x00, 0x00, 0x00, 0x00, 0x00, 0x00, 0x00,
   0x00, 0x00, 0x00, 0x00, 0x00, 0x00, 0x00, 0x00};
