#define help.bm_width 64
#define help.bm_height 64
static char help.bm_bits[] = {
   0x00, 0x00, 0x00, 0x00, 0x00, 0x00, 0x00, 0x00, 0x00, 0x00, 0x00, 0x00,
   0x00, 0x00, 0x00, 0x00, 0x00, 0x00, 0x00, 0x00, 0x00, 0x00, 0x00, 0x00,
   0x00, 0x00, 0x00, 0x00, 0x00, 0x00, 0x00, 0x00, 0x00, 0x00, 0x00, 0x00,
   0x00, 0x00, 0x00, 0x00, 0x00, 0x00, 0x00, 0x78, 0x00, 0x00, 0x00, 0x00,
   0x00, 0x00, 0x80, 0x87, 0x07, 0x00, 0x00, 0x00, 0x00, 0x00, 0x60, 0x00,
   0xf8, 0x01, 0x00, 0x00, 0x00, 0x00, 0x10, 0x00, 0x00, 0x06, 0x00, 0x00,
   0x00, 0x00, 0x0c, 0x00, 0x00, 0x18, 0x00, 0x00, 0x00, 0x00, 0x03, 0x00,
   0x00, 0x60, 0x00, 0x00, 0x00, 0xc0, 0x00, 0x00, 0x00, 0x80, 0x00, 0x00,
   0x00, 0x30, 0x00, 0x00, 0x00, 0x00, 0x07, 0x00, 0x00, 0x08, 0x00, 0x00,
   0x00, 0x00, 0x18, 0x00, 0x00, 0x06, 0x00, 0x00, 0x00, 0x00, 0x60, 0x00,
   0x00, 0x02, 0x00, 0x00, 0x00, 0x00, 0x80, 0x00, 0x00, 0x01, 0x00, 0x00,
   0x00, 0x00, 0x00, 0x03, 0x80, 0x00, 0x00, 0x00, 0xf0, 0x00, 0x00, 0x04,
   0x80, 0x1e, 0x1e, 0x00, 0xc0, 0x00, 0x00, 0x0c, 0x60, 0x0c, 0x0c, 0x00,
   0xc0, 0x00, 0x00, 0x08, 0x30, 0x0c, 0x0c, 0x00, 0xc0, 0x00, 0x00, 0x08,
   0x00, 0x0c, 0x0c, 0x00, 0xc0, 0x00, 0x00, 0x08, 0x08, 0x0c, 0x0c, 0x1e,
   0xc0, 0xe0, 0x3e, 0x08, 0x08, 0x0c, 0x8c, 0x61, 0xc0, 0xc0, 0x71, 0x10,
   0x04, 0xfc, 0xcf, 0xc0, 0xc0, 0xc0, 0xe0, 0x10, 0x04, 0x0c, 0xcc, 0xc0,
   0xc0, 0xc0, 0xc0, 0x10, 0x04, 0x0c, 0xcc, 0xff, 0xc0, 0xc0, 0xc0, 0x10,
   0x02, 0x0c, 0xcc, 0x00, 0xc0, 0xc0, 0xc0, 0x10, 0x02, 0x0c, 0xcc, 0x00,
   0xc0, 0xc0, 0xc0, 0x10, 0x02, 0x0c, 0x8c, 0x01, 0xc0, 0xc0, 0x40, 0x10,
   0x06, 0x0c, 0x0c, 0xc3, 0xc0, 0xc0, 0x21, 0x10, 0x04, 0x1e, 0x1e, 0x3e,
   0xf0, 0xc3, 0x1f, 0x10, 0x04, 0x00, 0x00, 0x00, 0x00, 0xc0, 0x00, 0x10,
   0x04, 0x00, 0x00, 0x00, 0x00, 0xc0, 0x00, 0x10, 0x04, 0x00, 0x00, 0x00,
   0x00, 0xc0, 0x00, 0x08, 0x08, 0x00, 0x3e, 0xc2, 0x50, 0x88, 0x0f, 0x08,
   0x08, 0x00, 0x26, 0xa5, 0xf8, 0xbc, 0x09, 0x08, 0x18, 0x00, 0x90, 0x48,
   0x50, 0x0a, 0x04, 0x04, 0x30, 0x00, 0x08, 0xa0, 0x52, 0x1c, 0x02, 0x02,
   0x40, 0x00, 0x34, 0x20, 0xf9, 0x28, 0x0d, 0x02, 0x80, 0x01, 0x32, 0xe0,
   0x52, 0x9e, 0x0c, 0x01, 0x00, 0x02, 0x00, 0x00, 0x00, 0x08, 0x80, 0x00,
   0x00, 0x7c, 0x00, 0x00, 0x00, 0x00, 0x60, 0x00, 0x00, 0x00, 0x0b, 0x00,
   0x00, 0x00, 0x30, 0x00, 0x00, 0x00, 0xb0, 0x03, 0x00, 0x80, 0x0f, 0x00,
   0x00, 0x00, 0x00, 0x04, 0x70, 0x71, 0x00, 0x00, 0x00, 0x00, 0x00, 0x04,
   0x88, 0x0e, 0x00, 0x00, 0x00, 0x00, 0x00, 0x08, 0x08, 0x00, 0x00, 0x00,
   0x00, 0x00, 0x00, 0x08, 0x04, 0x00, 0x00, 0x00, 0x00, 0x00, 0x00, 0x08,
   0x04, 0x00, 0x00, 0x00, 0x00, 0x00, 0x00, 0x10, 0x02, 0x00, 0x00, 0x00,
   0x00, 0x00, 0x00, 0x10, 0x02, 0x00, 0x00, 0x00, 0x00, 0x00, 0x00, 0x10,
   0x01, 0x00, 0x00, 0x00, 0x00, 0x00, 0x00, 0x10, 0x01, 0x00, 0x00, 0x00,
   0x00, 0x00, 0x00, 0x20, 0x01, 0x00, 0x00, 0x00, 0x00, 0x00, 0x00, 0xa0,
   0x00, 0x00, 0x00, 0x00, 0x00, 0x00, 0x00, 0xa0, 0x00, 0x00, 0x00, 0x00,
   0x00, 0x00, 0x00, 0x40, 0x00, 0x00, 0x00, 0x00, 0x00, 0x00, 0x00, 0x40,
   0x00, 0x00, 0x00, 0x00, 0x00, 0x00, 0x00, 0x00, 0x00, 0x00, 0x00, 0x00,
   0x00, 0x00, 0x00, 0x00, 0x00, 0x00, 0x00, 0x00, 0x00, 0x00, 0x00, 0x00,
   0x00, 0x00, 0x00, 0x00, 0x00, 0x00, 0x00, 0x00, 0x00, 0x00, 0x00, 0x00,
   0x00, 0x00, 0x00, 0x00, 0x00, 0x00, 0x00, 0x00};
