#define hourglass8.bm_width 16
#define hourglass8.bm_height 16
static char hourglass8.bm_bits[] = {
   0xff, 0xff, 0x01, 0x80, 0x02, 0x40, 0x04, 0x20, 0x08, 0x10, 0x10, 0x08,
   0x20, 0x04, 0x40, 0x03, 0xc0, 0x03, 0xa0, 0x04, 0x90, 0x09, 0xc8, 0x17,
   0xe4, 0x27, 0xfa, 0x5f, 0xfd, 0xbf, 0xff, 0xff};
