#define hourglass7.bm_width 16
#define hourglass7.bm_height 16
static char hourglass7.bm_bits[] = {
   0xff, 0xff, 0x01, 0x80, 0x02, 0x40, 0x04, 0x20, 0x08, 0x10, 0x10, 0x08,
   0x60, 0x06, 0x40, 0x03, 0xc0, 0x03, 0xa0, 0x04, 0x90, 0x09, 0xc8, 0x13,
   0xe4, 0x27, 0xf2, 0x5f, 0xfd, 0xbf, 0xff, 0xff};
