#define hourglass9.bm_width 16
#define hourglass9.bm_height 16
static char hourglass9.bm_bits[] = {
   0xff, 0xff, 0x01, 0x80, 0x02, 0x40, 0x04, 0x20, 0x08, 0x10, 0x10, 0x08,
   0x20, 0x04, 0x40, 0x02, 0xc0, 0x02, 0xa0, 0x04, 0x90, 0x0b, 0xc8, 0x17,
   0xf4, 0x27, 0xfa, 0x5f, 0xfd, 0xbf, 0xff, 0xff};
