#define kango2_width 40
#define kango2_height 30
static char kango2_bits[] = {
   0x00, 0x00, 0x00, 0x00, 0x00, 0x00, 0x00, 0x00, 0x00, 0x00, 0x00, 0x00,
   0x00, 0x00, 0x00, 0x00, 0x00, 0x00, 0x00, 0x00, 0x00, 0x00, 0x00, 0x00,
   0x00, 0x00, 0x00, 0x00, 0x00, 0x00, 0x00, 0x00, 0x00, 0x00, 0x00, 0x00,
   0x00, 0x00, 0x00, 0x00, 0x00, 0x00, 0x00, 0x08, 0x00, 0x00, 0x00, 0xe0,
   0x18, 0x00, 0x80, 0x00, 0xf8, 0x3b, 0x00, 0x80, 0x00, 0xfc, 0x7f, 0x00,
   0x00, 0x01, 0xfe, 0x8f, 0x00, 0x00, 0x86, 0xff, 0x07, 0x00, 0x00, 0xf8,
   0xff, 0x04, 0x00, 0x00, 0xe0, 0x3f, 0x02, 0x00, 0x00, 0xc0, 0x0f, 0x02,
   0x00, 0x00, 0x00, 0x07, 0x02, 0x00, 0x00, 0x00, 0x03, 0x00, 0x00, 0x00,
   0x00, 0x02, 0x00, 0x00, 0x00, 0x00, 0x02, 0x00, 0x00, 0x00, 0x00, 0x04,
   0x00, 0x00, 0x00, 0x00, 0x04, 0x00, 0x00, 0x00, 0x00, 0x08, 0x00, 0x00,
   0x00, 0x00, 0x08, 0x00, 0x00, 0x00, 0x00, 0x08, 0x00, 0x00, 0x00, 0x00,
   0x00, 0x00, 0x00, 0x00, 0x00, 0x00, 0x00, 0x00, 0x00, 0x00, 0x00, 0x00,
   0x00, 0x00, 0x00, 0x00, 0x00, 0x00};
