#define king.bm_width 64
#define king.bm_height 64
static char king.bm_bits[] = {
   0x88, 0x88, 0x88, 0x88, 0x00, 0x00, 0x00, 0x00, 0x44, 0x44, 0x44, 0x44,
   0x00, 0x00, 0x00, 0x00, 0x22, 0x22, 0x20, 0x22, 0x00, 0x00, 0x00, 0x00,
   0x11, 0x91, 0x11, 0x11, 0x00, 0x80, 0x01, 0x00, 0x88, 0x88, 0x81, 0x88,
   0x00, 0x80, 0x01, 0x00, 0x44, 0xe4, 0x47, 0x44, 0x00, 0xe0, 0x07, 0x00,
   0x22, 0x82, 0x21, 0x22, 0x00, 0x80, 0x01, 0x00, 0x11, 0x91, 0x11, 0x11,
   0x00, 0x80, 0x01, 0x00, 0x88, 0x88, 0x89, 0x88, 0x00, 0x80, 0x01, 0x00,
   0x44, 0x40, 0x02, 0x44, 0x00, 0x40, 0x02, 0x00, 0x22, 0x27, 0xe4, 0x20,
   0x00, 0x27, 0xe4, 0x00, 0x91, 0x28, 0x14, 0x11, 0x80, 0x28, 0x14, 0x01,
   0x48, 0x28, 0x14, 0x8a, 0x40, 0x28, 0x14, 0x02, 0x44, 0x30, 0x0c, 0x42,
   0x40, 0x30, 0x0c, 0x02, 0x62, 0x20, 0x04, 0x22, 0x40, 0x20, 0x04, 0x02,
   0x51, 0x40, 0x02, 0x12, 0x40, 0x40, 0x02, 0x02, 0x48, 0x40, 0x02, 0x8a,
   0x40, 0x40, 0x02, 0x02, 0xc4, 0x40, 0x02, 0x41, 0x80, 0x40, 0x02, 0x01,
   0xa2, 0x40, 0x02, 0x21, 0x80, 0x40, 0x02, 0x01, 0x11, 0x81, 0x81, 0x10,
   0x00, 0x81, 0x81, 0x00, 0x08, 0xe1, 0x8f, 0x88, 0x00, 0xe1, 0x87, 0x00,
   0x44, 0x1e, 0x78, 0x44, 0x00, 0x1e, 0x78, 0x00, 0x22, 0x02, 0x40, 0x22,
   0x00, 0x02, 0x40, 0x00, 0x11, 0x02, 0x40, 0x11, 0x00, 0x02, 0x40, 0x00,
   0x88, 0x02, 0x40, 0x88, 0x00, 0x02, 0x40, 0x00, 0x44, 0xfe, 0x7f, 0x44,
   0x00, 0xfe, 0x7f, 0x00, 0x22, 0x02, 0x40, 0x22, 0x00, 0x02, 0x40, 0x00,
   0x11, 0x1c, 0x30, 0x11, 0x00, 0x1c, 0x38, 0x00, 0x88, 0xe0, 0x8f, 0x88,
   0x00, 0xe0, 0x07, 0x00, 0x44, 0x04, 0x40, 0x44, 0x00, 0x00, 0x00, 0x00,
   0x22, 0x22, 0x22, 0x22, 0x00, 0x00, 0x00, 0x00, 0x11, 0x11, 0x11, 0x11,
   0x00, 0x00, 0x00, 0x00, 0x88, 0x88, 0x88, 0x88, 0x00, 0x00, 0x00, 0x00,
   0x44, 0x44, 0x44, 0x44, 0x00, 0x00, 0x00, 0x00, 0x22, 0x22, 0x22, 0x22,
   0x00, 0x00, 0x00, 0x00, 0x11, 0x91, 0x11, 0x11, 0x00, 0x80, 0x01, 0x00,
   0x88, 0x88, 0x81, 0x88, 0x00, 0x80, 0x01, 0x00, 0x44, 0xe4, 0x47, 0x44,
   0x00, 0xe0, 0x07, 0x00, 0x22, 0x82, 0x21, 0x22, 0x00, 0x80, 0x01, 0x00,
   0x11, 0x91, 0x11, 0x11, 0x00, 0x80, 0x01, 0x00, 0x88, 0x88, 0x89, 0x88,
   0x00, 0x80, 0x01, 0x00, 0x44, 0xc0, 0x07, 0x44, 0x00, 0xc0, 0x03, 0x00,
   0x22, 0xe7, 0xe7, 0x20, 0x00, 0xe7, 0xe7, 0x00, 0x91, 0xe8, 0x17, 0x11,
   0x80, 0xe8, 0x17, 0x01, 0x48, 0xeb, 0xd7, 0x8a, 0x40, 0xeb, 0xd7, 0x02,
   0x44, 0xf7, 0xef, 0x42, 0x40, 0xf7, 0xef, 0x02, 0x42, 0xef, 0xf7, 0x22,
   0x40, 0xef, 0xf7, 0x02, 0x51, 0xdf, 0xfb, 0x12, 0x40, 0xdf, 0xfb, 0x02,
   0x48, 0xdf, 0xfb, 0x8a, 0x40, 0xdf, 0xfb, 0x02, 0x84, 0xbe, 0x7d, 0x41,
   0x80, 0xbe, 0x7d, 0x01, 0xa2, 0xbe, 0x7d, 0x21, 0x80, 0xbe, 0x7d, 0x01,
   0x11, 0xbd, 0xbd, 0x10, 0x00, 0xbd, 0xbd, 0x00, 0x08, 0x89, 0xc9, 0x88,
   0x00, 0x81, 0xc1, 0x00, 0x44, 0xfe, 0x7f, 0x44, 0x00, 0xfe, 0x7f, 0x00,
   0x22, 0xfe, 0x7f, 0x22, 0x00, 0xfe, 0x7f, 0x00, 0x11, 0xfe, 0x7f, 0x11,
   0x00, 0xfe, 0x7f, 0x00, 0x88, 0xfe, 0x7f, 0x88, 0x00, 0xfe, 0x7f, 0x00,
   0x44, 0xfe, 0x7f, 0x44, 0x00, 0xfe, 0x7f, 0x00, 0x22, 0xfe, 0x7f, 0x22,
   0x00, 0xfe, 0x7f, 0x00, 0x11, 0xfc, 0x3f, 0x11, 0x00, 0xfc, 0x3f, 0x00,
   0x88, 0xe0, 0x87, 0x88, 0x00, 0xe0, 0x07, 0x00, 0x44, 0x04, 0x40, 0x44,
   0x00, 0x00, 0x00, 0x00, 0x22, 0x22, 0x22, 0x22, 0x00, 0x00, 0x00, 0x00,
   0x11, 0x11, 0x11, 0x11, 0x00, 0x00, 0x00, 0x00};
