#define line_width 32
#define line_height 32
static char line_bits[] = {
   0xff, 0xff, 0xff, 0xff, 0x01, 0x00, 0x00, 0x80, 0x01, 0x00, 0x00, 0x80,
   0x01, 0x00, 0x00, 0x80, 0x01, 0x00, 0x00, 0x80, 0x01, 0x00, 0x00, 0x80,
   0x01, 0x00, 0x00, 0x80, 0x01, 0x00, 0x00, 0x80, 0x01, 0x00, 0x00, 0x88,
   0x01, 0x00, 0x00, 0x86, 0x01, 0x00, 0x00, 0x81, 0x01, 0x00, 0xc0, 0x80,
   0x01, 0x00, 0x20, 0x80, 0x01, 0x00, 0x18, 0x80, 0x01, 0x00, 0x04, 0x80,
   0x01, 0x00, 0x03, 0x80, 0x01, 0xc0, 0x00, 0x80, 0x01, 0x20, 0x00, 0x80,
   0x01, 0x18, 0x00, 0x80, 0x01, 0x04, 0x00, 0x80, 0x01, 0x03, 0x00, 0x80,
   0x81, 0x00, 0x00, 0x80, 0x61, 0x00, 0x00, 0x80, 0x11, 0x00, 0x00, 0x80,
   0x01, 0x00, 0x00, 0x80, 0x01, 0x00, 0x00, 0x80, 0x01, 0x00, 0x00, 0x80,
   0x01, 0x00, 0x00, 0x80, 0x01, 0x00, 0x00, 0x80, 0x01, 0x00, 0x00, 0x80,
   0x01, 0x00, 0x00, 0x80, 0xff, 0xff, 0xff, 0xff};
