#define linking_width 32
#define linking_height 32
static char linking_bits[] = {
   0xff, 0xff, 0xff, 0xff, 0x01, 0x00, 0x00, 0x80, 0x01, 0x00, 0x00, 0x80,
   0x01, 0x00, 0x00, 0x80, 0xf1, 0x0f, 0x00, 0x80, 0x11, 0x08, 0x00, 0x80,
   0x11, 0x08, 0x00, 0x80, 0x11, 0x08, 0x00, 0x80, 0x11, 0x08, 0x00, 0x80,
   0x11, 0x08, 0x00, 0x80, 0x11, 0x08, 0x00, 0x80, 0x11, 0x1c, 0x00, 0x80,
   0x11, 0x1c, 0xf0, 0x8f, 0x11, 0x28, 0x10, 0x88, 0x11, 0x48, 0x10, 0x88,
   0x11, 0x88, 0x10, 0x88, 0x11, 0x08, 0x11, 0x88, 0x11, 0x08, 0x12, 0x88,
   0x11, 0x08, 0x14, 0x88, 0xf1, 0x0f, 0x38, 0x88, 0x01, 0x00, 0x38, 0x88,
   0x01, 0x00, 0x10, 0x88, 0x01, 0x00, 0x10, 0x88, 0x01, 0x00, 0x10, 0x88,
   0x01, 0x00, 0x10, 0x88, 0x01, 0x00, 0x10, 0x88, 0x01, 0x00, 0x10, 0x88,
   0x01, 0x00, 0x10, 0x88, 0x01, 0x00, 0xf0, 0x8f, 0x01, 0x00, 0x00, 0x80,
   0x01, 0x00, 0x00, 0x80, 0xff, 0xff, 0xff, 0xff};
