/* XPM */
static char * magnify_xpm[] = {
"32 32 11 1",
" 	c None",
".	c black",
"X	c #D75CD34CD75C",
"o	c #082004100820",
"O	c #8E388A288E38",
"+	c #0820596528A2",
"@	c #28A25D754924",
"#	c cyan",
"$	c #000000001040",
"%	c #000008200820",
"&	c #965896589658",
"                                ",
"                                ",
"         ......                 ",
"       ..XXXXXX..               ",
"  .   .XXXo...XXX.              ",
"   . .XX..    .oXX.             ",
"    .OXo   .. . .XX.            ",
"    .O.     .....oX.            ",
"   .OO..   ..+@+#.XX. .         ",
"   .O. ....@+@#+@+oX..          ",
"   .O$  ...#+###@#oX.+o.        ",
"   $O. ....##@#+##.X.@##.       ",
"   .O.  ...#+@+@+#.X.#..        ",
"   .O. ...%+@+#@+@oX..          ",
"   .OO..   %%###+%XX.           ",
"    $O.     ...o%%X.            ",
"    .OO.   .. . .OO.            ",
"   . $OO..    ..OO..            ",
"  .   .OOO....OOO$OX.           ",
"       .$OOOOOO$..OOX.          ",
"         .$..$.   .OOX.         ",
"                   $&OX.        ",
"                    .OOX.       ",
"                     $OOX.      ",
"                      .OOX.     ",
"                       $OOX.    ",
"                        .OOX.   ",
"                         $OO.   ",
"                          ..    ",
"                                ",
"                                ",
"                                "};
