#define main_link.bm_width 48
#define main_link.bm_height 32
static char main_link.bm_bits[] = {
   0xff, 0xff, 0xff, 0xff, 0xff, 0xff, 0x01, 0x00, 0x10, 0x00, 0x00, 0x80,
   0x01, 0x00, 0x08, 0x00, 0x00, 0x80, 0x01, 0x00, 0x0c, 0x00, 0x00, 0x80,
   0x01, 0x00, 0x3f, 0x00, 0x00, 0x80, 0x01, 0x80, 0x4c, 0x00, 0x00, 0x80,
   0x01, 0x80, 0x40, 0x00, 0x00, 0x80, 0x01, 0x80, 0x40, 0x00, 0x00, 0x80,
   0x01, 0x80, 0x40, 0x00, 0x00, 0x80, 0x01, 0x80, 0x40, 0x00, 0x00, 0x80,
   0x01, 0x80, 0x40, 0x00, 0x00, 0x80, 0x01, 0x80, 0x4c, 0x00, 0x00, 0x80,
   0x01, 0x00, 0x3f, 0x00, 0x00, 0x80, 0x01, 0x00, 0x0c, 0x00, 0x00, 0x80,
   0x01, 0x00, 0xfe, 0x01, 0x00, 0x80, 0x01, 0xe0, 0x01, 0xfe, 0x00, 0x80,
   0x01, 0x1c, 0x00, 0x80, 0x01, 0x80, 0x01, 0x06, 0x00, 0xe0, 0x07, 0x80,
   0x81, 0x1f, 0x00, 0x90, 0x09, 0x80, 0x41, 0x26, 0x00, 0x10, 0x08, 0x80,
   0x41, 0x20, 0x00, 0x10, 0x08, 0x80, 0x41, 0x20, 0x00, 0x10, 0x08, 0x80,
   0x41, 0x20, 0x00, 0x10, 0x08, 0x80, 0x41, 0x20, 0x00, 0x10, 0x08, 0x80,
   0x41, 0x20, 0x00, 0x90, 0x09, 0x8c, 0x41, 0x26, 0x00, 0xe0, 0x07, 0x8c,
   0x81, 0x1f, 0x00, 0x80, 0x01, 0xbf, 0x01, 0x06, 0x00, 0x00, 0x00, 0xbf,
   0x01, 0x05, 0x00, 0x00, 0x00, 0x8c, 0x81, 0x08, 0x00, 0x00, 0x00, 0x8c,
   0x01, 0x00, 0x00, 0x00, 0x00, 0x80, 0xff, 0xff, 0xff, 0xff, 0xff, 0xff};
