#define ms_up_arrow_width 9
#define ms_up_arrow_height 6
static unsigned char ms_up_arrow_bits[] = {
   0x00, 0x00, 0x10, 0x00, 0x38, 0x00, 0x7c, 0x00, 0xfe, 0x00, 0x00, 0x00};
