#define nosticky_width 16
#define nosticky_height 16
static char nosticky_bits[] = {
   0x00, 0x00, 0x00, 0x00, 0x00, 0x00, 0x00, 0x00, 0x00, 0x00, 0xe0, 0xff,
   0xe0, 0xff, 0x60, 0xc0, 0x60, 0xcf, 0x60, 0xc0, 0x60, 0xc0, 0x60, 0xdf,
   0x60, 0xc0, 0x60, 0xc0, 0xe0, 0xff, 0xe0, 0xff};
