#define ol_pulldown_width 9
#define ol_pulldown_height 8
static char ol_pulldown_bits[] = {
   0xff, 0x01, 0x82, 0x00, 0x82, 0x00, 0x44, 0x00, 0x44, 0x00, 0x28, 0x00,
   0x28, 0x00, 0x10, 0x00};
