#define on_marked.bm_width 16
#define on_marked.bm_height 16
static char on_marked.bm_bits[] = {
   0x00, 0x00, 0x00, 0x00, 0x00, 0x00, 0x00, 0x00, 0x00, 0x00, 0xe0, 0x03,
   0x10, 0x04, 0x08, 0x08, 0xc4, 0x11, 0xe4, 0x13, 0xe4, 0x13, 0xe4, 0x13,
   0xc4, 0x11, 0x08, 0x08, 0x10, 0x04, 0xe0, 0x03};
