#define on_toggle.bm_width 16
#define on_toggle.bm_height 16
static char on_toggle.bm_bits[] = {
   0x00, 0x00, 0x00, 0x00, 0x00, 0x00, 0x00, 0x00, 0x00, 0x00, 0x00, 0x00,
   0xf8, 0x1f, 0x18, 0x18, 0x28, 0x14, 0x48, 0x12, 0x88, 0x11, 0x88, 0x11,
   0x48, 0x12, 0x28, 0x14, 0x18, 0x18, 0xf8, 0x1f};
