#define other_link.bm_width 48
#define other_link.bm_height 32
static char other_link.bm_bits[] = {
   0xff, 0xff, 0xff, 0xff, 0xff, 0xff, 0x01, 0x00, 0x00, 0x00, 0x00, 0x80,
   0x01, 0x00, 0x00, 0x00, 0x00, 0x80, 0x01, 0xf0, 0x03, 0x00, 0x00, 0x80,
   0x01, 0x08, 0x04, 0x00, 0x00, 0x80, 0x01, 0x08, 0x04, 0x00, 0x00, 0x80,
   0x01, 0x08, 0x04, 0x00, 0x00, 0x80, 0x01, 0x1c, 0x0e, 0x00, 0x00, 0x80,
   0x01, 0x1c, 0x1e, 0x00, 0x00, 0x80, 0x01, 0x08, 0x24, 0x00, 0x00, 0x80,
   0x01, 0x08, 0x24, 0x00, 0x00, 0x80, 0x01, 0x08, 0x44, 0x00, 0x00, 0x80,
   0x01, 0xf0, 0x83, 0x00, 0x00, 0x80, 0x01, 0x00, 0x80, 0x00, 0x00, 0x80,
   0x01, 0x00, 0x00, 0xc1, 0x0f, 0x80, 0x01, 0x00, 0x00, 0x21, 0x10, 0x80,
   0x01, 0x00, 0x00, 0x22, 0x10, 0x80, 0xc1, 0x0f, 0x00, 0x24, 0x10, 0x80,
   0x21, 0x10, 0x00, 0x7c, 0x38, 0x80, 0x21, 0x10, 0xe0, 0x7b, 0x38, 0x80,
   0x21, 0x10, 0x1f, 0x20, 0x10, 0x80, 0x71, 0xf8, 0x00, 0x20, 0x10, 0x80,
   0x71, 0x38, 0x00, 0x20, 0x10, 0x80, 0x21, 0x10, 0x00, 0xc0, 0x0f, 0x80,
   0x21, 0x10, 0x00, 0x00, 0x00, 0x8c, 0x21, 0x10, 0x00, 0x00, 0x00, 0x8c,
   0xc1, 0x0f, 0x00, 0x00, 0x00, 0xbf, 0x01, 0x00, 0x00, 0x00, 0x00, 0xbf,
   0x01, 0x00, 0x00, 0x00, 0x00, 0x8c, 0x01, 0x00, 0x00, 0x00, 0x00, 0x8c,
   0x01, 0x00, 0x00, 0x00, 0x00, 0x80, 0xff, 0xff, 0xff, 0xff, 0xff, 0xff};
