#define paste.bm_width 16
#define paste.bm_height 16
static char paste.bm_bits[] = {
   0x10, 0x08, 0x10, 0x08, 0x20, 0x04, 0x20, 0x04, 0x40, 0x02, 0x40, 0x02,
   0x80, 0x01, 0x80, 0x01, 0x80, 0x01, 0x80, 0x01, 0x40, 0x02, 0x40, 0x02,
   0x38, 0x1c, 0x24, 0x24, 0x24, 0x24, 0x18, 0x18};
