#define pawn.bm_width 64
#define pawn.bm_height 64
static char pawn.bm_bits[] = {
   0x88, 0x88, 0x88, 0x88, 0x00, 0x00, 0x00, 0x00, 0x44, 0x44, 0x44, 0x44,
   0x00, 0x00, 0x00, 0x00, 0x22, 0x22, 0x22, 0x22, 0x00, 0x00, 0x00, 0x00,
   0x11, 0x11, 0x11, 0x11, 0x00, 0x00, 0x00, 0x00, 0x88, 0x88, 0x88, 0x88,
   0x00, 0x00, 0x00, 0x00, 0x44, 0x44, 0x44, 0x44, 0x00, 0x00, 0x00, 0x00,
   0x22, 0x22, 0x20, 0x22, 0x00, 0x00, 0x00, 0x00, 0x11, 0x91, 0x11, 0x11,
   0x00, 0x80, 0x01, 0x00, 0x88, 0x48, 0x82, 0x88, 0x00, 0x40, 0x02, 0x00,
   0x44, 0x24, 0x44, 0x44, 0x00, 0x20, 0x04, 0x00, 0x22, 0x22, 0x24, 0x22,
   0x00, 0x20, 0x04, 0x00, 0x11, 0x21, 0x14, 0x11, 0x00, 0x20, 0x04, 0x00,
   0x88, 0x48, 0x82, 0x88, 0x00, 0x40, 0x02, 0x00, 0x44, 0x24, 0x44, 0x44,
   0x00, 0x20, 0x04, 0x00, 0x22, 0x12, 0x28, 0x22, 0x00, 0x10, 0x08, 0x00,
   0x11, 0x11, 0x08, 0x11, 0x00, 0x10, 0x08, 0x00, 0x88, 0x10, 0x88, 0x88,
   0x00, 0x10, 0x08, 0x00, 0x44, 0x14, 0x48, 0x44, 0x00, 0x10, 0x08, 0x00,
   0x22, 0x22, 0x24, 0x22, 0x00, 0x20, 0x04, 0x00, 0x11, 0x21, 0x04, 0x11,
   0x00, 0x20, 0x04, 0x00, 0x88, 0x10, 0x88, 0x88, 0x00, 0x10, 0x08, 0x00,
   0x44, 0x08, 0x10, 0x44, 0x00, 0x08, 0x10, 0x00, 0x22, 0x04, 0x20, 0x22,
   0x00, 0x04, 0x20, 0x00, 0x11, 0x02, 0x40, 0x11, 0x00, 0x02, 0x40, 0x00,
   0x08, 0x02, 0x40, 0x88, 0x00, 0x02, 0x40, 0x00, 0x44, 0x01, 0x80, 0x44,
   0x00, 0x01, 0x80, 0x00, 0x22, 0x01, 0x80, 0x22, 0x00, 0x01, 0x80, 0x00,
   0x11, 0xff, 0xff, 0x10, 0x00, 0xff, 0xff, 0x00, 0x08, 0x00, 0x00, 0x88,
   0x00, 0x00, 0x00, 0x00, 0x44, 0x44, 0x44, 0x44, 0x00, 0x00, 0x00, 0x00,
   0x22, 0x22, 0x22, 0x22, 0x00, 0x00, 0x00, 0x00, 0x11, 0x11, 0x11, 0x11,
   0x00, 0x00, 0x00, 0x00, 0x88, 0x88, 0x88, 0x88, 0x00, 0x00, 0x00, 0x00,
   0x44, 0x44, 0x44, 0x44, 0x00, 0x00, 0x00, 0x00, 0x22, 0x22, 0x22, 0x22,
   0x00, 0x00, 0x00, 0x00, 0x11, 0x11, 0x11, 0x11, 0x00, 0x00, 0x00, 0x00,
   0x88, 0x88, 0x88, 0x88, 0x00, 0x00, 0x00, 0x00, 0x44, 0x44, 0x44, 0x44,
   0x00, 0x00, 0x00, 0x00, 0x22, 0x22, 0x20, 0x22, 0x00, 0x00, 0x00, 0x00,
   0x11, 0x91, 0x11, 0x11, 0x00, 0x80, 0x01, 0x00, 0x88, 0xc8, 0x83, 0x88,
   0x00, 0xc0, 0x03, 0x00, 0x44, 0xe4, 0x47, 0x44, 0x00, 0xe0, 0x07, 0x00,
   0x22, 0xe2, 0x27, 0x22, 0x00, 0xe0, 0x07, 0x00, 0x11, 0xe1, 0x17, 0x11,
   0x00, 0xe0, 0x07, 0x00, 0x88, 0xc8, 0x83, 0x88, 0x00, 0xc0, 0x03, 0x00,
   0x44, 0xe4, 0x47, 0x44, 0x00, 0xe0, 0x07, 0x00, 0x22, 0xf2, 0x2f, 0x22,
   0x00, 0xf0, 0x0f, 0x00, 0x11, 0xf1, 0x0f, 0x11, 0x00, 0xf0, 0x0f, 0x00,
   0x88, 0xf0, 0x8f, 0x88, 0x00, 0xf0, 0x0f, 0x00, 0x44, 0xf4, 0x4f, 0x44,
   0x00, 0xf0, 0x0f, 0x00, 0x22, 0xe2, 0x27, 0x22, 0x00, 0xe0, 0x07, 0x00,
   0x11, 0xe1, 0x07, 0x11, 0x00, 0xe0, 0x07, 0x00, 0x88, 0xf0, 0x8f, 0x88,
   0x00, 0xf0, 0x0f, 0x00, 0x44, 0xf8, 0x1f, 0x44, 0x00, 0xf8, 0x1f, 0x00,
   0x22, 0xfc, 0x3f, 0x22, 0x00, 0xfc, 0x3f, 0x00, 0x11, 0xfe, 0x7f, 0x10,
   0x00, 0xfe, 0x7f, 0x00, 0x08, 0xfe, 0xff, 0x88, 0x00, 0xfe, 0x7f, 0x00,
   0x44, 0xff, 0xff, 0x44, 0x00, 0xff, 0xff, 0x00, 0x22, 0xff, 0xff, 0x22,
   0x00, 0xff, 0xff, 0x00, 0x11, 0xff, 0xff, 0x10, 0x00, 0xff, 0xff, 0x00,
   0x08, 0x00, 0x00, 0x88, 0x00, 0x00, 0x00, 0x00, 0x44, 0x44, 0x44, 0x44,
   0x00, 0x00, 0x00, 0x00, 0x22, 0x22, 0x22, 0x22, 0x00, 0x00, 0x00, 0x00,
   0x11, 0x11, 0x11, 0x11, 0x00, 0x00, 0x00, 0x00};
