/* XPM */
static char * pin_xpm[] = {
"20 20 5 1",
" 	s None	c None",
".	c black",
"X	c white",
"o	c #c0c0c0",
"O	c #808080",
"                    ",
"                    ",
"                    ",
"                    ",
"                    ",
"        ..          ",
"        .X.    ..   ",
"        .oX....X.   ",
"        .oXOXXOX.   ",
"  OOOOOO.ooOooOo.   ",
"  .......oO.OO.o.   ",
"        .O.....O.   ",
"        .O.......   ",
"        ...    ..   ",
"        ..          ",
"                    ",
"                    ",
"                    ",
"                    ",
"                    "};
