/* XPM */
static char * pinned_xpm[] = {
"20 20 5 1",
" 	s None	c None",
".	c black",
"X	c white",
"o	c #c0c0c0",
"O	c #808080",
"                    ",
"                    ",
"                    ",
"                    ",
"          ....      ",
"        ..XXXX.     ",
"      ...XXoXoO.    ",
"      .X.XoXoXO.    ",
"     .XX.XXoXO..    ",
"     .XX.OoXOO..    ",
"     .OoO......     ",
"     .OOOOO....     ",
"      .OOO....      ",
"      .......       ",
"     .  ...         ",
"                    ",
"                    ",
"                    ",
"                    ",
"                    "};
