#define queen.bm_width 64
#define queen.bm_height 64
static char queen.bm_bits[] = {
   0x88, 0x88, 0x88, 0x88, 0x00, 0x00, 0x00, 0x00, 0x44, 0x44, 0x44, 0x44,
   0x00, 0x00, 0x00, 0x00, 0x22, 0x22, 0x22, 0x22, 0x00, 0x00, 0x00, 0x00,
   0x11, 0x11, 0x10, 0x11, 0x00, 0x00, 0x00, 0x00, 0x08, 0x88, 0x09, 0x88,
   0x00, 0x80, 0x01, 0x00, 0xc4, 0x44, 0x02, 0x43, 0xc0, 0x40, 0x02, 0x03,
   0x22, 0x41, 0xa2, 0x24, 0x20, 0x41, 0x82, 0x04, 0x21, 0x91, 0x91, 0x14,
   0x20, 0x81, 0x81, 0x04, 0xc8, 0x88, 0x09, 0x83, 0xc0, 0x80, 0x01, 0x03,
   0x44, 0x85, 0x85, 0x42, 0x40, 0x81, 0x81, 0x02, 0x42, 0x41, 0xa2, 0x22,
   0x40, 0x41, 0x82, 0x02, 0x51, 0x51, 0x92, 0x12, 0x40, 0x41, 0x82, 0x02,
   0x48, 0x42, 0x4a, 0x8a, 0x40, 0x42, 0x42, 0x02, 0x44, 0x44, 0x42, 0x42,
   0x40, 0x42, 0x42, 0x02, 0x82, 0x44, 0x22, 0x21, 0x80, 0x44, 0x22, 0x01,
   0x91, 0x44, 0x22, 0x11, 0x80, 0x44, 0x22, 0x01, 0x88, 0x2c, 0x24, 0x89,
   0x80, 0x24, 0x24, 0x01, 0x84, 0x28, 0x14, 0x45, 0x80, 0x28, 0x14, 0x01,
   0xa2, 0x28, 0x14, 0x21, 0x80, 0x28, 0x14, 0x01, 0x11, 0xfd, 0xbf, 0x10,
   0x00, 0xfd, 0xbf, 0x00, 0x08, 0x02, 0x40, 0x88, 0x00, 0x02, 0x40, 0x00,
   0x44, 0x02, 0x40, 0x44, 0x00, 0x02, 0x40, 0x00, 0x22, 0x02, 0x40, 0x22,
   0x00, 0x02, 0x40, 0x00, 0x11, 0xfe, 0x7f, 0x11, 0x00, 0xfe, 0x7f, 0x00,
   0x88, 0x02, 0x40, 0x88, 0x00, 0x02, 0x40, 0x00, 0x44, 0x02, 0x40, 0x44,
   0x00, 0x02, 0x40, 0x00, 0x22, 0xfe, 0x7f, 0x22, 0x00, 0xfe, 0x7f, 0x00,
   0x11, 0x02, 0x40, 0x11, 0x00, 0x02, 0x40, 0x00, 0x88, 0x1c, 0x38, 0x88,
   0x00, 0x1c, 0x38, 0x00, 0x44, 0xe0, 0x07, 0x44, 0x00, 0xe0, 0x07, 0x00,
   0x22, 0x02, 0x20, 0x22, 0x00, 0x00, 0x00, 0x00, 0x11, 0x11, 0x11, 0x11,
   0x00, 0x00, 0x00, 0x00, 0x88, 0x88, 0x88, 0x88, 0x00, 0x00, 0x00, 0x00,
   0x44, 0x44, 0x44, 0x44, 0x00, 0x00, 0x00, 0x00, 0x22, 0x22, 0x22, 0x22,
   0x00, 0x00, 0x00, 0x00, 0x11, 0x11, 0x10, 0x11, 0x00, 0x00, 0x00, 0x00,
   0x08, 0x88, 0x89, 0x88, 0x00, 0x80, 0x01, 0x00, 0xc4, 0xc4, 0x43, 0x43,
   0xc0, 0xc0, 0x03, 0x03, 0xe2, 0xc1, 0xa3, 0x27, 0xe0, 0xc1, 0x83, 0x07,
   0xe1, 0x91, 0x91, 0x17, 0xe0, 0x81, 0x81, 0x07, 0xc8, 0x88, 0x09, 0x83,
   0xc0, 0x80, 0x01, 0x03, 0xc4, 0x85, 0x81, 0x43, 0xc0, 0x81, 0x81, 0x03,
   0xc2, 0xc1, 0xa3, 0x23, 0xc0, 0xc1, 0x83, 0x03, 0xd1, 0xd1, 0x93, 0x13,
   0xc0, 0xc1, 0x83, 0x03, 0xc8, 0xcb, 0xcb, 0x8b, 0xc0, 0xc3, 0xc3, 0x03,
   0xc4, 0xc7, 0xc3, 0x43, 0xc0, 0xc3, 0xc3, 0x03, 0x82, 0xc7, 0xe3, 0x21,
   0x80, 0xc7, 0xe3, 0x01, 0x91, 0xc7, 0xe3, 0x11, 0x80, 0xc7, 0xe3, 0x01,
   0x88, 0xef, 0xe7, 0x89, 0x80, 0xe7, 0xe7, 0x01, 0x84, 0xef, 0xf7, 0x45,
   0x80, 0xef, 0xf7, 0x01, 0xa2, 0xef, 0xf7, 0x21, 0x80, 0xef, 0xf7, 0x01,
   0x11, 0xff, 0xff, 0x11, 0x00, 0xff, 0xff, 0x00, 0x08, 0xfe, 0xff, 0x88,
   0x00, 0xfe, 0x7f, 0x00, 0x44, 0x02, 0x40, 0x44, 0x00, 0x02, 0x40, 0x00,
   0x22, 0xfe, 0x7f, 0x22, 0x00, 0xfe, 0x7f, 0x00, 0x11, 0xfe, 0x7f, 0x11,
   0x00, 0xfe, 0x7f, 0x00, 0x88, 0xfe, 0x7f, 0x88, 0x00, 0xfe, 0x7f, 0x00,
   0x44, 0xfe, 0x7f, 0x44, 0x00, 0xfe, 0x7f, 0x00, 0x22, 0x02, 0x40, 0x22,
   0x00, 0x02, 0x40, 0x00, 0x11, 0xfe, 0x7f, 0x11, 0x00, 0xfe, 0x7f, 0x00,
   0x88, 0xfc, 0x3f, 0x88, 0x00, 0xfc, 0x3f, 0x00, 0x44, 0xe0, 0x07, 0x44,
   0x00, 0xe0, 0x07, 0x00, 0x22, 0x02, 0x20, 0x22, 0x00, 0x00, 0x00, 0x00,
   0x11, 0x11, 0x11, 0x11, 0x00, 0x00, 0x00, 0x00};
