#define right_arrow.bm_width 16
#define right_arrow.bm_height 16
static char right_arrow.bm_bits[] = {
   0x00, 0x00, 0x00, 0x00, 0x00, 0x00, 0x00, 0x08, 0x00, 0x18, 0x00, 0x38,
   0x00, 0x78, 0xff, 0xff, 0xff, 0xff, 0x00, 0x78, 0x00, 0x38, 0x00, 0x18,
   0x00, 0x08, 0x00, 0x00, 0x00, 0x00, 0x00, 0x00};
