#define rook.bm_width 64
#define rook.bm_height 64
static char rook.bm_bits[] = {
   0x88, 0x88, 0x88, 0x88, 0x00, 0x00, 0x00, 0x00, 0x44, 0x44, 0x44, 0x44,
   0x00, 0x00, 0x00, 0x00, 0x22, 0x22, 0x22, 0x22, 0x00, 0x00, 0x00, 0x00,
   0x11, 0x11, 0x11, 0x11, 0x00, 0x00, 0x00, 0x00, 0x88, 0x88, 0x88, 0x88,
   0x00, 0x00, 0x00, 0x00, 0x44, 0x44, 0x44, 0x44, 0x00, 0x00, 0x00, 0x00,
   0x22, 0x00, 0x00, 0x22, 0x00, 0x00, 0x00, 0x00, 0x11, 0xcf, 0xf3, 0x10,
   0x00, 0xcf, 0xf3, 0x00, 0x08, 0x49, 0x92, 0x88, 0x00, 0x49, 0x92, 0x00,
   0x44, 0x79, 0x9e, 0x44, 0x00, 0x79, 0x9e, 0x00, 0x22, 0x02, 0x40, 0x22,
   0x00, 0x02, 0x40, 0x00, 0x11, 0xfc, 0x3f, 0x11, 0x00, 0xfc, 0x3f, 0x00,
   0x88, 0x08, 0x90, 0x88, 0x00, 0x08, 0x10, 0x00, 0x44, 0x08, 0x50, 0x44,
   0x00, 0x08, 0x10, 0x00, 0x22, 0x0a, 0x10, 0x22, 0x00, 0x08, 0x10, 0x00,
   0x11, 0x09, 0x10, 0x11, 0x00, 0x08, 0x10, 0x00, 0x88, 0x08, 0x90, 0x88,
   0x00, 0x08, 0x10, 0x00, 0x44, 0x08, 0x50, 0x44, 0x00, 0x08, 0x10, 0x00,
   0x22, 0x0a, 0x10, 0x22, 0x00, 0x08, 0x10, 0x00, 0x11, 0x09, 0x10, 0x11,
   0x00, 0x08, 0x10, 0x00, 0x88, 0x08, 0x90, 0x88, 0x00, 0x08, 0x10, 0x00,
   0x44, 0xfc, 0x3f, 0x44, 0x00, 0xfc, 0x3f, 0x00, 0x22, 0x02, 0x40, 0x22,
   0x00, 0x02, 0x40, 0x00, 0x11, 0x01, 0x80, 0x10, 0x00, 0x01, 0x80, 0x00,
   0x08, 0xff, 0xff, 0x88, 0x00, 0xff, 0xff, 0x00, 0x44, 0x01, 0x80, 0x44,
   0x00, 0x01, 0x80, 0x00, 0x22, 0xff, 0xff, 0x22, 0x00, 0xff, 0xff, 0x00,
   0x11, 0x00, 0x00, 0x10, 0x00, 0x00, 0x00, 0x00, 0x88, 0x88, 0x88, 0x88,
   0x00, 0x00, 0x00, 0x00, 0x44, 0x44, 0x44, 0x44, 0x00, 0x00, 0x00, 0x00,
   0x22, 0x22, 0x22, 0x22, 0x00, 0x00, 0x00, 0x00, 0x11, 0x11, 0x11, 0x11,
   0x00, 0x00, 0x00, 0x00, 0x88, 0x88, 0x88, 0x88, 0x00, 0x00, 0x00, 0x00,
   0x44, 0x44, 0x44, 0x44, 0x00, 0x00, 0x00, 0x00, 0x22, 0x22, 0x22, 0x22,
   0x00, 0x00, 0x00, 0x00, 0x11, 0x11, 0x11, 0x11, 0x00, 0x00, 0x00, 0x00,
   0x88, 0x88, 0x88, 0x88, 0x00, 0x00, 0x00, 0x00, 0x44, 0x44, 0x44, 0x44,
   0x00, 0x00, 0x00, 0x00, 0x22, 0x00, 0x00, 0x22, 0x00, 0x00, 0x00, 0x00,
   0x11, 0xcf, 0xf3, 0x10, 0x00, 0xcf, 0xf3, 0x00, 0x08, 0xcf, 0xf3, 0x88,
   0x00, 0xcf, 0xf3, 0x00, 0x44, 0xff, 0xff, 0x44, 0x00, 0xff, 0xff, 0x00,
   0x22, 0xfe, 0x7f, 0x22, 0x00, 0xfe, 0x7f, 0x00, 0x11, 0xfc, 0x3f, 0x11,
   0x00, 0xfc, 0x3f, 0x00, 0x88, 0x08, 0x90, 0x88, 0x00, 0x08, 0x10, 0x00,
   0x44, 0xf8, 0x5f, 0x44, 0x00, 0xf8, 0x1f, 0x00, 0x22, 0xfa, 0x1f, 0x22,
   0x00, 0xf8, 0x1f, 0x00, 0x11, 0xf9, 0x1f, 0x11, 0x00, 0xf8, 0x1f, 0x00,
   0x88, 0xf8, 0x9f, 0x88, 0x00, 0xf8, 0x1f, 0x00, 0x44, 0xf8, 0x5f, 0x44,
   0x00, 0xf8, 0x1f, 0x00, 0x22, 0xfa, 0x1f, 0x22, 0x00, 0xf8, 0x1f, 0x00,
   0x11, 0xf9, 0x1f, 0x11, 0x00, 0xf8, 0x1f, 0x00, 0x88, 0xf8, 0x9f, 0x88,
   0x00, 0xf8, 0x1f, 0x00, 0x44, 0xfc, 0x3f, 0x44, 0x00, 0xfc, 0x3f, 0x00,
   0x22, 0x06, 0x60, 0x22, 0x00, 0x06, 0x60, 0x00, 0x11, 0xff, 0xff, 0x10,
   0x00, 0xff, 0xff, 0x00, 0x08, 0xff, 0xff, 0x88, 0x00, 0xff, 0xff, 0x00,
   0x44, 0xff, 0xff, 0x44, 0x00, 0xff, 0xff, 0x00, 0x22, 0xff, 0xff, 0x22,
   0x00, 0xff, 0xff, 0x00, 0x11, 0x00, 0x00, 0x10, 0x00, 0x00, 0x00, 0x00,
   0x88, 0x88, 0x88, 0x88, 0x00, 0x00, 0x00, 0x00, 0x44, 0x44, 0x44, 0x44,
   0x00, 0x00, 0x00, 0x00, 0x22, 0x22, 0x22, 0x22, 0x00, 0x00, 0x00, 0x00,
   0x11, 0x11, 0x11, 0x11, 0x00, 0x00, 0x00, 0x00};
