#define select.bm_width 48
#define select.bm_height 32
static char select.bm_bits[] = {
   0xff, 0xff, 0xff, 0xff, 0xff, 0xff, 0x01, 0x00, 0x00, 0x00, 0x00, 0x80,
   0x01, 0x00, 0x00, 0x00, 0x00, 0x80, 0x01, 0x00, 0x00, 0x00, 0x00, 0x80,
   0x01, 0x00, 0x00, 0x00, 0x00, 0x80, 0x01, 0x00, 0x00, 0x00, 0x00, 0x80,
   0x01, 0x00, 0x00, 0x00, 0x00, 0x80, 0x01, 0xc0, 0x00, 0x00, 0x00, 0x80,
   0x01, 0xc0, 0x03, 0x00, 0x00, 0x80, 0x01, 0x80, 0x0f, 0x00, 0x00, 0x80,
   0x01, 0x80, 0x3f, 0x00, 0x00, 0x80, 0x01, 0x00, 0xff, 0x00, 0x00, 0x80,
   0x01, 0x00, 0xff, 0x03, 0x00, 0x80, 0x01, 0x00, 0xfe, 0x07, 0x00, 0x80,
   0x01, 0x00, 0xfe, 0x00, 0x00, 0x80, 0x01, 0x00, 0x7c, 0x00, 0x00, 0x80,
   0x01, 0x00, 0xbc, 0x00, 0x00, 0x80, 0x01, 0x00, 0x18, 0x01, 0x00, 0x80,
   0x01, 0x00, 0x18, 0x02, 0x00, 0x80, 0x01, 0x00, 0x10, 0x04, 0x00, 0x80,
   0x01, 0x00, 0x00, 0x08, 0x00, 0x80, 0x01, 0x00, 0x00, 0x10, 0x00, 0x80,
   0x01, 0x00, 0x00, 0x20, 0x00, 0x80, 0x01, 0x00, 0x00, 0x40, 0x00, 0x80,
   0x01, 0x00, 0x00, 0x80, 0x00, 0x80, 0x01, 0x00, 0x00, 0x00, 0x01, 0x80,
   0x01, 0x00, 0x00, 0x00, 0x00, 0x80, 0x01, 0x00, 0x00, 0x00, 0x00, 0x80,
   0x01, 0x00, 0x00, 0x00, 0x00, 0x80, 0x01, 0x00, 0x00, 0x00, 0x00, 0x80,
   0x01, 0x00, 0x00, 0x00, 0x00, 0x80, 0xff, 0xff, 0xff, 0xff, 0xff, 0xff};
