#define selecting_width 32
#define selecting_height 32
static char selecting_bits[] = {
   0xff, 0xff, 0xff, 0xff, 0x01, 0x00, 0x00, 0x80, 0x01, 0x00, 0x00, 0x80,
   0x19, 0x00, 0x00, 0x80, 0x99, 0x24, 0x49, 0x80, 0x11, 0x00, 0x00, 0x80,
   0x01, 0x00, 0x80, 0x80, 0x01, 0x00, 0x00, 0x80, 0x91, 0x61, 0x18, 0x80,
   0x81, 0xff, 0x9f, 0x80, 0x01, 0x01, 0x08, 0x80, 0x11, 0x01, 0x08, 0x80,
   0x81, 0x01, 0x98, 0x80, 0x81, 0x01, 0x18, 0x80, 0x11, 0x01, 0x08, 0x80,
   0x01, 0x01, 0x88, 0x80, 0x01, 0x01, 0x08, 0x80, 0x91, 0xff, 0x1f, 0x80,
   0x81, 0x61, 0x98, 0x80, 0x01, 0x00, 0x00, 0x80, 0x11, 0x00, 0x00, 0x80,
   0x01, 0x00, 0x80, 0x80, 0x01, 0x00, 0x00, 0x80, 0x91, 0x24, 0x49, 0x80,
   0x01, 0x00, 0x00, 0x87, 0x01, 0x00, 0x00, 0x83, 0x01, 0x00, 0x00, 0x85,
   0x01, 0x00, 0x00, 0x88, 0x01, 0x00, 0x00, 0x80, 0x01, 0x00, 0x00, 0x80,
   0x01, 0x00, 0x00, 0x80, 0xff, 0xff, 0xff, 0xff};
