#define textedit.bm_width 64
#define textedit.bm_height 64
static char textedit.bm_bits[] = {
   0xff, 0xff, 0xff, 0xff, 0xff, 0xff, 0x1f, 0x39, 0xff, 0xff, 0xff, 0xff,
   0xff, 0xff, 0x1f, 0x45, 0x03, 0x00, 0x00, 0x00, 0x00, 0x00, 0x58, 0x86,
   0x03, 0x00, 0x00, 0x00, 0x00, 0x00, 0x58, 0x89, 0x03, 0x00, 0x00, 0x00,
   0x00, 0x00, 0x98, 0x91, 0x03, 0x00, 0x00, 0x00, 0x00, 0x00, 0x58, 0x62,
   0x03, 0x00, 0x00, 0x00, 0x00, 0x00, 0x78, 0x64, 0x03, 0x00, 0x00, 0x00,
   0x00, 0x00, 0xd8, 0x58, 0x03, 0xc0, 0xf0, 0x7b, 0x00, 0x00, 0x28, 0x19,
   0x03, 0xc0, 0xf1, 0xff, 0x00, 0x00, 0x94, 0x16, 0x03, 0x00, 0x00, 0x00,
   0x00, 0x00, 0x4a, 0x46, 0x03, 0x00, 0x00, 0x00, 0x00, 0x00, 0x25, 0x45,
   0x03, 0x00, 0x00, 0x00, 0x00, 0x80, 0x92, 0x11, 0x03, 0x00, 0x00, 0x00,
   0x00, 0x40, 0x49, 0x11, 0x03, 0x00, 0x00, 0x00, 0x00, 0xa0, 0x64, 0x44,
   0x03, 0x67, 0xf7, 0xf3, 0x9e, 0x5f, 0x52, 0x44, 0x03, 0xef, 0xf7, 0xf7,
   0xbf, 0x2f, 0x19, 0x11, 0x03, 0x00, 0x00, 0x00, 0x00, 0x94, 0x1c, 0x11,
   0x03, 0x00, 0x00, 0x00, 0x00, 0x4a, 0x5a, 0x44, 0xe3, 0x9d, 0xf7, 0xb9,
   0xb9, 0x25, 0x59, 0x44, 0xe3, 0xbf, 0xff, 0xfb, 0xfb, 0x92, 0x18, 0x11,
   0x03, 0x00, 0x00, 0x00, 0x40, 0x49, 0x18, 0x11, 0x03, 0x00, 0x00, 0x00,
   0xa0, 0x24, 0x58, 0x44, 0xe3, 0xfc, 0x3c, 0x37, 0x5f, 0x12, 0x58, 0x44,
   0xe3, 0xfd, 0x7d, 0x7f, 0x2f, 0x09, 0x18, 0x11, 0x03, 0x00, 0x00, 0x00,
   0x94, 0x04, 0x18, 0x11, 0x03, 0x00, 0x00, 0x00, 0x4a, 0x02, 0x58, 0x44,
   0x63, 0xe7, 0xe6, 0xe7, 0x25, 0x07, 0x58, 0x44, 0xe3, 0xef, 0xef, 0xef,
   0x92, 0x0f, 0x18, 0x11, 0x03, 0x00, 0x00, 0x40, 0x49, 0x00, 0x18, 0x11,
   0x03, 0x00, 0x00, 0xa0, 0x24, 0x00, 0x58, 0x44, 0xe3, 0xb9, 0x99, 0x57,
   0xf2, 0x00, 0x58, 0x44, 0xe3, 0xfb, 0xbb, 0x2f, 0xf9, 0x01, 0x18, 0x11,
   0x03, 0x00, 0x00, 0x94, 0x04, 0x00, 0x18, 0x11, 0x03, 0x00, 0x00, 0x4a,
   0x02, 0x00, 0x58, 0x44, 0xe3, 0x1c, 0x00, 0x27, 0x01, 0x00, 0x58, 0x44,
   0xe3, 0x3d, 0x80, 0x94, 0x00, 0x00, 0x18, 0x11, 0x03, 0x00, 0x80, 0x48,
   0x00, 0x00, 0x18, 0x11, 0x03, 0x00, 0x40, 0x30, 0x00, 0x00, 0x58, 0x44,
   0x03, 0x00, 0x40, 0x18, 0x00, 0x00, 0x58, 0x44, 0x03, 0x00, 0x60, 0x06,
   0x00, 0x00, 0x18, 0x11, 0x03, 0x00, 0xe0, 0x01, 0x00, 0x00, 0x18, 0x11,
   0x03, 0x00, 0x70, 0x00, 0x00, 0x00, 0x58, 0x44, 0x03, 0x00, 0x10, 0x00,
   0x00, 0x00, 0x58, 0x44, 0x03, 0x00, 0x00, 0x00, 0x00, 0x00, 0x18, 0x11,
   0x03, 0x00, 0x00, 0x00, 0x00, 0x00, 0x18, 0x11, 0x03, 0x00, 0x00, 0x00,
   0x00, 0x00, 0x58, 0x44, 0x03, 0x00, 0x00, 0x00, 0x00, 0x00, 0x58, 0x44,
   0x03, 0x00, 0x00, 0x00, 0x00, 0x00, 0x18, 0x11, 0x03, 0x00, 0x00, 0x00,
   0x00, 0x00, 0x18, 0x11, 0x03, 0x00, 0x00, 0x00, 0x00, 0x00, 0x58, 0x44,
   0x03, 0x00, 0x00, 0x00, 0x00, 0x00, 0x58, 0x44, 0x03, 0x00, 0x00, 0x00,
   0x00, 0x00, 0x18, 0x11, 0x03, 0x00, 0x00, 0x00, 0x00, 0x00, 0x18, 0x11,
   0x03, 0x00, 0x00, 0x00, 0x00, 0x00, 0x58, 0x44, 0x03, 0x00, 0x00, 0x00,
   0x00, 0x00, 0x58, 0x44, 0x03, 0x00, 0x00, 0x00, 0x00, 0x00, 0x18, 0x11,
   0x03, 0x00, 0x00, 0x00, 0x00, 0x00, 0x18, 0x11, 0x03, 0x00, 0x00, 0x00,
   0x00, 0x00, 0x58, 0x44, 0x03, 0x00, 0x00, 0x00, 0x00, 0x00, 0x58, 0x44,
   0x03, 0x00, 0x00, 0x00, 0x00, 0x00, 0x18, 0x11, 0x03, 0x00, 0x00, 0x00,
   0x00, 0x00, 0x18, 0x11, 0xff, 0xff, 0xff, 0xff, 0xff, 0xff, 0x5f, 0x44,
   0xff, 0xff, 0xff, 0xff, 0xff, 0xff, 0x5f, 0x44};
