#define thermo.bm_width 64
#define thermo.bm_height 64
static char thermo.bm_bits[] = {
   0x00, 0x00, 0x00, 0x00, 0x00, 0x00, 0x00, 0x00, 0x00, 0x00, 0x00, 0x00,
   0x00, 0x00, 0x00, 0x00, 0x00, 0x00, 0x00, 0x00, 0x00, 0x00, 0x00, 0x00,
   0x00, 0x00, 0x00, 0x00, 0x00, 0x00, 0x00, 0x00, 0x00, 0x00, 0x00, 0xc0,
   0x07, 0x00, 0x00, 0x00, 0x00, 0x00, 0x00, 0x30, 0x18, 0x00, 0x00, 0x00,
   0x00, 0x00, 0x00, 0x08, 0x20, 0x00, 0x00, 0x00, 0x00, 0x00, 0x00, 0x04,
   0x40, 0x00, 0x00, 0x00, 0x00, 0x00, 0x00, 0xe4, 0x4f, 0x00, 0x00, 0x00,
   0x00, 0x00, 0x00, 0x22, 0x88, 0x00, 0x00, 0x00, 0x00, 0x00, 0x00, 0x22,
   0x88, 0x00, 0x00, 0x00, 0x00, 0x00, 0x00, 0x22, 0x88, 0x00, 0x00, 0x00,
   0x00, 0x00, 0x00, 0x22, 0x88, 0x00, 0x00, 0x00, 0x00, 0x00, 0x00, 0x22,
   0x88, 0x00, 0x00, 0x00, 0x00, 0x00, 0x00, 0x22, 0x88, 0x00, 0x00, 0x00,
   0x00, 0x00, 0x00, 0x22, 0x88, 0x00, 0x00, 0x00, 0x00, 0x00, 0x00, 0x22,
   0x88, 0x00, 0x00, 0x00, 0x00, 0x00, 0x00, 0x22, 0x88, 0x00, 0x00, 0x00,
   0x00, 0x00, 0x00, 0x22, 0x88, 0x00, 0x00, 0x00, 0x00, 0x00, 0x00, 0x22,
   0x88, 0x00, 0x00, 0x00, 0x00, 0x00, 0x00, 0x22, 0x88, 0x00, 0x00, 0x00,
   0x00, 0x00, 0x00, 0x22, 0x88, 0x00, 0x00, 0x00, 0x00, 0x00, 0x00, 0x22,
   0x88, 0x00, 0x00, 0x00, 0x00, 0x00, 0x00, 0x22, 0x88, 0x00, 0x00, 0x00,
   0x00, 0x00, 0x00, 0x22, 0x88, 0x00, 0x00, 0x00, 0x00, 0x00, 0x00, 0x22,
   0x88, 0x00, 0x00, 0x00, 0x00, 0x00, 0x00, 0x22, 0x88, 0x00, 0x00, 0x00,
   0x00, 0x00, 0x00, 0x22, 0x88, 0x00, 0x00, 0x00, 0x00, 0x00, 0x00, 0x22,
   0x88, 0x00, 0x00, 0x00, 0x00, 0x00, 0x00, 0x22, 0x88, 0x00, 0x00, 0x00,
   0x00, 0x00, 0x00, 0x22, 0x88, 0x00, 0x00, 0x00, 0x00, 0x00, 0x00, 0x22,
   0x88, 0x00, 0x00, 0x00, 0x00, 0x00, 0x00, 0x22, 0x88, 0x00, 0x00, 0x00,
   0x00, 0x00, 0x00, 0x22, 0x88, 0x00, 0x00, 0x00, 0x00, 0x00, 0x00, 0x22,
   0x88, 0x00, 0x00, 0x00, 0x00, 0x00, 0x00, 0x22, 0x88, 0x00, 0x00, 0x00,
   0x00, 0x00, 0x00, 0x22, 0x88, 0x00, 0x00, 0x00, 0x00, 0x00, 0x00, 0x22,
   0x88, 0x00, 0x00, 0x00, 0x00, 0x00, 0x00, 0x22, 0x88, 0x00, 0x00, 0x00,
   0x00, 0x00, 0x00, 0x22, 0x88, 0x00, 0x00, 0x00, 0x00, 0x00, 0x00, 0x22,
   0x88, 0x00, 0x00, 0x00, 0x00, 0x00, 0x00, 0xe2, 0x8f, 0x00, 0x00, 0x00,
   0x00, 0x00, 0x00, 0xe4, 0x4f, 0x00, 0x00, 0x00, 0x00, 0x00, 0x00, 0xc4,
   0x47, 0x00, 0x00, 0x00, 0x00, 0x00, 0x00, 0xc8, 0x27, 0x00, 0x00, 0x00,
   0x00, 0x00, 0x00, 0x90, 0x13, 0x00, 0x00, 0x00, 0x00, 0x00, 0x00, 0x20,
   0x09, 0x00, 0x00, 0x00, 0x00, 0x00, 0x00, 0x90, 0x13, 0x00, 0x00, 0x00,
   0x00, 0x00, 0x00, 0xc8, 0x27, 0x00, 0x00, 0x00, 0x00, 0x00, 0x00, 0xe4,
   0x4f, 0x00, 0x00, 0x00, 0x00, 0x00, 0x00, 0xf4, 0x5f, 0x00, 0x00, 0x00,
   0x00, 0x00, 0x00, 0xf4, 0x5f, 0x00, 0x00, 0x00, 0x00, 0x00, 0x00, 0xf4,
   0x5f, 0x00, 0x00, 0x00, 0x00, 0x00, 0x00, 0xe4, 0x4f, 0x00, 0x00, 0x00,
   0x00, 0x00, 0x00, 0xc8, 0x27, 0x00, 0x00, 0x00, 0x00, 0x00, 0x00, 0x90,
   0x13, 0x00, 0x00, 0x00, 0x00, 0x00, 0x00, 0x20, 0x08, 0x00, 0x00, 0x00,
   0x00, 0x00, 0x00, 0xc0, 0x07, 0x00, 0x00, 0x00, 0x00, 0x00, 0x00, 0x00,
   0x00, 0x00, 0x00, 0x00, 0x00, 0x00, 0x00, 0x00, 0x00, 0x00, 0x00, 0x00,
   0x00, 0x00, 0x00, 0x00, 0x00, 0x00, 0x00, 0x00, 0x00, 0x00, 0x00, 0x00,
   0x00, 0x00, 0x00, 0x00, 0x00, 0x00, 0x00, 0x00, 0x00, 0x00, 0x00, 0x00,
   0x00, 0x00, 0x00, 0x00, 0x00, 0x00, 0x00, 0x00};
