#define toggle_on.bm_width 16
#define toggle_on.bm_height 16
static char toggle_on.bm_bits[] = {
   0x00, 0x00, 0x00, 0x00, 0x00, 0x00, 0x00, 0x30, 0x00, 0x38, 0x00, 0x18,
   0x00, 0x0c, 0x00, 0x0e, 0x01, 0x06, 0x03, 0x07, 0x07, 0x03, 0x8e, 0x01,
   0xdc, 0x01, 0xf8, 0x00, 0x70, 0x00, 0x20, 0x00};
