#define typing.bm_width 16
#define typing.bm_height 16
static char typing.bm_bits[] = {
   0x80, 0x00, 0x80, 0x00, 0x80, 0x00, 0x80, 0x00, 0x80, 0x00, 0x80, 0x00,
   0x80, 0x00, 0x80, 0x00, 0x80, 0x00, 0x80, 0x00, 0x80, 0x00, 0x80, 0x00,
   0x80, 0x00, 0xc0, 0x01, 0xe0, 0x03, 0xf0, 0x07};
