/* XPM */
static char * books_xpm[] = {
"32 32 7 1",
" 	c None",
".	c black",
"X	c magenta",
"o	c #727277778585",
"O	c gray",
"+	c red",
"@	c blue",
"               ..               ",
"             ..XX.              ",
"           ..XXXXX.             ",
"         ..XXXXXXXX.            ",
"       ..XXXXXXXXXXX.           ",
"     ..XXXXXXXXXXXXXX.          ",
"   ..XXXXXXXXXXXXXXXXX.         ",
"  .o.XXXXXXXXXXXXXXXXXX.        ",
"  .Xo.XXXXXXXXXXXXXXXXXX.       ",
"  .XXo.XXXXXXXXXXXXXXXXXX.      ",
"  .XXXo.XXXXXXXXXXXXXXXXX..     ",
"   .XXXo.XXXXXXXXXXXXXX...      ",
"    .XXXo.XXXXXXXXXXX..OO..     ",
"     .XXXo.XXXXXXXX..OOOO.+.    ",
"     ..XXXo.XXXXX..OOOOoo..+.   ",
"     .+.XXXo.XX..OOOOoo..+++..  ",
"      .+.XXXo..OOOOoo..+++...   ",
"     ...+.XX.OOOOoo..+++..OO.   ",
"    .o.@.+.X.OOoo..+++..OOOO.   ",
"    .@o.@.+..oo..+++..OOOOoo..  ",
"    .@@o.@.+....++..OOOOoo..    ",
"    .@@@o.@.+++o..OOOOoo..@..   ",
"     .@@@o.@.++.OOOOoo..@...    ",
"      .@@@o.@.+.OOoo..@..OO.    ",
"       .@@@o.@..oo..@..OOOO.    ",
"        .@@@o.@...@..OOOOoo..   ",
"         .@@@o.@@..OOOOoo..     ",
"          .@@@o..OOOOoo..       ",
"           .@@.OOOOoo..         ",
"            .@.OOoo..           ",
"             ..oo..             ",
"              ...               "};
