/* XPM */
static char * x_xpm[] = {
"32 32 58 1",
" 	c None",
".	c #4E2204",
"+	c #662E04",
"@	c #DA8E4C",
"#	c #F6C2A4",
"$	c #D69E7C",
"%	c #000808",
"&	c #000000",
"*	c #EE9A54",
"=	c #EEAE7C",
"-	c #F6A254",
";	c #FEE2D4",
">	c #FFFFFF",
",	c #7A3604",
"'	c #FEAA5C",
")	c #F6B684",
"!	c #FEDEAC",
"~	c #EA6E04",
"{	c #B6AEB6",
"]	c #BEB6BE",
"^	c #FEBA84",
"/	c #EE7204",
"(	c #CE7244",
"_	c #B6826C",
":	c #FA7A04",
"<	c #9A4604",
"[	c #AEAEAE",
"}	c #FA7E04",
"|	c #FE8204",
"1	c #79869E",
"2	c #5155FF",
"3	c #F27604",
"4	c #F67A04",
"5	c #FABE84",
"6	c #FF00FF",
"7	c #6A2E04",
"8	c #FEDACC",
"9	c #B6766C",
"0	c #FACEB4",
"a	c #EE8A34",
"b	c #E66A04",
"c	c #562A04",
"d	c #6E3E24",
"e	c #BE7E64",
"f	c #8E6254",
"g	c #5A320C",
"h	c #FAD6C4",
"i	c #EEBEA4",
"j	c #D2926C",
"k	c #B66E54",
"l	c #925A3C",
"m	c #8A5644",
"n	c #7A4A3C",
"o	c #B69284",
"p	c #565654",
"q	c #827A64",
"r	c #4E4A3C",
"s	c #6A4A44",
"                                ",
"                         ...    ",
"                        +@#$.   ",
"      %&&&&&&&%&&&%    +*=-;#.  ",
"     &>>>>>>>>>>>>&&&&,')!~-;$. ",
"     &>{]{]{]{>>>>&>>,'^!/~~(_. ",
"     &>>>>>>>>>>>>&>,'^!::/<+.  ",
"     &>{][][]>>>>>&<'^!}|:<,.   ",
"     &>>>>>>>>>>>><'^!|}}<,.    ",
"     &>{]{]{][>{><'^!||}<,.     ",
"     &>>>>>>>>>><'^!|||<,.      ",
"     &>>1&>>>1&<'^!||}<,.       ",
"   &&&>{&>>>{&<'^!}}}<,.&&&&&   ",
"  &&2&&&&1&&&<'^!}}|<,.>>&&     ",
"  &2&>{1&>{{<'^!3}}<,.&&&       ",
"  &2&&&&&1&<*)!344<,.2&&        ",
"  &&2&>{&><@=5///<,.&6&>&       ",
"   &&>>>17#8-~~/<,.&&&>>>&      ",
"    &>{>>9;0ab~<,c>&>&>&&&&     ",
"    &>{>d80#$efg.&>&>>&         ",
"   &>>>>9hijklm.&>>&>>&&&&&&    ",
"   &>{>dh0jkln7>&>>&>>>&  &2&   ",
"   &>>>9ojkndp>>&>>&&&&& &2&    ",
"   &&&&qrsd&&&&&>>>&2&  &2&     ",
"    &2&>>>>>>>>>>>>&2& &2&      ",
"    &2&&&&&&&&&&&&&&2&&2&       ",
"    & 2&           & 22&        ",
"     &&             &&&         ",
"                                ",
"                                ",
"                                ",
"                                "};
