/* XPM */
static char * debugsettings_xpm[] = {
"32 32 32 1",
" 	c None",
".	c red",
"X	c black",
"o	c #B22222",
"O	c #CD3232",
"+	c #323232",
"@	c #9B0000",
"#	c #E64B4B",
"$	c #4B4B4B",
"%	c #646464",
"&	c #6C1414",
"*	c #B75F5F",
"=	c #FF6464",
"-	c #9E4646",
";	c #708090",
":	c #CD3200",
">	c #808080",
",	c #FF6400",
"<	c #646400",
"1	c white",
"2	c #9E4614",
"3	c yellow",
"4	c #768089",
"5	c #8F99A2",
"6	c #D07878",
"7	c #808000",
"8	c #444D57",
"9	c #323200",
"0	c #A8B1BB",
"q	c #768057",
"w	c #A8B157",
"e	c #C0C0C0",
"                                ",
"           .......              ",
"        ........XXX..           ",
"       .oXXXXX...XXX..          ",
"      o......XX........         ",
"     o........XXX.......        ",
"    o........X..XX....XX.       ",
"    .XX.....XXX..XX...XXo       ",
"   ooXXXOOOO+++OOO++OOO+@o      ",
"   ..XXXO####$#####$###O@o      ",
"   oo.XXO###OOOOOOO%$##O&.      ",
"  oo.o.oO*##O@@@@@#=$##O@o      ",
"  ooooo.O##$+@===##=$$#O&.      ",
"  ooo..oO#$$+X==#@#=#$$O&X      ",
"  ooooo.-#*$+@@#@=#OOO+O@XX     ",
" ;;ooo.oO###O@=@==O===$@XXX     ",
" ;;X.oo.O*##O@::##OOOOOXXX+>    ",
" ;X;;;.o-##*=:,=@@O=*O+XX@<1X   ",
";;X;;;;XO*##*:=,=2O=*++X:,%3X   ",
";;;;;;X;455*#&:6,=-6$++X<%<7X   ",
"    ;;X;455$489008405++XX<078   ",
"   ;  ;;459qqq<08140544808w1XXX ",
"        459w1w%w0X4154488w1w131X",
"     ;  >eX77qq131XXXX8X313X777X",
"        >e8777X7031303131w7X777X",
"        >eX77X313XX7317XX131X77X",
"        >eeXX773X77713X77717XXX ",
"        XXXXX73X777731X77777XX  ",
"             73X7XX777XXX777X   ",
"             73XX  777X  X77X   ",
"              XX   X77X   XX    ",
"                   XXXX         "};
