/* XPM */
static char * doc_x_xpm[] = {
/* width height ncolors chars_per_pixel */
"32 32 10 1",
/* colors */
" 	c None",
".	c black",
"X	c #800000",
"o	c #808080",
"O	c #C0C0C0",
"+	c white",
"@	c #808000",
"#	c yellow",
"$	c red",
"%	c #000080",
/* pixels */
"           ..                XoO",
"           .O..             XOOO",
"           .++O...         XOOO@",
"          .O#+#OOo....    XOOO#$",
"          .#+#+#+#+#Oo...@OOO#$$",
"         .O+#+#+#+#+#+#O@OOO#$$@",
"         .+#+#+#+#+#+#+@OOO#$$@X",
"         .#+#+#+#+#+#+@OOO#$$@XX",
"        .O+#+#+#+#+#+@OOO#$$@XX ",
"        .+#+#+#+#+#+@OOO#$$@XX. ",
"       .O#+#+#+#+#+@OOO#$$@XX.  ",
"       .#+#+#+#+#+@OOO#$$@XXO.  ",
"      .O+#+#+#+#+@OOO#$$@XXO#.  ",
"      .+#+#+#+#+@OOO#$$@XX+O@.  ",
"     .+#+#+#+#+@O+O#$$@XX+#O@.  ",
"    .O#+#+#+#+@%+O#$$@XX+#+O.   ",
"    .#+#+#+#+#%%O#$$@XX+#+##.   ",
"   .O+#+#+#+#%%OOoo@XX+$+$O@.   ",
"  .O+#+#+#+#+XOOoooXX+#+#+O@.   ",
"  .+#+#+#+#+#oooo@XX+$+$+$o.    ",
" .O#+#+#+#+#+o@XX##+#+#+#O@..   ",
".O++#+#+#+#+#+#+#$#$+$+$+O@.... ",
"@O+#+#+#+#+#+#+$+#++#+$++O..... ",
"..oOO+#+#+#+#+#+#$#$+#+#Oo....  ",
"  ..oO+#+#+#+$+$$+#+#OO+O@...   ",
"    ..oOO+#$#+##+#OOOOOOO@...   ",
"      ...oOOO+#+$OOOOOoO@...    ",
"         ...oOO#+OOoOoO#@..     ",
"            ...oOOOOoOo@..      ",
"               ...oOooO@.       ",
"                  ...@@.        ",
"                     ..         "};
