/* XPM */
static char * pl_xpm[] = {
"32 32 100 2",
"  	c None",
". 	c black",
"X 	c #61852CB20000",
"o 	c #EFBE9A695144",
"O 	c #EFBEAEBA79E7",
"+ 	c #D75CC71B9658",
"@ 	c #79E734D30000",
"# 	c #FFFFAAAA5965",
"$ 	c #F7DEB6DA8617",
"% 	c #FFFFDF7DAEBA",
"& 	c #FFFFFBEED75C",
"* 	c #FFFFFFFFD75C",
"= 	c #D75CCF3C8E38",
"- 	c #FFFFBAEA8617",
"; 	c #EFBE71C60000",
": 	c #CF3CBEFB9658",
"> 	c #FFFFFFFFE79D",
", 	c #FFFFFFFFDF7D",
"< 	c #E79DE38D9E79",
"1 	c #BEFBA28979E7",
"2 	c #FFFF79E70000",
"3 	c #FFFFFBEEDF7D",
"4 	c #FFFFFBEEB6DA",
"5 	c #9E7945140000",
"6 	c #FFFF7DF70000",
"7 	c #FFFF82070000",
"8 	c #FFFFFFFFF7DE",
"9 	c #FFFFFFFFEFBE",
"0 	c #FFFFF7DEB6DA",
"q 	c #F7DEF3CEE79D",
"w 	c #FFFFFFFFCF3C",
"e 	c #FFFFFBEEF7DE",
"r 	c #492420810000",
"t 	c white",
"y 	c #CF3CBEFB8E38",
"u 	c #F7DE75D60000",
"i 	c #E79DDF7D79E7",
"p 	c #F7DE79E70000",
"a 	c #FFFFF7DE9E79",
"s 	c #DF7DD34C5965",
"d 	c midnightblue",
"f 	c #DF7D8E384924",
"g 	c #FFFFFFFFB6DA",
"h 	c #EFBEEBAD9E79",
"j 	c #A6999E7938E3",
"k 	c #F7DEC30BA699",
"l 	c #FFFFDB6CCF3C",
"z 	c #F7DEA2895144",
"x 	c #FFFFFBEEA699",
"c 	c #71C675D62081",
"v 	c #FFFFE38DD75C",
"b 	c #FFFFCF3CB6DA",
"n 	c #EFBE8A2830C2",
"m 	c #514428A20000",
"M 	c #FFFFFFFFAEBA",
"N 	c #596530C20820",
"B 	c #FFFFFFFFBEFB",
"V 	c #FFFFFBEEC71B",
"C 	c #FFFFD75CC71B",
"Z 	c #EFBEBEFBA699",
"A 	c #D75C924869A6",
"S 	c #8E3855554103",
"D 	c #FFFFF3CEA699",
"F 	c #FFFFFFFFC71B",
"G 	c #69A63CF32081",
"H 	c #B6DA6DB65144",
"J 	c #69A62CB20000",
"K 	c #E79DE38D69A6",
"L 	c #79E779E728A2",
"P 	c #B6DA75D669A6",
"I 	c #B6DA92488617",
"U 	c #79E7492438E3",
"Y 	c #BEFBBEFB5144",
"T 	c #D75CC30B9658",
"R 	c #861779E76185",
"E 	c #4924492438E3",
"W 	c #69A649244103",
"Q 	c #FFFFFFFFA699",
"! 	c #EFBEEBAD8617",
"~ 	c #8617820728A2",
"^ 	c #EFBEE79D79E7",
"/ 	c #D75CD34C69A6",
"( 	c #BEFBB6DA4103",
") 	c #F7DEEBAD79E7",
"_ 	c #FFFFFBEE9658",
"` 	c #C71BBAEA4924",
"' 	c #EFBEEBAD79E7",
"] 	c #FFFFFFFF9E79",
"[ 	c #F7DEF3CE8617",
"{ 	c #E79DD34C79E7",
"} 	c #FFFFFFFF9658",
"| 	c #E79DD75C69A6",
" .	c #EFBEEBAD9658",
"..	c #DF7DD75C6185",
"X.	c #F7DEEBAD8617",
"o.	c #FFFFFFFF8E38",
"O.	c #A699A28930C2",
"+.	c #FFFFEFBE9658",
"@.	c #186118610000",
"#.	c #104014510000",
"                      . .                                 X o O ",
"                      . + . .                           @ # $ % ",
"                      . & * = . . .                   @ # - % ; ",
"                    . : > , , < = 1 . . . .         @ # - % 2 2 ",
"                    . & > , 3 * * > * 4 : 1 . . . 5 # - % 6 7 2 ",
"                  . : 8 9 > > > , , * * , * 0 < 5 # - % 7 6 6 5 ",
"                  . q 8 9 9 9 > > , * * * * w 5 # - % 7 7 6 5 @ ",
"                  . e 9 8 9 9 > > > , * * w 5 # - % 7 7 7 5 @ r ",
"                . : t 8 8 8 8 9 > , , * * 5 # - % 7 7 6 5 @ r   ",
"                . 3 8 t t t 8 8 9 > , * 5 # - % 6 6 6 5 @ r .   ",
"              . y 8 8 t t t 8 9 > > , 5 # - % 6 6 7 5 @ r .     ",
"              . > 8 9 8 8 8 8 9 > , 5 # - % u 6 6 5 @ r i .     ",
"            . y 8 > 9 8 8 8 9 9 > 5 o $ % u p p 5 @ r a s .     ",
"            . , d d d d d d > > 5 f d d d d d 5 @ r g h j .     ",
"          . & , , d d > > > d d k l z d d ; 5 @ r g g x c .     ",
"        . : * * * d d > > > d d v b n d d 5 @ m g M g h .       ",
"        . * * * d d d * * * d d b k d d d N r B g M V s .       ",
"      . y w w w d d * * * d d C Z A d d S r B g g M D j .       ",
"    . y w F F w d d d d d G C b A H d d J B g g M g K L .       ",
"    . B B F F w d d w w w P I A H U d d B B g M M 4 Y .         ",
"  . T B g B B d d d F w w R E W G d d d B g M M Q x j . .       ",
". : 0 M M g B d d F B B F F F F B d d g M M Q Q d ! L . . . .   ",
"~ ^ M g M g g d d g B B B g B g B d d M M M Q d d / . . . . .   ",
". . ( ) x M d d d d d g g g g g d d d d d d d d _ Y . . . .     ",
"    . . ` ' Q g M M M M M M M M M Q Q Q Q ] ] Q [ j . . .       ",
"        . . ( { ) 4 M M M Q Q Q Q Q ] ] ] ] } ] K c . . .       ",
"            . . . ( |  .a M Q Q Q ] ] ] } } } [ j . . .         ",
"                  . . . ( ..X.M Q ] } } o.o._ s c . .           ",
"                        . . . ( | ' _ ] } _ [ O.. .             ",
"                              . . . ( ..' +...c .               ",
"                                    @.#.. O.L .                 ",
"                                          . .                   "};
