/* XPM */
static char * scratch_xpm[] = {
"32 32 107 2",
"  	c None",
". 	c black",
"X 	c #61852CB20000",
"o 	c #EFBE9A695144",
"O 	c #EFBEAEBA79E7",
"+ 	c #D75CC71B9658",
"@ 	c #79E734D30000",
"# 	c #FFFFAAAA5965",
"$ 	c #F7DEB6DA8617",
"% 	c #FFFFDF7DAEBA",
"& 	c #FFFFFBEED75C",
"* 	c #FFFFFFFFD75C",
"= 	c #D75CCF3C8E38",
"- 	c #FFFFBAEA8617",
"; 	c #EFBE71C60000",
": 	c #CF3CBEFB9658",
"> 	c #FFFFFFFFE79D",
", 	c #FFFFFFFFDF7D",
"< 	c #E79DE38D9E79",
"1 	c #BEFBA28979E7",
"2 	c #FFFF79E70000",
"3 	c #FFFFFBEEDF7D",
"4 	c #FFFFFBEEB6DA",
"5 	c #9E7945140000",
"6 	c #FFFF7DF70000",
"7 	c #FFFF82070000",
"8 	c #FFFFFFFFF7DE",
"9 	c #FFFFFFFFEFBE",
"0 	c #FFFFF7DEB6DA",
"q 	c #F7DEF3CEE79D",
"w 	c #FFFFFFFFCF3C",
"e 	c #FFFFFBEEF7DE",
"r 	c #492420810000",
"t 	c white",
"y 	c #CF3CBEFB8E38",
"u 	c #F7DE75D60000",
"i 	c #E79DDF7D79E7",
"p 	c #F7DE79E70000",
"a 	c #FFFFF7DE9E79",
"s 	c #DF7DD34C5965",
"d 	c #DF7D8E384924",
"f 	c #FFFFBEFB8617",
"g 	c #FFFFFFFFB6DA",
"h 	c #EFBEEBAD9E79",
"j 	c #A6999E7938E3",
"k 	c #69A62CB20000",
"l 	c #F7DEC30BA699",
"z 	c #FFFFDB6CCF3C",
"x 	c #F7DEA2895144",
"c 	c #EFBE6DB60000",
"v 	c #FFFFFBEEA699",
"b 	c #71C675D62081",
"n 	c #B6DA75D669A6",
"m 	c #FFFFE38DD75C",
"M 	c #FFFFCF3CB6DA",
"N 	c #EFBE8A2830C2",
"B 	c #E79D69A60000",
"V 	c #514428A20000",
"C 	c #FFFFFFFFAEBA",
"Z 	c #69A63CF32081",
"A 	c #D75C9E7979E7",
"S 	c #BEFB7DF76185",
"D 	c #8E3861855144",
"F 	c #596530C20820",
"G 	c #FFFFFFFFBEFB",
"H 	c #FFFFFBEEC71B",
"J 	c #FFFFD75CC71B",
"K 	c #EFBEBEFBA699",
"L 	c #D75C924869A6",
"P 	c #B6DA6DB65144",
"I 	c #9658596538E3",
"U 	c #8E3855554103",
"Y 	c #FFFFF3CEA699",
"T 	c #FFFFFFFFC71B",
"R 	c #79E7492438E3",
"E 	c #E79DE38D69A6",
"W 	c #79E779E728A2",
"Q 	c #B6DA92488617",
"! 	c #514455555144",
"~ 	c #BEFBBEFB5144",
"^ 	c #D75CC30B9658",
"/ 	c #861779E76185",
"( 	c #4924492438E3",
") 	c #69A649244103",
"_ 	c #FFFFFFFFA699",
"` 	c #EFBEEBAD8617",
"' 	c #8617820728A2",
"] 	c #EFBEE79D79E7",
"[ 	c #FFFFFFFF9E79",
"{ 	c #D75CD34C69A6",
"} 	c #BEFBB6DA4103",
"| 	c #F7DEEBAD79E7",
" .	c #FFFFFBEE9658",
"..	c #C71BBAEA4924",
"X.	c #EFBEEBAD79E7",
"o.	c #F7DEF3CE8617",
"O.	c #E79DD34C79E7",
"+.	c #FFFFFFFF9658",
"@.	c #E79DD75C69A6",
"#.	c #EFBEEBAD9658",
"$.	c #DF7DD75C6185",
"%.	c #F7DEEBAD8617",
"&.	c #FFFFFFFF8E38",
"*.	c #A699A28930C2",
"=.	c #FFFFEFBE9658",
"-.	c #186118610000",
";.	c #104014510000",
"                      . .                                 X o O ",
"                      . + . .                           @ # $ % ",
"                      . & * = . . .                   @ # - % ; ",
"                    . : > , , < = 1 . . . .         @ # - % 2 2 ",
"                    . & > , 3 * * > * 4 : 1 . . . 5 # - % 6 7 2 ",
"                  . : 8 9 > > > , , * * , * 0 < 5 # - % 7 6 6 5 ",
"                  . q 8 9 9 9 > > , * * * * w 5 # - % 7 7 6 5 @ ",
"                  . e 9 8 9 9 > > > , * * w 5 # - % 7 7 7 5 @ r ",
"                . : t 8 8 8 8 9 > , , * * 5 # - % 7 7 6 5 @ r   ",
"                . 3 8 t t t 8 8 9 > , * 5 # - % 6 6 6 5 @ r .   ",
"              . y 8 8 t t t 8 9 > > , 5 # - % 6 6 7 5 @ r .     ",
"              . > 8 9 8 8 8 8 9 > , 5 # - % u 6 6 5 @ r i .     ",
"            . y 8 > 9 8 8 8 9 9 > 5 o $ % u p p 5 @ r a s .     ",
"            . , > > > 9 9 > > > 5 d O f ; ; ; 5 @ r g h j .     ",
"          . & , , > > > > > > k l z x c c ; 5 @ r g g v b .     ",
"        . : * * * , , > > > , n m M N B c 5 @ V g C g h .       ",
"        . * * * * * * * * * Z z M l A S D F r G g C H s .       ",
"      . y w w w * * * * * * n J K L P I U r G g g C Y j .       ",
"    . y w T T w w * * * w Z J M L P I R k G g g C g E W .       ",
"    . G G T T w T w w w w n Q L P R Z ! G G g C C 4 ~ .         ",
"  . ^ G g G G G T T T w w / ( ) Z G G G G g C C _ v j . .       ",
". : 0 C C g G G G T G G T T T T G G g g C C _ _ _ ` W . . . .   ",
"' ] C g C g g g g g G G G g G g G g g C C C _ [ [ { . . . . .   ",
". . } | v C C g g g g g g g g g C g C C _ _ _ [  .~ . . . .     ",
"    . . ..X._ g C C C C C C C C C _ _ _ _ [ [ _ o.j . . .       ",
"        . . } O.| 4 C C C _ _ _ _ _ [ [ [ [ +.[ E b . . .       ",
"            . . . } @.#.a C _ _ _ [ [ [ +.+.+.o.j . . .         ",
"                  . . . } $.%.C _ [ +.+.&.&. .s b . .           ",
"                        . . . } @.X. .[ +. .o.*.. .             ",
"                              . . . } $.X.=.$.b .               ",
"                                    -.;.. *.W .                 ",
"                                          . .                   "};
