/* XPM */
static char * drawing_xpm[] = {
"32 32 6 1",
" 	s None	c None",
".	c grey4",
"X	c white",
"o	c grey76",
"O	c DarkOrange1",
"+	c green1",
"    ..................          ",
"    .XXXXXXXXXXXXXXXX..         ",
"    .XXXXXXXXXXXXXXXX.o.        ",
"    .XXXXXXXXXXXXX.XX.oo.       ",
"    .XXXXXXXXXXXXX.XX.ooo.      ",
"    .XXXXXXXXXXXX..XX.oooo.     ",
"    .XXXXXXXXXXXX..XX.ooooo.    ",
"    .XXXXXXXXXXX.O.XX........   ",
"    .XXXXXXXXXXX.O.XXoooooo..   ",
"    .X..XXXXXXX.OO.XXXooooo..   ",
"    .X...XXXXXX.OO.XXXXXXXX..   ",
"    .XX...XXXX.OOO.XXXXXXXX..   ",
"    .XXX...XXX.OOO.XXXXXXXX..   ",
"    .XXXX...X.OOOO.XXXXXXXX..   ",
"    .XXXXX....OOOO.XXXXXXXX..   ",
"    .XXXXXX..OOO.....XXXXXX..   ",
"    .XXXXXX.OOO.+++++.XXXXX..   ",
"    .XXXXXX.OO.+++++++.XXXX..   ",
"    .XXXXX.OO.+++++++++.XXX..   ",
"    .XXXXX.O.+++++++++++.XX..   ",
"    .XXXX.OO.+++++++++++.XX..   ",
"    .XXXX.OO.+++++++++++.XX..   ",
"    .XXX.OOO.+++++++++++.XX..   ",
"    .XXX.OOO.+++++++++++.XX..   ",
"    .XX.OOOOO.+++++++++.XXX..   ",
"    .XX........+++++++..XXX..   ",
"    .XXXXXXXXXX.+++++....XX..   ",
"    .XXXXXXXXXXX.....XX...X..   ",
"    .XXXXXXXXXXXXXXXXXXX..X..   ",
"    .XXXXXXXXXXXXXXXXXXXXXX..   ",
"    .........................   ",
"     ........................   "};
