/* XPM */
static char *magick[] = {
/* columns rows colors chars-per-pixel */
"32 32 16 1",
"  c #000000",
". c #303030",
"X c #400000",
"o c #404000",
"O c #585858",
"+ c #800000",
"@ c #c00000",
"# c #c05800",
"$ c #ff8000",
"% c #ffa858",
"& c #808080",
"* c #a0a0a0",
"= c #c3c3c3",
"- c #dcdcdc",
"; c #ffffff",
": c None",
/* pixels */
";;;;;;OOOOO;;;;;;;;;;OOOOO;;;;;;",
";;;;OO-o-o-.O.:::::O.-O;O;OO;;;;",
";;;O;Oo;O;..&-;-%%$$X:;O;oO;O;;;",
";;O;o;;;&&=;;;;;##$$$@.O;;;o-o;;",
";O;O;;;&=;;;;---@######:X;;;O=O;",
";Oo;;;O;;;;---=-@@@@@###@X;;;Oo;",
"O-O;;O%;;--==***+@@@@@###@O;;O=O",
"Oo;;O%%#===*&&O&.X++@@@##-*o;;Oo",
"O-OO%%$#@=*&&;;;;;;+++@#=;-&oO=O",
"Oo;O%$##++O;;;;;;;;;;+@;;;-*O;Oo",
"O-.*%$##+o;;;;;;;;;;;;*;;;;=&:=O",
";..%$##@+;;;;;;;;;;;;;;*-;;-*.:;",
";O:%$##++;;;;;;;;;;;;;;*-;;-*OO;",
";X*$##@+;;;;;;;;;;;;;;;;*;;;=O:;",
";:%$##++;;;;;;;;;;;;;;;;*;;-=&:;",
";:*$#@++;;;;;;;;;;;;;;;;O;;-=&:;",
";:=;;=*&;;;;;;;;;;;;;;;;#$%#@+:;",
";:-;;=&&;;;;;;;;;;;;;;;;#%%#++:;",
";.-;;-=&;;;;;;;;;;;;;;;;#%$@@+.;",
";O&;;;=*&;;;;;;;;;;;;;;#%$$@+XO;",
";.o;;;-=&;;;;;;;;;;;;;;#%$#@+:.;",
"O-.=;;;-=&;;;;;;;;;;;;O%$#@++:=.",
"OO;&-;;;-#+;;;;;;;;;;*%%$#@+X;o.",
"O;O:=-;-##$++;;;;;;*&;;$#@+X:O=.",
"OO;;O-=###$%#@o@&*&=;;--#@+X;;o.",
"O;O;;O@@###$$$%$;;;;;;-==+X;;O=.",
";OO;;;X@@@####$#;;;----*&.;;;OO;",
";O;O;;;X++@@@@##-;--==*O.;;;O=.;",
";;o-O;;;:X+++@@+-==*&&o:;;;o=.;;",
";;;O=OO;&;XX.+++&&&O.:;&;:O=.;;;",
";;;;oO=O=O=.O::::::O.=o=o=..;;;;",
";;;;;;OooOo;;;;;;;;;;.....;;;;;;"
};
