/* XPM */
static char * edit_xpm[] = {
"32 32 49 1",
" 	c None",
".	c #4E2204",
"X	c #662E04",
"o	c #DA8E4C",
"O	c #F6C2A4",
"+	c #D69E7C",
"@	c #EE9A54",
"#	c #EEAE7C",
"$	c #F6A254",
"%	c #FEE2D4",
"&	c #7A3604",
"*	c #FEAA5C",
"=	c #F6B684",
"-	c #FEDEAC",
";	c #EA6E04",
":	c #FEBA84",
">	c #EE7204",
",	c #CE7244",
"<	c #B6826C",
"1	c #FA7A04",
"2	c #9A4604",
"3	c #FA7E04",
"4	c #FE8204",
"5	c #F27604",
"6	c #F67A04",
"7	c #FABE84",
"8	c #6A2E04",
"9	c #FEDACC",
"0	c #B6766C",
"q	c #FACEB4",
"w	c #EE8A34",
"e	c #E66A04",
"r	c #562A04",
"t	c #6E3E24",
"y	c #BE7E64",
"u	c #8E6254",
"i	c #5A320C",
"p	c #FAD6C4",
"a	c #EEBEA4",
"s	c #D2926C",
"d	c #B66E54",
"f	c #925A3C",
"g	c #8A5644",
"h	c #7A4A3C",
"j	c #B69284",
"k	c #565654",
"l	c #827A64",
"z	c #4E4A3C",
"x	c #6A4A44",
"                                ",
"                                ",
"                                ",
"                                ",
"                     ...        ",
"                    XoO+.       ",
"                   X@#$%O.      ",
"                  &*=-;$%+.     ",
"                 &*:->;;,<.     ",
"                &*:-11>2X.      ",
"               2*:-3412&.       ",
"              2*:-4332&.        ",
"             2*:-4432&.         ",
"            2*:-4442&.          ",
"           2*:-4432&.           ",
"          2*:-3332&.            ",
"         2*:-3342&.             ",
"        2*:-5332&.              ",
"       2@=-5662&.               ",
"      2o#7>>>2&.                ",
"     8O9$;;>2&.                 ",
"     0%qwe;2&r                  ",
"    t9qO+yui.                   ",
"    0pasdfg.                    ",
"   tpqsdfh8                     ",
"   0jsdhtk                      ",
"   lzxt                         ",
"                                ",
"                                ",
"                                ",
"                                ",
"                                "};
