/* XPM */
static char *Viewer6[] = {
/* Viewer6 pixmap
* width height ncolors chars_per_pixel */
"32 32 17 1 ",
/* colors */
"0 c black       m black         s s_black ",
"r c red4        m black         s s_darkred ",
"g c green4      m black         s s_darkgreen ",
"y c yellow4     m black         s s_darkyellow ",
"b c blue4       m black         s s_darkblue ",
"m c magenta4    m black         s s_darkmagenta ",
"c c cyan4       m black         s s_darkcyan ",
"a c gray50      m black         s s_darkgray ",
"A c gray75      m white         s s_gray ",
"R c red         m white         s s_red ",
"G c green       m white         s s_green ",
"Y c yellow      m white         s s_yellow ",
"B c blue        m white         s s_blue ",
"M c magenta     m white         s s_magenta ",
"C c cyan        m white         s s_cyan ",
"W c white       m white         s s_white ",
"  c None        m white         s None ",
/* pixels */
"       0000000                  ",
"     00AAAAAAa00                "
"    0AAcccccaaaa0               ",
"   0cccCWCWCccaaa0              ",
"  A0cWCWCWCWCWcaaW0             ",
" A0cWCWCWCWCWCWcWWW0            ",
" A0cCWCWWWCWCWCWcWW0            ",
"Aa0cWCWWWCWCWCWCWcWa0           ",
"Aa0cCWWWWWCWCWCWCcWa0           ",
"AW0cWCWWWCWCWCWCWCca0           ",
"AW0cCWWWWWCWCWCWCWca0           ",
"AW0cWCWWWWWCWCWCWCca0           ",
"AWW0cWCWWWCWCWCWCWca0           ",
"AWW0cCWCWWWCWCWCWCca0           ",
" AWW0cCWCWWWCWCWCWc0            ",
" AWWa0cCWCWCWCWCWCc0            ",
"  Aaaa0cCWCWCWCWCc00            ",
"   Aaaa00cWCWCWC0000            ",
"    Aaaaa000000000AA0           ",
"     AAaAAAAAA00AWaAA0          ",
"       0000000  AaWaBB0         ",
"                 AaWCBB0        ",
"                  bCWCBB0       ",
"                   bCWCBB0      ",
"                    bCWCBB0     ",
"                     bCWCBB0    ",
"                      bCWCBB0   ",
"                       bCWCBB0  ",
"                        bCWCB0  ",
"                         bCWB0  ",
"                          b00   ",
"                                ",
};